/* XPM */
static char *result[] = {
/* columns rows colors chars-per-pixel */
"64 64 129 2 ",
"   c #362736",
".  c #3C2B37",
"X  c #362D3C",
"o  c #3C2E3B",
"O  c #3E313C",
"+  c #432F3B",
"@  c #44333D",
"#  c #4B363D",
"$  c #4D393E",
"%  c #553B3E",
"&  c #5B3C3E",
"*  c #613E3D",
"=  c #5D413F",
"-  c #64423F",
";  c #6B443F",
":  c #6F483F",
">  c #70473E",
",  c #392F43",
"<  c #463542",
"1  c #493741",
"2  c #473943",
"3  c #4C3B43",
"4  c #4C3C4A",
"5  c #523D43",
"6  c #5C3E41",
"7  c #513E48",
"8  c #633E41",
"9  c #4D4146",
"0  c #4E424A",
"q  c #554245",
"w  c #5D4343",
"e  c #5D4846",
"r  c #544449",
"t  c #5A4649",
"y  c #56484B",
"u  c #5D4A4B",
"i  c #514352",
"p  c #594750",
"a  c #5C4C51",
"s  c #5E5155",
"d  c #634543",
"f  c #6B4542",
"g  c #654946",
"h  c #6C4C45",
"j  c #644749",
"k  c #644C4A",
"l  c #6B4D4A",
"z  c #734D44",
"x  c #794E42",
"c  c #734F4A",
"v  c #6E5147",
"b  c #65514B",
"n  c #6C534C",
"m  c #745146",
"M  c #7B5245",
"N  c #73544B",
"B  c #7A554A",
"V  c #74594D",
"C  c #7B5A4C",
"Z  c #634E51",
"A  c #694F50",
"S  c #655251",
"D  c #6C5552",
"F  c #6D5953",
"G  c #635359",
"H  c #6D5B5A",
"J  c #725651",
"K  c #785651",
"L  c #745B53",
"P  c #7B5D52",
"I  c #735E5A",
"U  c #7A5E5A",
"Y  c #766155",
"T  c #7C6255",
"R  c #76615B",
"E  c #7B645A",
"W  c #7D695C",
"Q  c #735E66",
"!  c #7A6563",
"~  c #7E6A61",
"^  c #786869",
"/  c #815647",
"(  c #825847",
")  c #815749",
"_  c #835B4C",
"`  c #895E4C",
"'  c #835E52",
"]  c #895F50",
"[  c #85604E",
"{  c #8B624E",
"}  c #91654F",
"|  c #836354",
" . c #8B6453",
".. c #876956",
"X. c #8B6A57",
"o. c #83655A",
"O. c #8A675A",
"+. c #84695C",
"@. c #8B6C5B",
"#. c #916652",
"$. c #946A53",
"%. c #9A6E53",
"&. c #916B5A",
"*. c #8F725F",
"=. c #9D7155",
"-. c #93725C",
";. c #9A735B",
":. c #A27456",
">. c #A67857",
",. c #A0775A",
"<. c #A6795A",
"1. c #AA7D5C",
"2. c #856661",
"3. c #846B62",
"4. c #886E60",
"5. c #866E6E",
"6. c #867064",
"7. c #8C7263",
"8. c #8D746C",
"9. c #947563",
"0. c #9C7764",
"q. c #947B67",
"w. c #9B7A66",
"e. c #93766A",
"r. c #93796C",
"t. c #A17A62",
"y. c #9C8269",
"u. c #B18360",
"i. c #AB8978",
/* pixels */
"r t k k k k j w 3 % w g w w w q # # % % 5 5 % % $ % q d w w q q q u u u y q q # 3 q u r 3 q O @ 3 5 q u e = e = $ 9 7 e j j r r ",
"| T ' T T ..@.E 3 5 o.P V N N V c ' ' _ _  . .@.q 3 4.D w g l k k k b n n L T g Z I n n k b 1 D F V V L T T W Y D 7.o.T P L V U ",
"B B N N N B | o.1 u o.d * & * * x ' x M _ _ [ &.w 3 L j w w g w w e = = d k V q u n w w d w D l h v h v m C T b S r..._ C c z C ",
"_ C N N m m P T 1 L K - * & ; * z z : x M M _ { g q D d d g w g d d - e g g n k u n g d w k j w g v N N V C C b u o.C B z N B ) ",
"C C m m m h P o.q V ; & & * ; ; x > x x M M C { g 5 D k d d g d g d w w w d n u t l j w = = = e v v v N C C | V k U N z B C ` ` ",
"C _ N m m m | @.u n ; - * ; ; f x > x x : M ( { g 4 n w j g k g g d d d w g l t q l k w = = w g v m V C C [ ..T S o.B C ] | [ [ ",
"_ B m m N N [ @.u l h - ; f f : > x M > : { {  .v 2 u H V n n l b g g g g g n q q n g w = w d v v m V C [ | -...a +.| { { { { [ ",
"C m h v N C | *.r k h - f z f : M > > > M { }  .v O ^ ~ L F D n n n l k h k n j t k d w d g h v N N C [ | [ X...Z +.J P { { [ { ",
"| _ B N V ' O.*.r k h - f z h : : m > > / `  .{ y a W W W R Y F V n n l n l D t r k d d g v v N N C | | | X.*.@.t S I o.[  .{ [ ",
"X.X.[ C ' o.O.P 5 u l z m m z z M M ( M M ` { [ = y Y H R R Y F L n n n n n L r e D j l N N N C | X.X.&.-.-.| B 5 I @.| _ C [ { ",
"v g d = w h l #   @ % d = & % & d - - - : f d 3 O O = 2 = 2 2 = 3 3 3 3 @ # 3 O < q 6 w e d w g g v n V n g 5 # , 7 6 d d d g g ",
". 3 t t q q 1 6 e j e 5 q u j e < H R n F L Y I Y F F H Y ^ Y X 0 H H D D S S n S D b D S F S 3 a y u S k b S Z S q 7 k N V n g ",
"5 j K c c j j l l l l j N N U P 3 ! 6.Y T T *...E W T W W W W y s 6.+.Y L R R Y T T T T T *.R a 3.o.P o.' P J B K J ' ] &.t.t.;.",
"5 6 l 8 6 8 6 6 6 6 6 6 g k L J 9 b V V V V Y Y v v v n Y b V = G ~ F v k D n n N C T C P T D y o.V K B z f f f f K B z C ] ] _ ",
"7 6 l 8 8 8 8 & 6 6 6 8 d j J l 2 s C : V V V C V v V V F V Y y s R F b g b n n V P T P T ..n y o.P B B c z z z z z z z ' ] ] C ",
"6 1 j c 8 8 8 6 8 6 6 d f d l j = F C V V C V V V V v n F F Y y s R L b e k n n V N P T | X.Y 2 U B B B M z z c M z x B ] ] ] _ ",
"7 7 Q z 8 c 8 8 8 6 & 6 8 d l j 2 D T V C C C V V : V V V V F = s R n g g e b n V C T | | @.T , D O.C M z z c z z M B ) _ ] ] ] ",
"7 A c c 8 8 8 8 6 6 6 8 8 j l w 2 U | P C N V V V C Y Y Y Y Y y s R n b u g v n V C | ....-.E 4 2.] B B z z z z z B ) ) ) / _ _ ",
"1 6 c j c 8 8 8 6 6 8 j j k l w < U o.P P C m V Y P P P T Y Y y s Y n b b b n N V T ..X.@.9.L r o.' B B B z z z M B ( _ ` _ ) _ ",
"5 1 8 j 8 A 8 8 d d l l l l l 6 4 U U ....| T C ....T W T C C = s R Y n g e Y T | T X.@.*.9.D q O.] B c z B B M B _ ` } ` _ ) ] ",
"+ o < 6 8 j c c d 8 d 6 d d 6 # o Z l J V V n V F Y V V F b y = @ y b e 9 F V V V V T ..+.P q 1 c c z c z z z z z x B B x c x ) ",
"6 5 5 t p 6 7 7 3 7 5 e q 5 5 3 $ q u j e e q q O = y = = y = = q r y a y b q @ @ $ = y u 3 q q 5 5 q q q q j 3 1 + 3 j l j j j ",
"J K K V c K K J 7 A ' O.' o.O.O. .@. . . .&.@.o.9 R ~ Y W W Y F Y W W E W Y Y b y R S b j b n n D A D k D J 3.J 5 j Q &.) K K K ",
"z N V c k l l l d p U c * d 8 z x M / C _ #.&.+.y R W F Y s V b b e b b b S W V 9 F e = w w 6 & 6 6 % 6 d d n U 7 2.0.K z f l z ",
"c V B N c c l c d p K z f 8 f f B ) ) B _ ] ' ' 7 D U F b b b b b b b b b b W Y @ j w d w w w w w % % 6 w j l J 7 2.9.c c c c c ",
"N B V N V B V N g k B f f f f z B ) ) _ _ ) ) _ j G R L F b b b b = b b b b W F 3 l w w d d w w 6 & 5 k w j l l 1 U  .M x c c M ",
"N V B B C C C _ c d B z f 8 8 f c B ) ) ( ) B _ k u L L F b F b b b b b b F Y Y 3 l d w d w w d w w w d w j k j 7 U #._ ) c K B ",
"B V B P V T | ..n j ] B c z z z z B ) _ ( _ ( ` k u Y F Y F b F b F F F b Y Y Y 3 l h d g g g g f j d d d d l K t ' #.] ] _ ) ) ",
"C P C V _ ..+.@.k 5 ' _ _ B c x x ) ( ` ` ` ` { j u Y E Y F F b b b F b F Y W Y 0 n h l l l h l h l h d d h N N 5 P  .{ ] ] ` C ",
"C ' | | ..+.*.X.q 6 ' #.] ) B ) ) ) ( ` } } {  .e u L Y S b b b b b b b Y W *.Y 3 n h n N N n l g l n l l c V B 5 P &. .]  .] _ ",
"T P P ..| X.X.| 5 w N B ] _ ) _ ) ' ` #.#.`  . .$ y L V u b b u b b b b Y Y F b # k l c V P P N Z K N l c c l j 1 c ]  . . .#.] ",
"w w 5 w w w q q . . + @ 1 6 8 6 8 8 d h d 8 d # X O q q @ @ q = 9 = 9 = 9 O O 9 X @ 5 5 5 5 6 1 7 e 6 % 6 5 @ 1 < 5 5 5 d d j w ",
"V P 3 0 ! H S S u r S b b k u u t r p ! E +.+.7.+.+.T Y F F F @ y b F F = O b F C | |  .X.+.....n X Q e.2.' K ' U 7 L U L U J K ",
"B o.L 3 8.~ F L S u D k n k k n R D H r.q.w.w.9.*.W T T T +.7.r Y W C Y F 9 Y ..| ` _ X. .&.-.;.X.# 5.i.O.) ) ' K K o.) P K B B ",
"V P Y 3 ! H n k j D n k j k g e l k a e.X.o.| C N n n n L V +.y b v v V k b @.[ C M m B C C _ |  .7 e.0.c ) ) c c K x c N B B N ",
"B C L q H R S b S F n n k k g k l k p 3. .| _ V N V v v V F L u s Y v v N ..[ C B B x x M _ _ _ ' t 7.B z 8 c x c c c x B C C C ",
"P P J r H F D k k k n n n l k k D k r E _ [ C C V V N v n V V k Z U h _ _ ( _ _ ( M m : m B C _ c r ' z l z c c M M : B B B C C ",
"P _ P r F H D D D n n V V n n k n A 7 P [ [ [ C C N V v n V T b < S U _ _ { ` ` / M x h z x M B N t ' c c c ) ) B C M C N B C C ",
"V P V 4 H R F D J n n V V V n N V J 5 U _ P C [ [ N N V V N L k i Q m _ ` } { _ _ M : : : : z m N t K B K x ) c m : : [ : C C C ",
"n n J 3 H L F n J L V J K V J V ' J 5 J C [ _ [ C C N T T ..| u G 2.x ( ` } { ` ( M M z : z z h z q ' O.x B B B M M C : [ C C C ",
"V n n 3 H L n L K L L V V K P | +.S 5 L C C C V N N C P ..+.7.b 7 U l ) } } { { / / ( / m x m z z 3 ' &.B B M B B M C B [ [ C C ",
"n n k 2 S u j k l V V n n V V o.D 3 # k N N N l n N n N V N L u , d K B [ [ ( ` ` ( ( / z c z h h . U &.C c B M C C C C C C C m ",
"q r t 0 3 0 q q 3 2 3 3 r r u u q q r r e r 5 5 # $ q w q q q 3 3 r w j b n b = w l n l k l n e w 3 t k d 6 q w = u q u u y e = ",
"L L L L n b n F E a k L b k S D l A D J D D l D u q P V C | | T V B C V C C [ v O Y X.C | | ..[ | o.T U ' P T | q Y r.3.3.W W Y ",
"b - g - d g g h P F k n d 6 d & 8 6 w 6 d j d l k q C N C C C C C C M m : v C C O u h h m B C N B _ P B N N m V q ! 6.F L V V n ",
"v b g e g b b v P L k k 6 8 w = w w 8 d w j j j u y L N B C C M _ _ B M B v C V @ n g d : N C B V C M m m m h M w R E L V n n b ",
"v v v v v V : v | L e h w d d d w 6 6 d 8 6 g k b b T v m C _ [ _ { [ C B : C v 1 n d d h z m B M z m C _ ( M _ g F R n n l v b ",
"V V V V V V v v V P S n f d - g f d d d w d g V n u P v B [ [ { { { { { C C C : 3 L h d g h : M m M / _ ( { _ B q r V V V N n n ",
"C : C V N N C C X.T k D h g g f g f h h d g n T V u Y N _ { { } $.%.$.{ _ _ [ g 3 V v : : h : M ( _ { { { ( ( B - u | T P V V P ",
"C C C C C C C [ ;.T u n h h v h h h m v h n N T P q C N C { } %.%.%.%.{ [ C [ d 2 L B m m m M C { #.$.} { { { _ n k +.| | C T C ",
"C C C C C P [  .;.T = n f m m h m v N N N N N T V q V C _ { $.%.%.%.$.} _ C _ g @ L v C _ C C { $.=.:.$.$.$. . .V 3 Y o.| T T C ",
"C C C C [ | _ | *.Y = b v N C N N B N B N N N P V q V B [ { } } %.%.{ v { [ [ g . u C } } { } =.:.:.=.%.,.<.X. .h # P X.| ..| T ",
": V m m C C V l k 3 1 j = g m m N h l c n h h N l $ l h v m C _ [ [ M e C C C =   b  .%.$.$.%. .$.#.&.$.;.=.] n & @ k J P K V V ",
"O = q w g k k k e q 5 t r u u 3 @ 1 5 5 5 5 q q w q w j k l l q # % e e q 3 3 q q 0 k n V n e = w w k k k g q 5 5 5 5 e j u b q ",
"y ~ +...| | | ' ' ' P ' ' | ..O.P 5  .&.X. .[ ` [ [  . .X.@.@.l y 6.+.6.3.6.6.7.6.7.7.q.y.*.b O S I I J U P J N l l N V V E 7.P ",
"y +.| | ' V M z B C B B z f f ] P < @.;._ M M / / M _ / M ` #.N k 6.Y L Y E T L Y P Y +.+.*.+.9 H 3.K l h d & & & d - d f h V K ",
"7 c ' #.] ) c z z z z z f f z x N 5 O.( ; x M M M x ( { _ _  .V r F n n n V n n n n V F Y W *.e k J v ; w & % & 6 d - g f h m V ",
"7 c ' #.#.` _ x f f f f f f f x C j P f f x M x x / { } } } $.V r L k n n n n n n V V V V T E @ Z V g d - & & % & d f g v v m n ",
"t J ] %.:.:.=.} ( x f f f f z M ) n _ > f f M M M ( { { %.%._ 1 u D k b n n n n n n V V V V Y 9 u L f d = 8 = & 8 - f h h m C V ",
"7 N $.=.>.>.:.=.` ( x x x x c ) C D  .x x x > x M M M ( ` $.%.5 a D N V V V V n n n V V T W y.s j c f d d d w = d d f v m N X...",
"4 K %.:.<.>.:.%.} ` / x x x / ` m L  .M ( : M x x M / M ( $.<.h 4 Z L Y Y V n n V L L T E +.4.a Z K f j - w - d g - v N N N X...",
"4 K <.1.1.1.>.=.} ( / / x x / #.g D ` ) / M M > M > M / _  .=.k p 3.Y Y Y n n n V P Y L L W 4.S A K h 8 d = h f h : B C C [ X.| ",
"2 l <.u.1.1.:.>.=.} ` ` / / _ #.w z M _ ( ( M / M M _ { { %.%.d a W Y Y V n V V L Y Y L E +.3.u D K N h : v m m V [ C [ ..X.-.V ",
"2 t ' =.;.#.] } $.( _ ) ) ) _ c # w x m M M m M m M M _ [  .P q 3 D n n n b b b n n n V L S Z 0 j c l l h b v v B C C C C | ..g "
};
