/* XPM */
static char *result[] = {
/* columns rows colors chars-per-pixel */
"64 64 109 2 ",
"   c #20151B",
".  c #24181A",
"X  c #2A1F24",
"o  c #2B2324",
"O  c #322626",
"+  c #332927",
"@  c #342C2C",
"#  c #302D30",
"$  c #363131",
"%  c #3A3535",
"&  c #3A3439",
"*  c #3E393A",
"=  c #443D3C",
"-  c #46413F",
";  c #4E443F",
":  c #423F42",
">  c #454244",
",  c #4B4544",
"<  c #4C4947",
"1  c #474548",
"2  c #4D4A4B",
"3  c #524643",
"4  c #524945",
"5  c #524D4B",
"6  c #594F4B",
"7  c #5D5044",
"8  c #55504E",
"9  c #5C524E",
"0  c #524F51",
"q  c #555354",
"w  c #595555",
"e  c #5B5855",
"r  c #575659",
"t  c #595759",
"y  c #5D5A5C",
"u  c #615550",
"i  c #625E5D",
"p  c #6C5E5B",
"a  c #64615E",
"s  c #6B635E",
"d  c #5E5D61",
"f  c #615E61",
"g  c #656263",
"h  c #696665",
"j  c #6A6866",
"k  c #666469",
"l  c #696669",
"z  c #6C6A6C",
"x  c #726764",
"c  c #716E6D",
"v  c #7C6E6C",
"b  c #6F706F",
"n  c #72716F",
"m  c #7B736E",
"M  c #666876",
"N  c #6E6D70",
"B  c #716E71",
"V  c #747374",
"C  c #797676",
"Z  c #7B7977",
"A  c #767579",
"S  c #79777A",
"D  c #77787A",
"F  c #7C7B7C",
"G  c #837A74",
"H  c #8A7D75",
"J  c #817E7D",
"K  c #82817E",
"L  c #7D7C81",
"P  c #7D7D8B",
"I  c #7E7C90",
"U  c #817D82",
"Y  c #7E8082",
"T  c #848383",
"R  c #898685",
"E  c #878887",
"W  c #8A8986",
"Q  c #868588",
"!  c #89868A",
"~  c #878889",
"^  c #8C8B8B",
"/  c #928C87",
"(  c #918E8D",
")  c #8F908F",
"_  c #92908E",
"`  c #888593",
"'  c #8E8D91",
"]  c #918E92",
"[  c #918F99",
"{  c #8F9091",
"}  c #939293",
"|  c #9A9694",
" . c #969896",
".. c #9A9995",
"X. c #969499",
"o. c #98969B",
"O. c #979899",
"+. c #9B9B9B",
"@. c #A19796",
"#. c #A19E9C",
"$. c #9FA09F",
"%. c #ACA498",
"&. c #9D9BA0",
"*. c #A09FA0",
"=. c #A3A1A2",
"-. c #A8A3A1",
";. c #ADABAC",
":. c #B2AFAE",
">. c #B5B4B5",
/* pixels */
"F F U T R R ! R R T T T R ^ ] -.e Y ) ~ ~ Y Y L A A b D b ^ ` ^ ` ' ' ] [ z U ^ ~ ~ ~ ~ ~ D V ^ ! ! ^ ) ] } ] ' ! ! ] y i T J U ",
"C C Z F T R R ! R T T U R ^ ! T : 0 Y ) { Y Y D A A b A M Y ~ Q ' ] ] ] X.c F Q ~ ~ ~ ~ E N D ^ ! ^ ^ ^ ] } } ' ^ ! } c B L C C ",
"C V V C U U T T T T T R R ^ H 7 * F Y Y Y Y Y Y A A A V k Y ` ^ } X.[ [ } l F Q ~ ~ ~ E Y N D ^ ! ^ ^ ) } X.X.] ' ^ X.U z L C C ",
"V V V C Z J U T T R T T R R #.%.> D Y D Y Y Y Y D A b A d Y ~ ^ ] X.] ] } k D ~ ~ ~ ~ T Y V z ! ! ! ^ ^ } } } } } ! } F z U C F ",
"C Z C Z U T T ! R W W ^ ^ ^ ^ %.g b D Y Y Y K Y D D D F 0 z Y { ] } } ^ X.k A Q W ~ ~ E T V t R T ^ _ ' } } } } ( ^ } S N T F V ",
"> g k y i y c B z c V z z C F L e j r j z b b z : 0 b b : # l j A A z b S 0 2 N D Y Y D Q A t R Y E ^ ^ } } ] } ' ! } C f D y 2 ",
"g h h c c = 6 C V V b z z V F Y j b n n a y % * D V n b j b b b V C n + e n g 1 g g 2 q d h q i k g g h f 4 w z V B F d y z g h ",
"/ ^ / | +.J 0 ' ^ ! ^ E )  .O.$.W  . ...W Z < < ^ ) / W ~ W W / W ^ @.K W _ R b | ! a ^ T T T Z K R ! ^ ! i C ^ ! ! ) ! ^ ^ ! } ",
"W ! ^ ^ | Z = T ) ^ ~ ) ) } } } $.) ) Y ) K 7 < K K W W / W W W R W W _ W W W K ../ b W T T T R T K Y R ^ ^ ^ ^ R R T T Q T T Q ",
"! ! ^ ] #.z $ V W ) ) ) )  .}  .)  .) E K K j - K W W W W W W K K K K J K W ^ ) _ ) j K T K T K F K T T T ^ ^ ^ ! Q Q T T Q T R ",
"U / / ( | C o D ) ) ) ) ) )  .} )  .) Y K Y K - K ) W / / / ^ W K K J Z J K W ) _ _ j K T T T K K K K T R ~ ^ ^ ^ ~ T R T ~ ~ T ",
"U R ^ W ( R * K ^ ^ ) ) ) ) )  . . .) E K Y F - K / W W ) W / / K K Z Z G Z K ^  . .a J F T K U J T T R Q ^ ^ ^ E R T R ~ T Q T ",
"U U R T ! Z k ! E ) ) )  .) )  . .) ) E K K E - K W W / W / K K K K G Z Z K K W  .K < Z J K K K J T K T ~ ! ^ ^ ! T T T T U J U ",
"U T T U T V z R E ^ ) ) ) )  .}  .) E Y Y K E < K W W W W W K K K K J G J K K W _ W < F J J J T T T T R E ! ^ ^ ! T F U L L T L ",
"F F U U T z r E T ~ ) ^ ) ) {  .) ) Y ) E K Z 8 K K K ) W K K K K K K m Z K / W / _ < Z K J T T T T T T R E ^ ! ! T F F F U F F ",
"L F U T E V z W ) { ) ) ) ) )  .$. .) ) Y Y K 8 ) ) W K K K K W K / W K Z K ) )  ._ % s R R R R E R W R ! K ^ } ^ R U F F V U F ",
"B N V c B f y F Z F T T K F g K T K F Z D V V % h f < c J Z Z K W W K W Z G K K K K + * e e e s V n z n n j F Y F Y Z V > y N g ",
"Z V + i C Z V V V C C C n = = g K F V V V Z 7 h c 6 u 9 $ h Z a a e 7 j j j G j e j s e 8 e a m n i ; @ a n j d h z z h h h z V ",
"( _ 3 C W ( _ _ ( _ _ _ ..< e +.=.} } O.} O._ ( ( W / / , Z _ / K K n K E K K %.K K K K K K K K K K J > F ) T K K Y J K R W ) ) ",
"W ^ x V R R W ( / ^ / W _ 4 K #.} } } } ( ^ ^ ! U U U ! 8 V ) W K  .K K W W ..K _ K K K K K K K K Z J , D ) K J F F F Y K E W W ",
"^ / T G T T R ^ ^ / ( ] ( z +.} } ( ' ' ' ! R T U F J R 8 n _ ) .. .K K K K K K K ..K K K K K K K J Z , T ) T Y K T T R R W ! ^ ",
"^ W R J G J R R ^ ( ^ ( | g } } } } ' ^ ^ ! R U J U T R 8 n ) _  .K K  .K ....K K K ..K K K K K K K J - b ^ Y K K T R W ^ ^ ^ ^ ",
"/ ^ U J J J T W / ^ / ( ( i ( ] } ^ } ' ^ ! T L J U T _ q b _ _ K  ...K K K K K K K K K K K K K K J K < D T K K Y T W W ^ W ) W ",
"^ ^ / R J T T W ^ W ^ ( ] q ] ] ^ } ^ ^ ^ Q T U J K R _ q J O._  . .%.K ..K K K K K ..K ) K W W K J Z 5 K K K T K K K W W _ ^ ) ",
"/ ^ W T R R R / / ] } | X.w ` X.^ ' ^ ^ ^ ' Q J J R T | < W +._  .W E W W W K K K K K E K W K W W K F > V E K T R F T T E W ^ _ ",
"^ ^ W ! R W R ! ^ ] } } o.9 ! | ^ ^ ^ ' ^ ! T L U C J X.- n +._ ) ) n K K K K K F K K / K ) W / W W J 2 V V K K T T K T E ^ ) W ",
"( ( W J U J U Q ^ W W ] X.: U U T T Q T R U F A V , h ( 8 - j ) b W K b K K Z Z K K K K K n K K K K C 5 C j R K F K K T W _ W _ ",
"x i w f z f f t f z B C B f f G z V B N V c q l i e f B s a n n < a b a j e j n a a b a e e n n b s a q h z z j * 2 h z n z h n ",
"| m X V L S S S U U U U U [ ( U ' ' ( ( ] | 5 R R R R W ^ ^ ..$.G E  .E K ) )  .V e $.) K ) ) ) ) ) ^ ^ T K R ) a g _ ^ W R T T ",
"( T 1 F L S L U U U U U U U ] U ! ! ^ ! ! ! h J J J J K K T R ) $. .E ) K %.E E F q W E ) ) ) ) ) ^ ) ) ) ^ W ) K T W E ! W E E ",
"R V w F A S L U U U U U U U ] [ ^ ^ ^ ! / ! z T K T K T R R ^ ) W K  .W E E E E K d ) W ) W ) W ) W W W E W W E E E E W R T T R ",
"T B l F A S S U U U U U U [ U U ! ^ R Q ! v q R T T T W R W ^ W )  . .K W E E E K e ) W ) W W W W W ) W ^ ^ ^ W E E E E E E T Y ",
"U M f L M U U U U U U U U U [ U ! ! U ! | R O l T T W W R ) ^ ^ K  .) K ) E E E Z b W ~ ^ W W W ~ W ~ ) ~ ^ W W W ^ W ~ ~ E Y Y ",
"U L f L G M L U U U U U U U U U U ! ( U ] @.= X Z E W R W ^ ^ ^ )  . .) E E K K V V E T W ^ ) W ) W / W / W ) ^ ^ W W ^ W E W Y ",
"U v p U L M U U U U U U U U U U ` / / ' ^ ] 3 S _ W W W W ) ( ( )  . .K E K K K D D ~ W ) W W ^ W W E ~ ~ ) W ) ) W W Y Y E E K ",
"U L f U M G U U U U U U U U U U ! U ! U ' ( 0 Q } W K K R ) ( ] K  . .) E Y Y E F V { W W ) ) W ~ ~ ~ W W W ) ~ E ) ) W W E E E ",
"U A f A U U U U U U U U U U [ U ` ` ! ! ' X.6 A ^ R T T ` | ( ]  . . . .) E K F D j ) E T E W W E T W W E W / J K ^ ^ ) ) E W E ",
"f t f f I U L M U U U U A A k f f v B v B S f f C c c z V v h l j D b b b b a q r r b h j b h 2 b C C b b b b y 2 e n l h j y r ",
"' ! [ ` U U U U U t U U U U q l [ U U U l U ] ' [ U A ! U U :   e E Y ) K Y D K E Y ~ )  . .$.e K ) T T T W ) ) K T } ^ U ~ E ~ ",
"] X.X.] &.U ;.&.U U U U U U U L ' U ` &.] ' ! ] X.&.] } ( @.G @ e {  .) ) ) ) Y ) ~ W ~ { ~ ) K y W T T T W ) ~ } ) ^ ' { { { { ",
"[ X.X.] ] [ ] X.' v U U U U A L U U U ' U U ` ` [ X.X.] [ X.J O q E )  .)  .) ) ) ) ) ) ^ ) ) J r ~ W W R ! ) ^ ^ ^ ^ ' ' ] ' X.",
"X.X.X.[ ] ] ] ] ' B U U U U L P U [ ` ' ' U U ( [ X.X.] ] ] ] 6 r E ) { )  .$. .) ) ) ) ) ) W 8 y W E R W ^ ^ ^ { ' ' ^ ^ ] ] } ",
"X.X.X.X.[ ] ] X.' N U S U L M L U ' ! ' ' ( [ [ &.X.] X.' ] X.V j ) E )  . .$. . . .$.) ) ) n 4 > T ~ ) ) ^ ^ ^ ] ' ^ ' ' ' X.] ",
"X.X.o.X.X.] ] X.U & N A I L L L ` ` ' ' ] ] ] o.&.X.| X.] ] o.v j E ) ) )  . .$.$. . .$._ _ ..s > W W ^ ^ ^ ^ { ^ ^ ^ ^ ^ ' ] X.",
"o.X.o.X.X.] ] #.U O : M A M L L U ' ` ] [ ] [ o.&.[ [ [ ] ] ] U j Y ) )  . .$. . .)  . .) ~ $.G > ~ W ~ ^ ^ ) } } { ` ^ ' ' ' X.",
"X.o.X.o.X.[ ] [ *.= d B A A A L U ! ' ' ] [ X.o.X.X.] ] ] ' ] N g E W ) )  . .)  . . .{ ) Y W ) r E W W W ^ ^ { ^ ^ ^ Q ^ ' { X.",
"o.&.X.X.&.&.X.( X.2 d L A A L N U ` ' [ X.] X.] &.` ] ] ] ] } N a Y Y Y W )  . . . .) { { ~  .$.r Y E E ^ ^ ' ^ ! Y U T Q ] ' ! ",
"B B L A f f z B B : : f f f y 0 l h i f z A L U N f B N l B V r > g b b e j Y b e r j b b b b D r z j g h l l V z g 0 d N S g 1 ",
"B ' ' o.p 5 ~ T F V C n C C V D T E s 5 R ^ ^ ^ T D ^ ! ^ ^ ' ^ 4 q ! Q ! ! %.H . b J F F Y K W ) ^ ^ W T U U ^ ! ] v U ] ^ ] j ",
"f X.] O._ F ^ T F F D F Z D Z F L T ( _ { ' ^ F ' ^ ^ ` ' ' ' o.W j ) ^ ) ) O.@.e E T K K E W W W ) ] ^ ^ ! ! ! R ^ ( ! ( ] | ( ",
"1 ' } ^ ' ! T R T F F F D Z D J Y R ! ^ ^ ^ } N Q Q ! ^ ^ ^ ` ~ ( R ` ^ ^ } } C e Y Y E W K W W ^ ^ ! ^ ^ ! Q ! Q T T Q Q ! ] #.",
"2 ~ } ' ^ T T T K F J D Z D D Z T ^ { { ^ } T y Q T Q ~ ^ ! ^ ^ ! ! ^ ^ ^ { _ 4 y E K E K E K W W ^ W ^ ^ ! Q Q Q Q U Q Q Q U #.",
"2 ~ { ^ Q T T F L K F F Z F Y T R ^ { ^ ^ ^ h r Y Y Q ~ ~ ~ ^ ~ ^ ^ ' ^ ^ ' -.H a E T T T W W E W W W ! ^ ^ ^ ^ ^ Q U T U T L ! ",
"> ^ ^ ~ T L Y F K K Y K K Y E W ^ ^ ^ ^ _ | s 1 Y F Y Q Q Q ~ ^ ! ^ ' ^ ) { { :.J T W K W T K E T W ^ ^ ^ ^ ^ ^ ^ Q T U U U S ! ",
"q ` ! ~ T Y J K K L F K Y T E ^ ^ { ^ ) ^ +./ < L L Y ~ Q Q Q ~ ! ^ ^ ! ) { ) ;.F K W W W T K T R E W ^ ^ ^ ] ' ' ! P L L S V U ",
"f ~ E R T Y T U Y T T Y T R ~ ^ ' } } ^ ^ _ O.w F F L Y Q Q Q Q ^ ! ^ ' ) { ) ;.Z K ) ) W W R R W ^ ^ ^ } ^ } } } ! L L L S B T ",
"t T R R T T T T T T T T Q Q ~ ' } { ' ' ^ ^ } 8 D D L Y R T Q ! Q ! ^ ` ^ } { ;.Z ! ) ) ^ R R R W ^ } { } X.} X.} T Q L S A B P ",
"r L T ! T U T T ~ R T R T R ^ { } } } } } { } w S D F L Y P T U Y Q ^ ^ ^ ) } >.z D } ^ W R W W ) ^ ^ ' X.+.+.*.} ! Q U S V V L ",
"d F T ! ! ' ^ ( L R ~ ! ! ^ { &.O.} } ~ ~ O.O.1 k b L D L L U U ~ ~ ` ) } } O.=.5 0 L T K R R W n F } ^ O.=.X.B +.} ^ U T F b ' ",
"0 k l z N z c z 2 k g g l z V z k z N M y z V 0 0 r b A r t N f d g k l z f q y y h c z n r w 8 2 w V A T F f 0 S F z y y l h M ",
"C T J T ^ T U S R R J F K T ^ p 2 X.{ { ' Q L Y Q Q Q ' 0 M [ ` z ! ' U | i U +.+.=.$.$.:.C ; e R ^ ^ } O.] ^ +.] ] o.t g ! W C ",
"T R T ^ ( ] / ^ R R R R W ^ | | t { ' ^ Y Y Q L A A L L A U ` [ ] ] ] ' o.T ^ ] ' ' ' } -.R = Z ^ ~ ' ' | O.O.] ] ] *.z z ! R R ",
"T T T W ^ ^ ^ ! R U T T R ^ ^ %.g { { ' ~ Y Y L S A D F A ] [ ] ` ( ' ` ] C T ` ^ ' ^ ' } ( 8 ! ~ ! ^ } } ] ] ] ( Q +.z h ^ R R ",
"T T T R / ^ ^ R R R T T Q ^ } X.y { { ` ~ ~ Y L V A A S v ] ] ` ' ( ' ' o.V T ^ ^ ' ^ ^ ] ^ V ^ ~ ! ^ ' ] ] ] ] ! ^ ] z y ^ T T "
};
