/* XPM */
static char *result[] = {
/* columns rows colors chars-per-pixel */
"64 64 56 1 ",
"  c #2B1510",
". c #2E1811",
"X c #351D15",
"o c #3A1D15",
"O c #352117",
"+ c #3B2217",
"@ c #3E251A",
"# c #4C2817",
"$ c #42261A",
"% c #45291D",
"& c #4B2C1E",
"* c #522E1F",
"= c #4D301F",
"- c #53311F",
"; c #462C20",
": c #4C2E21",
"> c #512F20",
", c #4E3123",
"< c #4B312D",
"1 c #543323",
"2 c #5A3625",
"3 c #573827",
"4 c #5C3926",
"5 c #533628",
"6 c #583728",
"7 c #573829",
"8 c #5D3A29",
"9 c #5E3D33",
"0 c #5F3E3A",
"q c #613726",
"w c #623A26",
"e c #683D27",
"r c #633D29",
"t c #693F29",
"y c #66412C",
"u c #6C422C",
"i c #71452D",
"p c #75492E",
"a c #7A4A2F",
"s c #664433",
"d c #6D4631",
"f c #6E4A33",
"g c #6D4A3A",
"h c #714730",
"j c #744A32",
"k c #7B4D33",
"l c #7D5135",
"z c #73523D",
"x c #7E5339",
"c c #835234",
"v c #82573C",
"b c #885638",
"n c #8C5C3E",
"m c #925D3A",
"M c #9A633F",
"N c #926243",
/* pixels */
"=yyyyyywdr33ry4y4ye$842244r4q2r:>56669ttt2$<grsdtsyj1;8733388383",
"1uuuyyyyyyryy4y444cyfwrrrrrrrrr:>6162q98911g98tr9trsy187438yryyy",
"=yryyyywrrrry4448yy34r8884qq822$>1>566qr8>;9888988841,27334833fy",
"=wwrwyyyrry44wyy4iw$44224r8rrqr$:55>168qq>%888r888886,873333333d",
"#4wyy4wyyyyey4y444u&688222r88qt::11<16668>886qq68828>:673333333y",
"%4-4-yww4eyyyy4y444&22226222889:>1116>668>>68686289q>;673333333y",
"$344yewwyyuyyye444r>23266288qrt>:<1161228>>96qq988686,61333=3338",
"=344-ywwyeyyeyyy44r>1r624rqrr9t>:11126622:>q68qq88qq11623133333r",
"=434444yyyfpyyy4y3w-28r24rrrtrs>:><242648>28qrrq8ryw3,833333333r",
"+3--4333wyuppyyyr88%1422q8828tt;$>>>26216::rq9t9rttr-=3333333138",
"==-3-33334yfy=338,:64r8rr8tsr>41:>>>162r2$;>6rqrtt*-1388=%3=3345",
"y4yyyyyyyyyyjy3y8z1ryyddddysg>65>866qr9hh1q6tttjjNc+8ydfl3yyyuyy",
"rw4rrrr84yy4yy3318,188ryy9r84171::>>228q9:>2qettdtNa=84ruywyyyyy",
"y4r4r88r88yy333y36;8888rtrr8r&,5>>>>>2rrr>6>qqttthte=yjfyywy8yyy",
"yr3rrry44r8433==8,@8888srr888%,1::><1128r$:62qttttt>=xlyuyy-yyy8",
"r444444348y43=336:;8788r88663%:>>>:>>1222>>12qrttttrrfyyyw4y44yy",
"34444w43rr84111,76&63888r8363&&>>:1:>1122:>12qrrtttgshyr88wwwy8y",
"44443--34w3311111r;6888r43262&:&:>:>:>>22$>12qqqtttt2yyr4w448ww4",
"44--334-2322111,1,,7878843166%&1>>>:>1122$:>22qqtqttyjr44444-y44",
"33-3----1161,11115;1388831332$%,1,>:>112>o#>:22qqttqsyrrw4244444",
"1&*&=1==*::*>::>:1X%66611,111+$=%%:&:>>2> o;%>>2qqtq$6q423114431",
":611-=11:>2&o>>1671$12&&881,==--42$1>1>>2>224>>q2qqq>22q41134--&",
"4uwwq242qet27trrrrd48tk%fd8yyryiac*r222qqretijtitttttttapipplmcw",
"1rq2212-12e:9824622862t8y-8wwyyydu&2122>2qrqetqetttattttuiiddpnu",
"2rw2>q>>q*e>%4462244qrq:228rwyuypa$141412wwwwe-eettttettuiiipuip",
"1ww22*22qqq*%2222644rrr;222wyyuiiu&4-22224wwe22qqettttituuuidii=",
"*qq2q2222qe*>1226444qrr&1224wyuipy=1-1-122qqik#qqqewettiuuiiiu4-",
"*q22>q>>2qe>:626664qqeq%12234yyidu#-1--1122weu*qqwqeeettuiuiuamr",
"*22q2-22qqe>>242244rrrr;21144wyupu$1*>1:1122qr#222eqeeeeeiiiiubc",
"*q2q2q>22qe>:264624qrtq%111248yupu%1,-1>>>122262*qqqqqqeeueuuduu",
"*qqqqqqqqee>>2262444rtr;34144wyipd&111>1>12222*22eeqeqewweieipiw",
"$>2-***>>>2#;>:>>>1222>X%=====1wy4o%$%&$%#%&%$o&*--*--*2---q--y-",
"22qqqtqqq26862r$3ywqeueia#1ywq-2-2444wyyy=3yy-@ysyyss,0783333261",
"qrqqrqtqtqqqqqrrziuppaccMa2urerqqqqqwruyu358fi37r88889054434twrr",
"22q222qq22q22qq2ywuupiialc2ew4q24224wwwyyr,8,ys589883,1311512832",
"2>>111>222222rr2wyuuiuicai-w4qq22-22-qwwyr,75,7588875=3,15336262",
">1>12>>21>qq2qt4yryieiiiap&wqq2221>2q4qww4%,,1,537335,3315166122",
"2>>1>>2>22>2qrr>wyuiiieiac&wqqw2*212-2-224%,,,,<5555,;53,1,16666",
">22>2>>212qqqrr>qeuuiiiiia2wqqq22>*1-12222@,,,,,,,,,,@5,,1,12161",
"2>2>>>2>22qqrtt4yeiiipiieu2ereeq2221222-33@<;;,;,,,,;@,,,1162662",
"2>2>21q22qrrrtt2-uiipaiitt2rteeeq22211222>@;;,,,::;;;@,,,,153323",
"q>>>212qqqqqett>-wuippiett>12rqq2*>-2>>12&X$%%;;;;;%;O;%,,,16161",
">>>%@;12r22rrt>$--q4w2eir>:2>eqeeeit;1<5<,;;%;,&;:;1,11$O,153517",
"ke2t%qteyihhkNv$yutrrwukvhqtttttttii1r1,,;;,;,,,:11618u*5z8yyyuu",
"t4&2#2qrrrtstdxrrtrrrrr2q86qeqqqqqqq>2,;%;;;;;,;:;:;,:341424wyww",
"4e>1:1qetrttttt28trrrrrrt8:qeeqq2qqq:2::;;;;;;;,::::,,12$44488yy",
"qtt>%2rqqwwwt9t26tr9rtrttr:trqq--2q2:1::;;;;;=;;:;::;,=1=144443w",
"r6e>$2qqwqqqrqt>1rrrr9tttt>tqqq2>>*q:>;:;;;;;,;,:::;;,%&&14-1488",
"2>>2#444q4422wq&,8rrrytuur>eqq**>>*2::;:;,;;;::;::;;&%=%%313-444",
"2222&-wwq424q-4=,88rrr9tts>eq2>2>>*2%:::;;;::::;;::;&%=$$-112114",
"22*2$4qqq4424-y-,7348rrttr&q2->>**:>%;:;::;::,;,:;&%&=&@&1--2--4",
"--2*&qwwwq42413=,6338rrrtt&2>>>>*>>1%::;,;,;,,1111::3-$$@11313-2",
"****$1424311-11$%%,,633wr2o%&>:*&%#>$;;;;;;::1,11:%,-$$%.$4--1-1",
"q22--1q2q=-33=1,,,&83,w26612222%:r6>@;6>$$111271621&=$&&&=--1112",
"iiiweruipwyuyuuyyuyjw2pphhhhiih>ss9ht7rja&tddhhidhhtur&234y-w4wy",
"eeuwwwweu48yyyyyyyuu4ruihdhuuti68124611:d66ttuyduytuu3=1-4ww-qwy",
"eeueeyeeu-4yyywyyyuu4yiuhhhdidh1444616142:8utyyuuuywj4=4ww-yweye",
"iuuueeeeu--wyyywyyuu-wyuththitt2646461168>8tuyyuuuyyu-=-w4wywyey",
"eiueeewyu--ywywwyyyi44yudhhdtdt2642666264:8ryyyuuuuyu==34yw-eyye",
"eeyweeeeu--y-y-wwyyu4-yyuthttee>261211618;6rrtuyuuuuy4r--wwwweeu",
"ieeeeeweu334yw34yy4y816rtttttrq&>56661616$2rrwryuuuyy3-4w--eyeuu",
"eiieweewy--4-y44-yyy1212ttrtqrr:>>>>1561r,2rrwryyyuyd=-4-wyyeuei",
"eeeeuewya-344r448yyi=,81rrrreqq;5>>111<ry,88w8yuuuuyy=-3wwyeeiii",
"ewwew-wwu=%-3-3--34w%@1>222216>@::;::;16=@=1431w8w4ww@=----w--ee"
};
