/* XPM */
static char *result[] = {
/* columns rows colors chars-per-pixel */
"64 64 183 2 ",
"   c #03011C",
".  c #09001A",
"X  c #14081E",
"o  c #1A111E",
"O  c #28191F",
"+  c #1E1622",
"@  c #1F1A22",
"#  c #211622",
"$  c #241C24",
"%  c #291D24",
"&  c #2A1E2B",
"*  c #311F2E",
"=  c #221830",
"-  c #2E1E31",
";  c #2D2226",
":  c #2C232B",
">  c #312426",
",  c #372927",
"<  c #3C2B27",
"1  c #32262B",
"2  c #35292A",
"3  c #3B2C2C",
"4  c #3D312F",
"5  c #2D2532",
"6  c #312735",
"7  c #382734",
"8  c #342A30",
"9  c #3B2E31",
"0  c #322A38",
"q  c #3D2E39",
"w  c #3E3130",
"e  c #3E3039",
"r  c #412E2B",
"t  c #43322D",
"y  c #4A352D",
"u  c #4E392E",
"i  c #523B2F",
"p  c #5B3D2F",
"a  c #433432",
"s  c #4A3632",
"d  c #453936",
"f  c #4C3B34",
"g  c #43333B",
"h  c #473A3A",
"j  c #4D3C3B",
"k  c #533D33",
"l  c #593F34",
"z  c #523E3B",
"x  c #5A3F3B",
"c  c #4F4137",
"v  c #4E413E",
"b  c #564235",
"n  c #5A4335",
"m  c #5E4836",
"M  c #54433B",
"N  c #5A453A",
"B  c #56483E",
"V  c #5D493C",
"C  c #62412E",
"Z  c #624635",
"A  c #634937",
"S  c #62473A",
"D  c #634B3C",
"F  c #6A4D3B",
"G  c #734A31",
"H  c #714F3D",
"J  c #6D5037",
"K  c #66503D",
"L  c #6D523E",
"P  c #73533E",
"I  c #78533D",
"U  c #75583F",
"Y  c #7A583F",
"T  c #4C3C43",
"R  c #513E49",
"E  c #544343",
"W  c #5A4443",
"Q  c #554941",
"!  c #5C4C43",
"~  c #56424C",
"^  c #5C474C",
"/  c #57494F",
"(  c #5D4B4A",
")  c #5E5044",
"_  c #5B4A52",
"`  c #604641",
"'  c #634D42",
"]  c #6A4E43",
"[  c #644E4A",
"{  c #6A4F4B",
"}  c #655344",
"|  c #6C5343",
" . c #6D5846",
".. c #65564C",
"X. c #6C544A",
"o. c #6C5B4B",
"O. c #735543",
"+. c #795744",
"@. c #755A44",
"#. c #7B5C45",
"$. c #73564A",
"%. c #745C4B",
"&. c #7B5D4A",
"*. c #634F54",
"=. c #655155",
"-. c #695554",
";. c #6D5B53",
":. c #655058",
">. c #69575C",
",. c #6E5A58",
"<. c #725C53",
"1. c #7A5E51",
"2. c #725D5A",
"3. c #7E6046",
"4. c #74614E",
"5. c #7C624C",
"6. c #7F684F",
"7. c #6F6051",
"8. c #746353",
"9. c #7B6553",
"0. c #776957",
"q. c #7D6955",
"w. c #76615D",
"e. c #7C655B",
"r. c #776858",
"t. c #7C6B5A",
"y. c #756261",
"u. c #796563",
"i. c #7D6A68",
"p. c #815D45",
"a. c #825D4B",
"s. c #825F50",
"d. c #826146",
"f. c #896445",
"g. c #84634B",
"h. c #89654B",
"j. c #84694E",
"k. c #8C6A4E",
"l. c #926D4D",
"z. c #95724D",
"x. c #9B754D",
"c. c #846452",
"v. c #8A6654",
"b. c #846B54",
"n. c #8C6C52",
"m. c #80655A",
"M. c #836C5A",
"N. c #8B6B5A",
"B. c #926D52",
"V. c #986D52",
"C. c #926C5B",
"Z. c #8A7156",
"A. c #8D735B",
"S. c #947153",
"D. c #997554",
"F. c #9D7955",
"G. c #92755B",
"H. c #9A745C",
"J. c #957A5B",
"K. c #9C7A5B",
"L. c #A27656",
"P. c #A27953",
"I. c #A37D5A",
"U. c #AA7A5B",
"Y. c #856C61",
"T. c #886D64",
"R. c #846E69",
"E. c #867361",
"W. c #8B7563",
"Q. c #917361",
"!. c #917B65",
"~. c #937668",
"^. c #A17762",
"/. c #A57A65",
"(. c #9D805E",
"). c #AC8355",
"_. c #A4815C",
"`. c #AA845E",
"'. c #B28856",
"]. c #97816B",
"[. c #A48563",
"{. c #AB8C67",
"}. c #B68965",
/* pixels */
": e ..' W ` ` ! f x ] ] { $.$.] s 1 R [ ! [ ! [ V : Q E E E T R N ' ' ' S m D ] O.s f j y ] S N b n l l l l z V S t % ! D f c 1 ",
"T R.~.N.c.N.N.N.N.W N././.^.C.v.x - -.T.T.m.m.9.9. .8.-.-.-.;.;.,.1.c.c.c.v.v.h.D.F } {.S.l.h.h.d.#.O.O.O.#.#.k.`.h.B A.q.K L , ",
"T T.A.M.v.N.v.v.C.z s./.^.C.H.a.x & R Y.e.e.e.2.X.2.-.-.=._ =.[ *.-.$.<.1.g.g.a.c.O.# n.B.p.g.g.#.O.P P P O.&.&.j.D.A.9.9.%.b 2 ",
"0 m.Q.N.m.m.v.N.N.c.C.C.C.C.C.v.x 7 ^ 2.u.e.2.2.;.:.-.:.*.=.=.=.X.-.,.&.1.5.g.&.g.| a N #.g.#.#.#.O.P P O.O.&.&.&.%.9.5.9.D m : ",
"5 e.C.N.m.v.s.s.s.C.s.s.N.v.s.s.X.= _ R ,.w.2.,.=.-.:.=.:.:.=.*.{ -.,.&.1.&.&.s.c.D 2 ` O.d.#.p.+.P H O.P O.&.%.5.5.5.b.b.A O.& ",
"& <.C.N.N.s.s.s.s.s.s.s.s.s.s.s.V.a.* R ,.w.2.-.:.:.=.:.:.=.:.=.-.-.;.1.&.1.5.a.g.| , < @.h.+.#.+.P H O.O.+.&.&.9.9.9.m.M.%.O.2 ",
"h s.C.m.s.s.s.s.s.s.s.s.s.s.s.s.s.] >.i.w.w.2.-.=.:.:.:.=.=.:.:.{ -.<.$.1.&.&.9.c.| f @.b.+.+.@.P P H P O.#.&.1.9.9.9.9.9.m.9.3 ",
"W s.c.v.s.s.s.s.s.s.a.s.s.s.s.s.s / i.y.w.2.2.>.-.:.:.=.:.:.*.:.-.,.<.<.1.1.&.a.5.@.1 h.+.@.+.O.+.O.P P +.#.#.&.9.9.9.9.9.%.X.9 ",
"z 1.v.s.s.s.s.&.s.s.&.&.s.s.a.s.$.q y.y.2.2.,.-.-.;.:.=.:.:.=.=.-.$.<.&.<.5.g.&.g.&.; m O.U O.P O.O.P U | &.O.&.&.9.q.9.9.%.$.a ",
"g R X.c.s.a.s.&.a.s.a.a.s.s.v.C.| q T ,.2.2.,.=.-.=.=.=.:.*.*.=.-.<.1.s.g.c.c.c.c.| r F L J L P F L P U O.&.%.@.| c.9.<.9.<.X.3 ",
"a s j S x x S D x S x N N W ` ` f 4 4 d j j j E E E E / E E ~ j W W ` ' ' | } ' D N a b m M t u f k b b b z b f a b M ! B N j 4 ",
"&.%.5.] O.] F O.a.U.Z h ..[ { $.9.r.b.4.$ ..r.r.r.r.r.t.E.E.]...e.A.b.N.G.K.K.K.D.B.n.g.j.Z.3.; D | K %.%.3 4 } 8.<.o. .%.4.9.9.",
"$.| |  .| P ] L L k.O.j ;.X.8.8.q.t.q.6.; Q 0.7.0.0.r.t.E.t.].r.T 9.b.N.N.k.B.F.I.S.k.g.d.g.l.j. .}  .K @.Z.} 4.9.b.9.9.9.4.9.4.",
"| | O.| | F L O.O.#.A E <.<.e.t.t.0.7. .1 ) 0.7.7.0.t.i.t.t.W.9.6 <.c.b.v.v.n.D.K.H.k.g.g.g.O.3. .L }  .} @.4. .9.r.9.4.%.%.%.$.",
"| L L L | O.L | U @.n ! r.r.q.r.7.7.o. .8 B 7.7.0.t.t.t.t.t.E. ._ e.5.g.j.h.S.S.S.S.k.g.g.g.3.O. .L } | } | } @.4.9.9.%.o.%. . .",
"| | L ] F L | P O.#.A v t.M.r.9.7.o.) ..4 ) 7.7.0.0.t.t.t.r.t.' T 1.1.c.c.j.v.k.B.h.g.h.g.3.#.O.L  . .@. .}  . .%.<.%. . . . .o.",
"| | L L | F | O.U @.b ..M.t.q.8.o. .}  .4 ! o.7.7.0.t.t.0.0.! 3 ( 1.&.j.k.v.k.k.k.g.g.h.d.3.@.O. . . . . . . .%.4. . . . . .%. .",
"@.O.| | P | O.O.J 4.M ..t.t.8.7.o.} 7.Z.4 ) 7.7.7.0.0.0.0.t.9.a >.9.c.v.k.n.k.n.k.g.f.d.#.@.O.| L L  .%. . .%. . .4.%. .%. .4.%.",
"@.@.@.U O.O.P P L U c ..q.q.0.7.o...K q.B B 7.7.7.8.7.7.0.0.A.c ..<.5.c.k.v.k.k.h.d.#.#.U  .L K L K L  .%.@.%.%.%.%.%. .o.%.#.4.",
"#.@.#.#.@.O.U P J U c o.q.8.4.o.} ) V } 4 M 4.7.7.4.o.4.7.7.t.M W 1.&.j.k.k.k.k.f.d.3.#.U L L D D K J L  .4.3.3.4.4.%.4.4.3.%.3.",
"L L L L F D L L J J , } 0.o.) ) } V ' ' , w ) Q ! } ) ) ..} o.s a | O.O.#.3.3.@.O.U L J A N N D D D N m K }  . .O. . .%.O. . .@.",
"c V b N N ; , t c B c B B c m c c 3 t a c u b K l l k n n l k 3 d M M M V V m V D V S D K Y J   ; ; u b f n u c b b b b b b m u ",
"} 9.b.b.Z.@.O  .q.q.(.Z.q.q.q.(.L # s ` ] ] %.#.+.I +.p.U l.V.% 9.m.&.9.5.j.j.j.k.j.k.l.k.D.).x.L 3.3.#.3.#.U O.@.3.#.3.g.5.j.D ",
"b 4.8.5.4.b.K 4.q.t.0.q.q.q.8.6.b.$ N ] ] | O.O.+.O.P H P I p.# ..b.9.9.6.6.j.g.h.g.h.g.h.d.g.F.F.z.U @.U U U @.@.#.3.g.g.g.k.D ",
"M 4.4.5.4.4.4. .q.q.0.q.q.q.q.6.%.4 D ] ] $.+.+.+.+.O.H H H H % ) b.q.6.j.j.6.j.j.j.j.f.k.k.g.#.3.@.3.@.U U Y #.#.@.#.5.h.h.k.K ",
"M  .o.4. .7.4. .4.4.4.4.0.q.q.0.4.d $.O.O.$.+.+.+.p.H H H F H % ! b.q.q.j.6.j.j.g.h.f.k.g.k.g.3.3.3.U Y #.#.@.@.Y U @.3.3.g.h.b ",
"4 } o. .o. . .7. . .7. .4.0.0.6.m.% O.#.+.+.+.+.p.+.H H F F F > ! 6.4.5.6.6.j.g.g.g.3.h.k.h.f.d.3.#.#.@.@.#.@.Y U U Y Y 3.U L < ",
"a 4.o. .}  .} } } } }  . .4.0.4.9.% $.a.+.p.+.+.+.H F F Z F Z * V 5.4.5.5.6.6.3.3.3.3.3.g.k.g.3.3.#.U 3.U @.U Y #.U U @.#.f.G r ",
"a  .o.L  . ...K ) } B ) o.7.4.7.D a 1.&.&.&.+.p.+.H F S G ] G % K 6.@.4.6.4.3.3.U U 3.3.g.#.#.@.U #.U @.U Y @.@.Y Y +.Y Y x.).y ",
"a 4.4.o.o. .K K ) ) K K K )  .B f h 1.+.+.a.+.+.+.H F F S F +.* c @.4.4.5.4.U K L U U 3.#.U Y U Y U Y U Y Y Y Y @.Y p.@.#.p.z.r ",
"4 4.5.8.4.4.o. . . .} ) ) } 7.6.} 4 $.+.&.&.a.a.p.p.O.] H ] +.* c 4.4.3.6.L L L K U #.Y U P U U U U U #.+.#.p.d.f.f.f.f.f.Y p < ",
"@ M V V V B c B B m c c c c c m f $ b N x x k l p S p p i i y o , m B m B c m c b m F F A A D D D A A A A F J F A Z J P J u r . ",
"A . b g.d.3.@.U @.@.O.| | | | } | | ' | O.+.g.g.N 5 [ X.X.} | $.o.4.$.%.3.V ; b ` N ` D ` ] ] ] F D N l x Z S H a.h.1 N #.@.U p.",
"'.f.j.z.k.k.j.j.h.h.g.5.3.5.3.5.5.3.g.j.j.j.S.{.F @ ! 9.<.1.9.9.6.6.c.9.J.[.V | &.&.1.a.h.v.C.V.v.a.&.+.a.s.v.V.U.}., O.I.S.z.I.",
"l.)._.f.j.d.g.3.g.g.3.5.&.#.#.3.&.@.#.@.&.&.g.n.F $ j X.} X.X.%.%.%.<.;.o.N.5.X.$.$.$.$.&.c.v.v.s.+.+.$.+.a.a.a.V.p.o ] J.k.k.l.",
"k.j.g.g.g.d.3.g.g.3.5.3.3.&.%.3.&.@.%.@.@.&.3.v.%.# T X.X.X.X.<.%.%.%.$.<.X.O.{ ] { ] $.&.s.v.h.a.p.$.+.+.a.a.s.h.L.C ] K.z.k.z.",
"k.j.3.Y 3.3.3.3.3.3.3.@.&.@.%.@.@.#.@.@.&.5.g.c.D $ W } X.} ;.$.&.<.;.$.$.$.X.{ ] { { $.$.&.s.a.+.+.+.$.+.O.+.a.a.V.A K D.l.k.k.",
"j.3.3.Y 3.3.@.@.5.4.5.3.3.#.#.@.@.%.3.@.3.5.g.j.A $ E [ [ X.X.$.$.%.$.$.$.X.{ { { ] ] $.$.&.1.&.+.+.O.O.+.+.+.a.h.l.b m S.k.f.f.",
"3.U Y Y Y Y #.@.@.3.&.3.@.%.#.%.@.%.%.3.&.3.g.g.m $ M { { ..X.X.;.$.$.;.$.X.] ] { [ { { { $.&.$.$.$.+.O.{ +.a.a.a.h.i n f.g.d.3.",
"U U U 3.@.#.@.%.@.%.3.%.@.%.3.3.3.3.#.%.&.3.&.g.y ; T [ ..X.X.$.%.<.%.;.$.$.{ { { { { { { $.$.+.$.$.$.a.a.a.+.a.a.a.y b 3.U 3.Y ",
"J U P U U Y @.O.O.@.@.@.@.@.3.%.3.%.L @.4.3.@.v.Z $ z [ [ } %.%.%.<.X.$.$.{ { { { { { [ { { $.$.$.&.$.#.&.p.a.#.+.I < b U L P U ",
"P P P J U Y U U O.@.#.L | @.@.3.&.3.M V 3.#.#.| p.> j [ [ X.<.%.1.1.$.$.X.{ { { { -.{ { { X.$.$.&.&.&.a.a.a.a.p.+.I < s P L P J ",
"b b i b b b n n Z m A 3 s N b V V ! a w b n b b A a 3 j M b f z M N 9 j N x x x z s j z z z N f j k N b l l b n i l y 4 u b b C ",
"d.f.f.f.f.g.f.k.l.x.x.'.m 3 A.!.J.G.G.b.5.4.%.4. .&.@.&.c.K.s 3 > @.c.K.v.h.h.p.B.l.Z ` b.5.N.} l s.3.&.&.g.g.d.3.#.#.n.m X , , ",
"l.h.k.l.l.k.h.h.f.h.h.P.F c G.A.J.A.Z.6.6.5.6.5.3.&.&.3.&.g.O.3 s %.H.v.a.h.a.a.+.U.g.E b.9.4.5.v.N.j.c.k.S.S.Z.n.k.g.g.z.d.m d.",
"d.h.d.d.d.d.p.p.p.d.h.z.A M Z.Z.Z.b.3.3.3.3.%.3.%.@.&.#.&.#.g.F &.c.a.h.h.p.p.p.+.v.j.W c.&.%.3.b.g.g.j.k.Z.n.n.Z.k.g.3.3.'.P.f.",
"g.p.g.d.d.f.d.p.p.d.g.z.L M b.b.b.6.3.4.%.@.@.4.@.@.@.&.#.&.&.#.a.a.h.a.a.p.a.a.#.a.h.z %.@.@.3.5.5.c.5.b.n.g.j.k.d.d.d.#.#.3.3.",
"d.h.d.d.g.d.d.d.p.d.g.z.K c j.6.6.3.4.@.L @.@.O.@.@.@.#.#.&.a.a.g.h.a.a.a.p.p.a.p.h.&.f @. .@.%.5.j.c.5.j.h.g.g.d.3.#.3.d.@.3.3.",
"d.g.f.g.d.d.d.d.p.p.d.D.F M 5.j.g.5.@.L @. .@. .U @.@.@.&.&.g.g.h.a.f.a.p.a.a.p.p.h.O.s @. .@.&.3.5.3.5.g.g.g.g.3.3.3.3.3.#.#.d.",
"h.f.f.h.d.f.d.d.p.f.p.l.L M j.5.5.4.4.@. .U @. . .@.@.@.#.a.a.h.h.h.h.a.a.p.a.p.a.h.O.s | | @.%.5.%.%.3.5.g.g.g.g.3.#.3.#.#.#.Y ",
"d.h.a.p.p.p.p.p.p.d.d.h.b M 3.5.3.3.4.%.3.3.4.3.3.@.4.3.&.a.a.a.a.a.a.h.h.f.a.h.g.h.@.s O.| | &.%.@.%.&.3.g.g.f.d.3.3.#.#.#.#.3.",
"d.f.d.p.#.+.Y @.p.p.d.d., M %.%.4.@.@.%.4.4.3.5.5.5.4.| h.g.p.p.a.f.a.p.H h.f.h.p.k.b.: N | | O.@.@.%.3.g.g.g.g.g.3.3.3.Y #.Y #.",
"F P F P L P P P P I Y P , a V K } D D K K K  . .%.L j.4 F | F +.I O.p.G o O.+.O.+.O.l $ $ x ' D } L ] } @.@.+.#.3.@.U P J J J J ",
"m m B D D i k 4 1 z M z c M B M M M | t 2 B B Q M M V V M 3.g.f r ` ] S n S F F F Z k k k z l 3 , f S F L P l i 3 u L V V V V V ",
"b.b.b.5.G.(.f.a g ;.2.<.<.2.9.8.8.8.N.b.) 9.;.0.8.8.q.q.5.(.[.b ( /.V.h.h.a.a.h.a.a.&.+.+.+.a.&.$.1.c.v.n.C.g.C , V b.6.Z.b.b.b.",
"q.r.8.5.%.b.J.t g -.<.<.2.;.;.2.8.;.-.r.8...7.7.8.8.8.4.9.%.A.D 1 N.V.a.p.#.p.#.p.&.#.+.O.$.$.$.&.%.&.1.&.&.c.F , o.7.q.q.q.b.q.",
"q.q.q.8.5.4.A.z g -.2.<.;.;.<.<.7.7.;.....;...7.7.8.8.8.o.8.q.} + <.B.#.#.p.a.#.a.+.+.#.+.$.$.$.$.1.&.1.1.&.&.+., ..8.8.q.b.q.b.",
"q.q.q.9.8.3.Z.M e -.-.,.-.-.-.-.-.7.-.........7.8.8.8.8.8.8.r.| % 2 | &.+.&.&.p.a.+.&.+.$.$.+.$.$.&.&.&.&.&.&.&.4 } 8.8.5.q.q.q.",
"q.q.q.9.8.4.9.M g -.-.-.;...X...-...........7.7.7.r.7.7.;.o.9.) r a ] &.+.#.p.&.+.+.+.O.] ] $.$.1.$.&.1.1.&.&.&.4 ) 8.4.4.8.4.q.",
"q.q.q.9.8.8...f g >.,.-.=.-.=.;.-.-...7...7...7.7.7.7.o.;.o.7.! h &.a.&.+.a.p.#.+.O.O.O.] O.$.$.$.$.$.$.$.<.+.c.t V 4.%.4.8.4.q.",
"q.q.8.8.8.r.r.a g *.=.>.-.-...>.-.-.) ......7.7.;...7.......7.M ! N.@.&.+.&.&.+.O.O.] ] ] ] { O.$.O.$.$.$.1.+.N.M M 4.4.4.4.8.q.",
"q.8.8.4.9.r.!.M g _ ( ;.-.-.;.,.7.>.-.........7.;.o.......) ..j 9 $.&.@.+.+.+.O.H ] ] O.] ] O.O.$.$.$.$.$.$.1.N.h ! o.7.4.7.4.8.",
"8.q.r.q.9.9.E.w g ~ R ,.,.,.,.,.7.7.;.......) ......) ........a 1 [ &.&.$.+.+.| O.] ] ] O.O.O.{ O.a.s.$.$.&.%.c.a B o.o.4.4.q.q.",
"o.7...o.o.o...3 7 R T ^ -..._ *./ ( ( ) Q / ) ) ( ) ( ) ! ! ! a : f @.$.+.O.+.#.p.H r x ] ] ] ] { { { { $.X.| $.3 d B ) ..} o.} "
};
