/* XPM */
static char *result[] = {
/* columns rows colors chars-per-pixel */
"64 64 143 2 ",
"   c #351440",
".  c #4E3A4C",
"X  c #543B4E",
"o  c #4F3B50",
"O  c #553D52",
"+  c #5A3E53",
"@  c #4F4153",
"#  c #554353",
"$  c #5B4355",
"%  c #564854",
"&  c #5C4A55",
"*  c #574758",
"=  c #5E465A",
"-  c #554B5A",
";  c #5C4C5A",
":  c #5C525E",
">  c #614556",
",  c #684656",
"<  c #624A56",
"1  c #6A4D57",
"2  c #654658",
"3  c #634D5A",
"4  c #6B4D5A",
"5  c #675057",
"6  c #64535D",
"7  c #6A545D",
"8  c #65595F",
"9  c #695A5F",
"0  c #73565E",
"q  c #725B5F",
"w  c #5D5561",
"e  c #5E5862",
"r  c #645562",
"t  c #6B5562",
"y  c #655B64",
"u  c #6B5B64",
"i  c #655E69",
"p  c #6D5E6B",
"a  c #735661",
"s  c #735C65",
"d  c #7A5F67",
"f  c #725F69",
"g  c #666067",
"h  c #6D6266",
"j  c #66626A",
"k  c #6C646B",
"l  c #6E686E",
"z  c #726266",
"x  c #7A6366",
"c  c #726866",
"v  c #7A6867",
"b  c #73646B",
"n  c #7B656A",
"m  c #746B6D",
"M  c #7B6B6D",
"N  c #76716E",
"B  c #7A726E",
"V  c #6E6771",
"C  c #6E6B72",
"Z  c #736671",
"A  c #7C6770",
"S  c #736D72",
"D  c #7A6D73",
"F  c #736F78",
"G  c #7A6F78",
"H  c #757275",
"J  c #7B7474",
"K  c #767876",
"L  c #7D7975",
"P  c #767478",
"I  c #7A757A",
"U  c #77797A",
"Y  c #7C7B7B",
"T  c #82656A",
"R  c #826C6D",
"E  c #84716E",
"W  c #89736F",
"Q  c #836E73",
"!  c #896D71",
"~  c #826F79",
"^  c #837475",
"/  c #8A7475",
"(  c #827B76",
")  c #8C7B76",
"_  c #827679",
"`  c #897679",
"'  c #827C7B",
"]  c #8B7C7C",
"[  c #927C7C",
"{  c #7E817C",
"}  c #848177",
"|  c #8E8277",
" . c #84827C",
".. c #8A837C",
"X. c #87897F",
"o. c #8B897E",
"O. c #978177",
"+. c #91837B",
"@. c #93897E",
"#. c #717280",
"$. c #7E7C80",
"%. c #837E81",
"&. c #8B7E81",
"*. c #907D80",
"=. c #7E8182",
"-. c #848482",
";. c #8A8584",
":. c #868984",
">. c #8B8B84",
",. c #848689",
"<. c #8A8788",
"1. c #868A8A",
"2. c #8B8C8A",
"3. c #928582",
"4. c #938C84",
"5. c #9B8B85",
"6. c #918E8A",
"7. c #9B8B89",
"8. c #8E9186",
"9. c #8E918B",
"0. c #929286",
"q. c #9A9286",
"w. c #93938B",
"e. c #9B948A",
"r. c #96998E",
"t. c #99998D",
"y. c #8E9391",
"u. c #949591",
"i. c #999591",
"p. c #969993",
"a. c #9A9A92",
"s. c #939998",
"d. c #9B9F9B",
"f. c #A19188",
"g. c #A29C8E",
"h. c #A99B8E",
"j. c #A39B93",
"k. c #A99D98",
"l. c #9EA196",
"z. c #A9A294",
"x. c #A1A39A",
"c. c #A5AB9F",
"v. c #AAA89C",
/* pixels */
"x ) O.R T T 0 0 T R W W | +.) q e #.%.' _ ^ G A D ] &.` G ^ G D A G ^ I ~ = 4 Q n x M M d t d n x d , 9 s 9 9 9 x M B B E ( | +.",
"7 L @.@.| } W } } } o.>.0.0.z.v j 1.:.-.%.I I I I I I %.%.<.<.;.4.%.' Y &.> 6 J ( ( ' } ..] ( ( / n O c M N B m B ^ J ( } o.4.q.",
"9 X.q.@.o.} } } } | } } o.>.j.E g u.>.:.-.%.I S S I %.' ;.<.<.<.<.<.I I ' t r L J m J ' L J J B _ ] O k m m c N m B L } ....@.5.",
"z 0.0.0.| } } } | } } { o.8.g.R @ :.9.:.:.' I I I %.%.%.<.<.<.2.2.<.%.I I r h J J m B B J J J J ( ] < m m m m N J L } } ....o.@.",
"c 0.0.@.o.o.} }  .} } } ..X.e.4.; ' 9.>.;.$.-.' %.%.;.<.<.<.<.,.-.%.' _ _ b k D B B m H N J ( Y L &.7 c m m N J ( } :.6.} ..4.@.",
"v 0.0.o.X.} ( L ( } { } } } 0.j.L 9.9.2.:.-.' %.Y ' -.<.<.<.<.%.-.-.' I ^ f l m H M m N m J _ ' _ ..u 8 J N B J (  . .w.o.} @.4.",
"N t.q.o.{ L L L } } }  ...0.t.v.;.c.w.8.:.:.-.1.I ' 1.2.2.<.1.6.G $.Y H _ h k m M H J m J ( '  . .;.u 8 J J L } ( .. .;.>.>.>.q.",
"% c c 8 5 8 c 9 c u ; 9 c ' ..6.h  .Y l y y u I V h S Z Z b Z G p t t r r 3 3 5 6 u 9 6 u u u z b S 6 : m h h h h 6 6 g m l S m ",
"T d x ! ! , 2 c J m h a s x D J ' _ ' 3.Q n Q H D D b A n D D D Q ~ Q ~ ~ ~ I _ &.3./ f _ _ ^ Q M x x a a q 7 2 $ > 2 + > a d n ",
";.3.3.0.e.5.` >.4.;.6.;.m w.2.>.:.=.2.u.<.%.$.K H I I I G G G G G I _ ' _ I _ &.<.<.&.Z ;.-.Y K H S l m m D ^ / T T T 2 3 ] +.3.",
"' ( ( ;.>.i.r.-. .;.2.' K 1.:.;.Y Y =.Y U K P H G S H H G Z Z G D G I _ %.~ %.&.;.<.4.z -.' S b l k g g j k k I G R ! 4 - $.' Y ",
"' ' ' ;.6.>.:.;.-.;.0._ K :.;.{ =.Y Y U K S S S S H S I H G D G G I I _ ` %.%.&.&.<.2.r I Y H k l k k h k l V k Z J ` a i <.&.( ",
"(  .;.;.>.;.>. . .;.w.J K 9.:.-.-.{ Y K H S S C m H S H I G G G I _ _ _ %.%.%.%.;.<.2.r I Y K S l k k j k V S m Z S G a y p. ._ ",
".. . .;.:.;.;.;.;. .>.K m 9.2.:.-.Y K H H S V S V S H H P Z I _ &.;.<.<.%.` %.&.&.<.<.3 H Y H S k k l l m V l l V S G a k p. ._ ",
";.;.-.:.;.;.X.:.;. .;.;.r U :.:.1.Y H S S C V k p k j j i i h h Z Z I I %.&.%.%.<.<.2.t 6 -.-.I l C H H H H S S S G H r m a.2.:.",
"m c k c c c h y u r u b d t r r u r ; & * * # O + + + + + > = + + t 3 2 2 6 2 # ; r t t $ t f p 6 : 8 8 r y y y p k p X i Y _ J ",
"( 1 M ;.] ;.....;.3.4.4.j.` t T n Q ^ Q M D ` ^ Q ^ ! ! / ! / [ n d 4.] ] ) / D n n Q ^ ] ^ J J ] f r V p r b D b Z b G _ _ ;.>.",
"3.& 2.r.w.w.6.6.9.9.w.9.i.&.= f r $.Y I I I Y _ I K ' Y L _ _ 5.E u q.X...;...} _ Y Y -.Y Y Y Y 6.Q C I H H H K I I I I _ ' ;.w.",
"6.Z p.2.2.2.:.-.:.' -.:.2.7.; O k Y P H H l C H K H C F C S C  .v u 0.6.>.;. .Y Y L L ' _  .-.-.6.D i S C l V k k S Z I I I %.6.",
"4._ p.w.>.:.' -.:.:.-.:.2.3.; 3 P P P S C H H C C K H S K H K ;.z 8 t.0.:.;.:.Y L Y K Y -.{ :.9.u.Z r P H C l l Z S Z I I I ;.6.",
";.' p.w.9.:.;.-.;.:.:.-.<.G & V $.U K F H N H U K H H F U Y Y ;.c u l.a.8.>.:.Y Y Y Y  .-.-.:.y.s.G F I P S S l l V S Z G ^ Y 6.",
"' ' p.9.>.:.-.-.1.1.-.:.:.b 3 I U K C U N C K U U Y K K Y Y $.w.D g l.l.l.r.9. .' {  .-.;.<.9.9.p.S U #.P P V V V Z G I I I S ;.",
"I b p.w.:.-.Y :.9.1.2.2.9.p y ,.,.,.=.Y K K U =.{ { {  .-.-.-.t.J y l.c.l.l.r.9.:.:.:.:.2.9.u.u.k.P F $.#.$.#.V V S D I P I %.<.",
"Z 3 b b m k 6 i l V V k S 6 ; I S S F C l C l j i i i g i i j ' h % X.l.8.m H S k K Y Y U I I ' 2.G - p p k f r y u p p Z b f Z ",
"b -.Y ' Y 6.I M S m b z m D z u r t p s z u r M c c A D J M z n x v M R ! ! Q ] ^ d * z ] ~ ` %.f 2 2 A ~ %.A T D A ` t I I G I ",
"b { { Y K -.I Y Y Y I %.{ U U Y Y Y I J J M k -.-.-.-.%.:.2.;._ L ' } ;.>.;...a.k.[ 3 I p.p.6.<.&.%.%.Z f Z Z Z Z Z I n b U Y %.",
"r L  .Y U K Y { Y Y Y U U U U U K K H m l l e U Y Y Y Y Y Y Y H H J K Y ' -._ -.i.7.t U u.<.%.G #.f Z p p Z Z p b Z Z J ` ^ Z -.",
"8 H >.-.Y Y Y { { U Y U U U K H H S S S H m e H U Y { { K K Y H H H K ' ' :.:.;.:.j.%.I u.<.%.I #.Z Z p p p p Z V Z D D I ] J _ ",
"8 m 8.>.:. . .{ Y U Y U U Y H F S l l m H u : H K K U =.=.{ Y J K K Y Y  .:.>.>.2.d.&.P &.&.%.%.~ Z p p p p Z p b Z b D D G _  .",
"& m w.9.>.-.{ { w.Y U Y U U U H S l l l S 6 - C l F K { { { Y K J K Y  .-.Y >.<.6.i.Z Z y.*.#.A ~ Z p p p p p p Z m Z Z D _ ' 6.",
"r i w.w.9.>.:.{ 1.9.$.$.Y Y Y U U C H l H h - H C H { { =.{ Y Y Y Y  .-.p.2.>.2.<.u.= V &.&.%.%.%.%.Z Z p p V Z p Z G G I ' :.6.",
"v 5 h u g g h g : e e : : w : : g : ; : 6 ; @ j j j j j g i k g h k k m S S b h p Z + = %.#.#.Z f #.p p r r r t * u t u z b z c ",
"+.@.5.R v R R M M v M v M D x x R D M D D G r r k b n Z D b n D x 4 x x n n v R R R R n t t t t 6 6 2 4 4 4 4 4 7 a u n R R R ) ",
">.0.a.J g w.0.9.w.w.>.8.:.2.&.h -.' Y Y Y Y ,.$.I I K K I Y $.;.' & ( ' ..' _ ( ^ J / ( ^ ! [ ] t n n A M R Q n M M M ^ ' ....} ",
">.w.r.J h >.9.>.>.:.=.{  .:.-.i Y I I K H H U $.P C C P H K I Y J &  .} ( J ^ B M J B B D M ` ` $ c D M m c m M M v M J L L ' } ",
" .:.t. .' r.8.8.>.>.:.:.{ -.K j Y Y I H P H P S P P F P P K Y $.Z c >.' ( ( J J J M J ^ D J D M 3 J M D D v B M J J J J J L Y } ",
" .X.r.6.K r.8.9.-.:.:.=.-.:.{ j ;.Y H K F P P K P F K P K P P U _ b >. .} ' ( ( J J J J J ( L B 3 m M M m M J J J ^ ^ J ^ L ( ( ",
"o.o.t.>.H r.8.8.:.;.:.:.:.:.=.j =.Y K H P P C P S S P K I K I =.I h p.>. . .} ' ( ' ^ J B B B ( 3 t J M M J ^ J L L L L ( ' ' ( ",
"0.>.>.M : 8.:.:.{ :.1.1.9.2.,.i 9.:.Y I K U K H H P U $.U =.,.=.%.r 2.w.w.>.:...'  .} ( ( J E L t & _ _ _ _ _ J L L L } L L } :.",
"m u < & & < & * ; 6 8 j k g - - =.Y F V C e w - - e i j l H Y Y %.3 6 u c h 8 h 9 m M z u 9 c 9 2 > b z z 8 3 < 7 a 7 7 7 6 5 h ",
") | | +.| ) W 5 _ ` M n z A n b h p f p f n b 3 $ u d z b D J ^ ^ ] 4.] ....+.0 < 7 R ^ v T R R ^ ) ] M W ) / R c ..| +.f.v | | ",
"X.X.X.......4.B S <.' U Y I I $.I I I I %.<.i.A H -.%.Y  .;.>.>.>.>.>.>.>.8.t.h.x X m ..} { { B ( ( } ;.} ;.4.3.3 ( o.>.g.e.8.>.",
"} }  .{ { } 4.^ e :.Y I I P S S H C H P U =.I p -.{ $.$.U ,.;.:.-.X.:.:.X.>.w.z./ x o...{ v { B J L ' }  .' ....3 ( X.:.o.8.8.o.",
"} { { } X. .X.J S 2.' Y U P H S S H K P U ,.1.F =.,.,.=.$.:.:.:.:.:.:.X.:.8.t.g.d ( 0...{ B B B B ( }  .X. .X.' 6 } } } X.o.o.X.",
"{ L L L } } :.l V y.-.Y U I P H H H I $.P U 1.P =.=.=.=.=.:.:.1.:.:.:.:.:.8.w.t.m 6 X.o.( B B L L (  .>.>.;.:.J . L } } } X.} { ",
"L L ( ( { } ' u k w.%.Y %.Y I Y Y ,.,.,.y.,.1.U =.=.=.=.$.-.1.2.9.:.X.:.X.X.8.t.4.X } 8.( L L B ( } :.>.8.>.>.( . J  .o.} X.X.} ",
"N N 9 z m H c u ; <.,. .-.,.1.,.1.$.F =.y.s.s.#.=.=.=.=.=.=.<.1.:.1.9.8.:.:.8.r.q.7 X.@.} ( L B L } >.8.:...;.^ . N X. .} ..} L ",
"> & $ X $ 2 > 3 * m k p i k C C C O   w F j I r F F F C C V i : j l l C m h h h z = J ( m c v N r c m c 8 + 6 9 # : h 5 7 9 < # ",
"W ! / [ ! ! / / ! Q ^ / ^ n d n M M D D D D ~ G Q D Z D D G Q u $ p b z R ] ` ] ) h m E B E ) @.+.c ^ M v c m J J ^ ] ..+.4.[ / ",
"( ( +.7.^ _ _ _ } ;.w.e.a._ D _  ._ %.-.<.<.2.9.u.x.%.:.1.<.w.%.* m %.' ' ' -.-. .L { { L { X.0.g.(  .K S H S %.J K  .>.t.a.} J ",
"( _ / ;...^ _ ( _ ..>.6.t.S k J S D H Y I $.-.,.,.9.<.$.-.,.<.6.t p Y I ' -.-.-.{ Y L K L L Y X.q.}  .K N m m H J J ' >.e.t._ m ",
"_ ( _ _ _ ( _ ' ..;.6.6.t.m k J D J K Y Y $.U %.-.$.$.%.-.<.6.i.r V Y Y Y -.-.-. .Y { K Y K { X.0.Y ;.Y H S J J H K L  .>.r...& ",
"' ( ( ( _ ..' ] ..2.w.t.a.Z k I J H K I P P I $.$.$.$.=.-.-.<.s.r S ;.Y Y -.:.:.Y  .{ Y { Y } :.:.m  .Y J H J K L J Y }  .>.' & ",
"( ] ] ' ' ......;.6.e.t.j.a h Y S D J H H P K I $.Y Y  .-.-.-.s.S C :.:.2.1.<.u.>.U -. .-.-.{ :.0.u K L J N H K K K L ' ..;.m u ",
"..] ;.>.>.6.w.6.6.a.x.d.k.b k %.Y K Y Y U H S $.-.,.,.,.=.-.-.%.r V 1.y.s.y.y.y.l.9.-.:.:.:.:.-.} u H J N H m m S m H '  ...h m ",
"c z z D D ( / K ^ '  ._ ;.b o ; r e y i j i i w k j : y V k p = O $ S S V i y k j h y r u u p u u 6 ; 3 6 6 5 8 u u u u 7 r & 9 ",
"v E W W R 5 5 ) R E W W W / ! Q n n d d u z n f s s u f f n A Q Q Q D &./ A D A Q Q ^ = p ;.' &.] _ D n z t u c v z x x z q d v ",
"} o.0.e.f.) & ..q.f.e.5.@.o.....] ..G %.;.&.' I G H G G Z S S F G $.%.<.$.-.%.' Y $.;.t K a.6.-._ I J S Z m Z m M ; h c c m c B ",
"B } o.o.e.z.6 h 0.0.0.o. ..... .} ..m Y J J S k V V V V S Z V S C P $.%.%.$.$.I U $.%.3 Y p.2.' _ K Z m Z m b S m . u N c c c m ",
"J ( ..>.8.g.5 m t.0.0.X...:. .} >.>.Z I J H S Z k S S S S C F S S P $.$.-.-.$.$.%.$.&.$ S p.;._ _ J S m m b c S x X y N N m m m ",
"L ( o.8.8.0.& c 0.0.0.>.>.o...o.>.0.N ' _ J S S S Z I S C S F F G G #.$.<.$.$.$.$.$.-.3 I 6.<.-.' H m m m b k J E % 8 N v N m v ",
"B } X.0.r.t.9 c 0.0.0.8.>.>.o.>.>.>.S  .' J J G S H I P S S G F F $.I $.%.- $.%.%.$.' r -.2.;.%.%.S b b k b m D E 8 c v m m c N ",
"^ } o.0.w. .5 l t.t.0.0.0.0.0.0.8.w.%.;.>.-.I H I I I %.$.G #.P #.%.$.2.G * F #.$.$.<.u %.<.<.:.2.l m S m m S m ( v c c B B B B ",
"9 8 9 u 5 $ % 5 } L h h B L B m N m u H S u r 6 : r i V V k p r p V j V r O ; ; ; w i * i %.$.I ' u r r i r 6 6 f h @ % & 9 9 8 "
};
