/* XPM */
static char *result[] = {
/* columns rows colors chars-per-pixel */
"64 64 46 1 ",
"  c #363136",
". c #443B3D",
"X c #474041",
"o c #4B4445",
"O c #4F4748",
"+ c #4F4848",
"@ c #504748",
"# c #534C4D",
"$ c #57514F",
"% c #544E50",
"& c #565152",
"* c #5B5455",
"= c #5D5857",
"- c #5D5758",
"; c #5E5959",
": c #625D5C",
"> c #65605F",
", c #655F61",
"< c #666161",
"1 c #6A6564",
"2 c #6D6867",
"3 c #6D6768",
"4 c #6E6969",
"5 c #736E6D",
"6 c #75706F",
"7 c #78706F",
"8 c #736F70",
"9 c #767271",
"0 c #7A7574",
"q c #7C7877",
"w c #7B7779",
"e c #7E7A79",
"r c #817D7C",
"t c #84807E",
"y c #6E7181",
"u c #807D80",
"i c #868381",
"p c #898584",
"a c #8B8887",
"s c #8E8B8A",
"d c #918E8D",
"f c #92908E",
"g c #959292",
"h c #999695",
"j c #9B9999",
"k c #A4A09F",
/* pixels */
"1feqqqqqqeeewwqe&yuaufaittqttatt>st666q0rr@@rrrr.rrrrrr*r-*rr*rr",
"1stttttttreeqqta1wpijgsfpttpdfff2s6777qr$rrr$rrr$rrrrrrrrrrr-rrr",
"1setqqrttiqqqqtt1ittaaaittttttsf4t7677qqrrr=rrrrrrrrrrrrrr**-rr@",
"<srrqqqrreqqwqww1iitttttttttttts4t70rrttrrrrr$@rrrrrrrr-*rrrrrr:",
":awwewqqqqqwqqqq2iitttttttttttta:t2rqrttrrr=r:rr@rrrrrrrrrr:rr*r",
">sqweqqqqqwwqqqe<eitttttttttttsw=t47qtatrrrr:r-r$rrrrrrr--rr*rrr",
":seeereqqeeeqeqe15ittitttirttife*drrrraarrrrrrrrrrrrrrrrrrrrrr::",
"o:>>>>222>>2<>22$=2<>>>22>;>>>4>@>=::>25r$$$@.@@.r$r@:r$$@**@*@.",
"qqyuuutf90eteiatttrtittiqetttq942124rrrrr@r:r*rrr>r1rrrrrrruurru",
"aaafaaifwtattattiitiaita9ttrreq6r44rrrrrr@*rrr:r1r>r1ruhrrhhhhhh",
"iiiiiiif6qttiiiiiittrw9e5qtqqqq52rr1rrrrr@rhr:rrr>r>r>1r:uuuhruh",
"iiiiaiify6tetititiirwwwq20tqqqwwr21rrrrrr*rr:r-:1r>r1rr>:rhhdddd",
"aiaiaitf65tqtttiitiq00wq2qrqeqre>rr>rrrrrrrrr:-rr>r>>r1rrrdhhrhd",
"iiiiiitfyqqqtttiiirw000i>6tqqqqqr>>rrrrrr$rrrrrr>r1rr>r:=ddrrhtu",
"aaaaaaaa6faqtiiiiipeqqet=5trereqrrrrrrrrr$drrrrrrrr1rrrr*rddhrrd",
"22222524=24>>2221<<>>;;;&$=><111=:@*@:r=.@r:$:::$-*$*$$>@::*r::r",
"y2tteetew99w0wwq466y66599w99qqrir @$rrrrrrrrr$r:1:rr1r1r1r1rr1rr",
"q>aaaaaitttttttq2tqeeeeewwqqqqtsrrrrrrrrrrrrrrrrr$rrrrrrrrr1rrrr",
"6>iittteteuteett4eqqqqqqqqqqqqwar@rrrrrrrr:r:r=r1:hr1rr11r1rrr>r",
"64seeteteteeettw4ewqqqqqqqqqqqqar@rrr$r*rrrr:rrr1rrrrrrrrrrr>r>r",
"6<ieuttetetttttq4ewqqqqqqqqqwwtsr@rrrr*rrrr*:rrr1rrrrrrrrrr21r>r",
"5>teeeetueeeqqty6twqqqqwqqqqwqtt:rrrrrrr*rrrrr:r>>rrr1rrrr>>r>r>",
"2>iututtttttttt=<iqeqqwqqreqqqqrrrrrrrrrrrrrrrrr1rrrrrrrr2rrrr>r",
"%%<2<<<<<>>>>>>+o=>;:==:;;;;;;;;.@$@@..r$*=@::@@:>r-=>>>>$:$@$$@",
"wwwwwewe498869wwwwwwwww65iw9qq69rr-rrrur*rrrrrrr1r1rr2rrr=rrrr2r",
"tttttttt<ittttttutttttiewaweqqqqrrr:uurrr=rrrrrrrrrrrrrr:>rrrrrr",
"tttttutw<tuuettutuetteatwt0qqqqqrrrr*rrrrXr>:r:rr11r2rrr:>trrrrr",
"tuttttte2tteuteutetetiay5e0qq9qq:rr*rrr::@>rrrr::rrr2rrr>:trrrrr",
"uttttute2tetetuueeuuuti54t0w0wqqrrr::-rr=rrr:rr>rr:r2rrr1*trrrrr",
"tetttutq2ttttetippaieut54twqqqqqr-rrrrr:=>rrrr>rr:rrrr2r:4jr2rrr",
"tiiatiit2ayqeisfsassaii59twwqeqerrrrrr:rr$trrrrrrrrrrrrr:2drrrrr",
">><<<<<>&<>>>2445584522=&<>>>>>2@.-*@-**::r:$$::=$$@::::$#4>11>#",
"qqqq2a625256qtt62q654222522267t2rr-r*@rrrr-r@rr:rrr:rrrrrrrrrrrr",
"tptqqt0q0q6qtttt>t999666566657t7-r*rrr-rrrrrh*hrrrrrrrrrrrrhrrrr",
"tpqtq6666606qqt62r499652>25565t5rr*rrrrrrrrrukrrrrrrrrrrruuurrrr",
"ttqt666q606066659669662262126575-rr-@*r-rrrrruu-3rrrurrrrruuurrr",
"ttqqq666666q66qq>68552122>262772rrr$r$rrrrrrrrrrrrrrrrrrrrrrurrr",
"qqqte66qq66666tq=658522125557272$*rrrrrrrrrrrrrr:rrr3rrrrrrrhrrr",
"ieeetqqq6qqqq6t==98665256666r72rrrrrrr-rrrruuur,rrrrrrrrrrrrrrrr",
"21>1>2>>>>===>2+X&==$$=$::====::$rr$.r*@:-,:-rr.@:::*-:rrrrrr$rr",
"2q56q0052e666666422525i6:t72rrttrrrr:r,r.rr,,rrr550rrad9@rrrrrrr",
"qq00q6020e0qtq069999096t=tttttttrrrrrrrrrrrrrrr,9q00rphqrhhhrrrr",
"660999025660q06699966660=trrtttrrrrrrrrr-rrrrrrr789858pp$hrrrrrr",
"909009015066666699966666$t77rrrrrrrrrrrr-rr:,r,,999990rr$rrrrrrr",
"909999q26q66666666696696=ttr7tt7rrr*r$-,-r,r,r,r99997rr,$srrrrrr",
"990909q46066666666699600=tttt7ttrrrr*rr-@rrr,rrr899977r,*trrrr1r",
"q0009qq56q660066qqq99qet=ttt7tttrrrrrrrr*rrrrrrr0990r7r4:trrrrr2",
"==>=>>>===$$=>2>>>>>>>25$>>>>>:>r@@$.$.@@-#-@*@-:-:,:::@#r1>1>==",
".6r66656066066qt2ttttttqtqqttttt&5r8355333337ru,-0r,5r00e909070q",
"+etq00qqqqqqqqer6tttttttttttttt2#u958887777rrrr@8sw000rrrrrrrrrr",
"$eq00qq000q0q0qq>ttttttttttq7672@h050885888rrra*ud47959rqrqqeqr0",
"$r60q00qq00q0qq02htttttt666665t23p5578588737rru58w7999590qqreee7",
"=q59q9qq0qq0qqq9>tttttt06677660>,0558588877wrrrr3w7878986qqqeer7",
":t50qq9q000qq9q92tttttq66677660>:0798857848rrrrr,787877870rqeqt6",
">t699rtqqqqqqqqe=tttttt07777q6t6&0878787770urrrr*7990q907ttrrte0",
"o:==:>1>>=22>>>=$2622221=>>>>=>=@::,::,:*:,,1:1:@*:::,::>>1>>1>1",
">w<246qe>esittq07777tttt:ttrttrrrr7577ur:tttrirrr55559r0>7646065",
"sq46646e2ttettee7rtttttfrttrrrrrrwr077rr4ddddfdar0rrrruu*60qa006",
"5455444q>9teeeeerrrrttttrrrrrrrrr770r77r2ratirrr0rr000ra$rr70900",
"45454646>qetieter7rrttttrrrrrrrrrr0777771r00rrr7r7000reroqq70090",
"54545446=weaiqqtrrrrrrrr=trrrrrrr7r477071r07007r7r000er0*r900000",
"4546454i<6tqqt6arrrrrrrr=trrrrr2rrrr7707:r75777r0000000r-p999999",
"644654wa<qttttaarrrrrrrr$rrrrrrrr7rrrrrr:70070rrrrrreeep#t000000",
"==&====>%>2<<<2>=$=>>==r@$:=>::::$::::::$@:::,:11,3,1135O#::::::"
};
