/* XPM */
static char *result[] = {
/* columns rows colors chars-per-pixel */
"64 64 122 2 ",
"   c #252225",
".  c #282528",
"X  c #2D292D",
"o  c #302B2E",
"O  c #332D30",
"+  c #353133",
"@  c #3B3435",
"#  c #3E3836",
"$  c #3B3739",
"%  c #3E393A",
"&  c #443735",
"*  c #443936",
"=  c #413739",
"-  c #453D3C",
";  c #493E3C",
":  c #46403E",
">  c #4D413E",
",  c #52443E",
"<  c #433F40",
"1  c #464141",
"2  c #4C4443",
"3  c #4E4846",
"4  c #494449",
"5  c #4D4A4B",
"6  c #524643",
"7  c #544946",
"8  c #5B4B46",
"9  c #544C4B",
"0  c #5B4E4A",
"q  c #56504E",
"w  c #5C514D",
"e  c #554F50",
"r  c #565252",
"t  c #5C5553",
"y  c #5E5856",
"u  c #555658",
"i  c #585759",
"p  c #5C5B5B",
"a  c #624E47",
"s  c #604F4A",
"d  c #63534D",
"f  c #69574E",
"g  c #6A584F",
"h  c #635652",
"j  c #685751",
"k  c #645A55",
"l  c #6B5B54",
"z  c #62575D",
"x  c #645D5A",
"c  c #6A5E59",
"v  c #725E55",
"b  c #715F59",
"n  c #66605D",
"m  c #6B625D",
"M  c #736156",
"N  c #7A6357",
"B  c #73635B",
"V  c #7A665B",
"C  c #76685F",
"Z  c #7C695E",
"A  c #5F5F61",
"S  c #645F60",
"D  c #6D5E63",
"F  c #5E6062",
"G  c #646262",
"H  c #6C6462",
"J  c #6E6866",
"K  c #686768",
"L  c #6D6A6A",
"P  c #716661",
"I  c #746964",
"U  c #7B6B63",
"Y  c #736D6A",
"T  c #7B6F69",
"R  c #7D7067",
"E  c #76706D",
"W  c #7C716C",
"Q  c #757272",
"!  c #7B7573",
"~  c #7D7876",
"^  c #7D7978",
"/  c #826A5D",
"(  c #8A6D5E",
")  c #826E63",
"_  c #816D69",
"`  c #847166",
"'  c #8B7365",
"]  c #83736B",
"[  c #8B766A",
"{  c #86786F",
"}  c #8D786C",
"|  c #917565",
" . c #947B6C",
".. c #9C7D6C",
"X. c #827672",
"o. c #847A74",
"O. c #8C7B72",
"+. c #837C7A",
"@. c #887E79",
"#. c #947E72",
"$. c #9C826F",
"%. c #8E8075",
"&. c #85817E",
"*. c #8B827D",
"=. c #958276",
"-. c #9B8272",
";. c #94837B",
":. c #9B877B",
">. c #9C897D",
",. c #A28774",
"<. c #A18876",
"1. c #A58C7E",
"2. c #AC8D78",
"3. c #868180",
"4. c #938680",
"5. c #9C8C84",
"6. c #918C8A",
"7. c #A38E83",
"8. c #AE9382",
"9. c #A59388",
"0. c #AC9B91",
"q. c #C1AC9D",
/* pixels */
"c B w ] R M M M l M v , q C C I W { R C W %.o.E m I n r J J n n Y : 5 i p n K Q n k k y x y x t ^ *.5 K m m m C J ! q p m y k k ",
"B W k ) Z V M M B M d * w C m m m m n n n y m m m r 3 : r : # + m 3 5 r p n n K F n p x x x x y E o.J Y y m K m I I 9 m n n y n ",
"m ] C B Z V M M M g M 8 q C B C C m m m m m n t q q 9 3 5 5 < % w q q u p p F F n F y x y y x m m C p n n m I m J E 7 n n k y m ",
"C O.U M V B M M g d Z M 9 C m C C C m m n n k t q 9 3 3 1 3 1 $ q 9 r i p n F n F n F y x x m n I m p J p m m I C I q m m n n m ",
"I O.B V V B M Z M g V / q m m m I I C B m n n t 9 9 3 3 : 3 : 1 k : < u k p n n n n n n n m I I I q m n n n m m m ] m m m m C J ",
"U ] V ) V V B M M n M V t m n M B R R { B m y t 9 3 3 3 3 3 3 3 n # q m u p p F F n n n n m C m I m k p n I m C m %.d m m m I R ",
"R O.c B Z M M M l l g g w C g m m R { R C m y q 5 , 3 : 1 1 1 : n + 3 n r y k p n n n n m J J m W C y I C C I R R ` 9 J m m R R ",
"] o.q , ` Z B M M l n 0 > m n M B I R I I C B y r q q q 1 : : : 7 X - r r q r y p n I I m I I m R C 3 I I W %.W { =.> n I C I W ",
"m q # : C d 8 8 8 d g , : : : # > : > % 9 j w 6 2 - 1 3 1 1 : 1 : , 9 q q q t y p p m C I R C C W B : Y R W %.=.7.1.2 2 x t n m ",
"g m 0 t m B w l M l l M g R ( + M ..( ' ( / ( a @ @ @ * 0 9 t m w : : 3 # : : r y n J n p C R m k 9 $ t 9 C C I 1.8.o % y 9 k w ",
"w w w B Z %.l k m w , 8 , N M # v | ( | V M /  .f w B c j 9 7 6 7 , @ 3 : : , w g , , w M M d w M Z w r t t m p n Y m n 7 n k t ",
"w w w w R $., g l 8 w w w d g , f v g a d s 8 / ( m U Z V B j d n m q k n m C R %.%.M w $./ Z Z Z =.:.W *.I ! *.J E o.*.r k n t ",
"q w t t C %., m w d w d w l v g g g g f f d d v N j B B B b l w 8 w w w w g t g 8 C M : ( Z V B m d w k m n x m x n H ! r x P k ",
"w q w m m R > q , , w , w g g g v v v N N g d N ( f B M B B l d t , , w w t g k t B C > ( Z Z B B m h d y x y t r r y I 3 x n t ",
"t w t k m R , d w d w w w d w 8 N N v N ( v N ( M f M m B V l d g 9 7 k k k l l l k B g -.| ` V V M y h k x x y r t r J 3 x k k ",
"t t t m W %.t l d , 8 w w g d , N / N M ( N Z ) 8 g v c B V c j d m k m m g n l l k d t 1.%.( C V m h d k x x y t t q n 9 t x k ",
"k t y n m *.k w d w w w d g , , l Z ( Z Z / Z a @ l v b U ) B l d x k n m B c c m M l d -.| ) V M k t k n y n y q q 9 F 3 3 n n ",
"m k k k k E 9 w , w , d , k : , g N N Z Z ( ,.,.; j b U _ ) U c f k k C B m M B M m t / %.[  .` M k g l n h y t r 9 y E 3 k w m ",
"m x x k k E m d d w w w g l , # g ( 2.$./ / $.,.8 h B ) _ ) U B j w k B B m c m B B d [ $.[ ' ' Z B B m n n y r q q n %.3 x I C ",
"I C n n y W k w g , w t d m l # t $.$.' v M M $.d c B U ` ` ) U B m t C m B B B B R m B 1.$.%.$.$.| Z B C J k k k y n p : I m m ",
"k m 9 t y J : o o + , , , , : : v g g Z / / Z $.s b U ) _ _ _ B C I 7 W m h 7 9 w m M q W %.R C C t q 0 > : # # : , y t + n 9 w ",
"n n , : , q w C M w , , , g , : , , g g v g 8 : O 7 < 6 0 h h 0 7 t 0 t 0 c ( ( d e p I J n E E m > m R M n t q : # J &.n t w y ",
"H ! { Y I C C C R -.%.Z %.Z %., y C / %.%.U Z ) _ [ I ; + l D P k l P c k j B ..V 5 J m x y p J n q y 3 6 q k m I H m m m k y k ",
"w t k n k k n m m m C C l d m q x n g N ` ' ( ` #.#.7.} < w W c P 0 c k d 7 6 t 7 r n n n n q n m 3 7 , , > > 9 k n t t t w q q ",
"t k m m m m l m k k k k k l m , M M l B ' ` / ` =.=.%.>.c h P 0 h t l k h 0 0 s 9 y y y y y y y C 3 3 3 3 3 9 q t y k k y w q q ",
"k k k k n m C C x n m k l m k , Z B g M ` ` [ [ } =.:.>._ < l t z j z l h h 0 0 : q y p y r r q n 3 w 8 w q w t k y y y y d y w ",
"J C , k x m E R m m k k k m k w B g l M / ` ` [ } =.=.=.O.6 k h h z l l c h 7 9 , r t y y u q y y 3 w w w w w g t y y k k w 8 w ",
"k m , t y R { Y C m l m l m m 9 g w d f g V ` ` U U =.:.X.t D k l l l z l j 9 0 q y r r y y q y y 3 y w y w y w t g w t y w 9 q ",
", x n y k m R R J C m m C m r q l 0 w w s g M ` I ` 5.;.X.x o.c l l l l z l 0 h : t y r r y u 1 3 : y q y w g w y g y g y w q w ",
"q , , , q y m m y y y k y : + # d 8 0 0 0 d w M ] } 5.5.O.< T P z h z z j h 6 6 # # t r x G n E E : q y g y y y y y k m l k q 3 ",
": : o + o : x y r r q q , , F , 7 7 2 > > , q n x H E +.+.D J D t 7 h j s 7 7 7 # . 1 : : : , p p # # # 3 q w w w q q 3 3 y : # ",
"J R m m I q E J J J n G G G E H m I m x m p q H H J Y J Y ~ +.4.k z X.U c z h h y : # q Y J m I ! m , , 8 8 , 3 M 8 , a # # : m ",
"n m m W %.r Y x H J J G x t J r J H t r 9 r t x z c H G D D J I @ r Y l h w 0 7 l z   m ~ ~ ! I Y { n > V b h h j j j _ v s I D ",
"m P J E E p L n J J J G i r G e m r 9 3 3 9 3 z x S H H H J @.o.5 w P j 0 h 0 0 h 0 % H I I I m n m k o < s s s 8 < < j < D _ c ",
"I I P E Y r Q G G J J n y u r < k 9 3 7 2 Y X.t n G D H J Y 0.4.e z b h z s h 7 7 9 t m m I J n n m w : < s h j s < s j < D E I ",
"m L E o.%.n Y H H J J G y r u < 2 3 7 9 w t k y x H H H J G 9.0.z D D h w w w 0 7 6 w H m I m m l c w > 0 s d B D s < a * 9 I D ",
"n m E ~ 4.k Q ! E L L n p r y e n q q w t 9 9 y x G J H J D ! q.I s z j s w < h 7 6 t H H P H l k k q * 0 0 h B _ _ b b - k H k ",
"m m J ! ;.t ~ Q L E J n y y t 9 m n q q e 0 t y k x H H H H K 5.z z j j s w 0 s 7 ; t m H I P H j k w - 6 6 8 s h w <.#.O k G x ",
"m n I E *.y J J E L L H i L ~ 2 w k q 9 9 e e y x S S H J D Y 4.s z z j z s 0 < 9 * x Y P I P P x d q > 2 6 7 6 9 ; Z #.o x m x ",
"n n n I o.y ! L Q E L n y i H 6 q 9 q w 0 e 0 t x S H H J H Y 9.h l z j j D j h 0 ; k I P I I H k k q , 7 7 8 7 7 8 7 B 2 H x n ",
"J J H n ! n &.Q ^ Q L D p t i 4 9 t 9 9 0 0 t y x x G H H J D #.D D j D H Y T h h e e P P U U P k c t h 8 a 7 8 7 8 d h 6 D c H ",
"y y m C C y J E D D ~ L S % 5 3 t w 9 9 9 e 9 z x D H H J J Y S < D J D k D P P D 2 9 c D P D x k k 4 6 < < 6 8 7 s j h < e r e ",
", , Z C l C C W O.; e e e < < < 5 2 1 6 9 0 t t 9 e y t t K J e 4 e 5 5 e e 9 9 3 6 % 2 < = D b 0 j j 0 a < 7 8 7 < < 7 l j ) ) ",
"<.C d w w w g l :.z e s h h j h 0 t 0 7 7 7 w J ! ~ H Y J J Y Y Y I x x H c H D H I ] c @ 9 D _ } ` ' b b v B b U j [ j U ) [ ,.",
"M w d v w d d , _ j < s s < w s a < a a 6 6 7 0 D x t z z x x x c D H x P H D c _ O.O.h 7 c d d d s l j d d j b B B O.v f l l v ",
"N v d , , a a d / j s w s w s < < a < < 2 6 0 e 0 e i z x H H H D D S H P I P P ] O.O.U < v h s s 8 d j d d d B U j U B j l v N ",
"M v g , , a , w a < s j z h s s j s a < < 0 0 e r t x S D H m H H H x P ] T I I I P O.] 8 V 0 s a a 8 a d a a c P l Z B c v B B ",
"g g g d d , d g j < < < z s h s h < < a < < 7 0 t k x x n H D x c H H P @.o.T P P B b P j V s s 0 s s j d a d f P d Z U N M l g ",
"d g g d a d d g l , l 9 l b h j w 7 7 6 8 0 h j D D k k x D H H D x k H I T T I Y U U D s b j f a 8 b v d a d d c d N U v j j l ",
"g w M d w g d w R ` U U j B h h w 0 9 0 h c P Y I D x S x x k J T +.X.U T T T T T _ _ _ 7 / b v h v V j v g f l B j M l d f j M ",
", , w , w , , , g n ` ` P b c b m j w d j b k c H n S D D G x H t Y +.+._ T T _ ] _ T _ = 0 8 < ; 6 ; & B w , 8 8 8 c d 8 , > w ",
"k C R R C m . w g : m j D 0 h k j w k t w z < e y S H t e e e S i e e k P H H J P t s a & < ; d j 0 b s * + > q t 1 # - q w : : ",
"Y C C m C m : g U N ] Z b V Z O.{ , 1 d U * p H S G K S K ! Q L ! 6.K ! 3.^ ^ ~ @.e P U _ U b b b V _ ` { k { o.~ { { W Y E C n ",
"m m m m m m , Z Z Z / N V ) ) ) %.I @ k m l H n H p p p p K p u A Q L L Q ^ L K Y w c U _ b j s d d h b P 0 Y x t m ! m x k m n ",
"m m m k C k > Z N g d f l Z U N B W M n d n 7 r A i p p G p p A A A A G K L Q L L 9 c U _ b j d h s d j c c J x n k t y n n n m ",
"m m m m k : w R N v f f l v c v M M k d t l y u p u u i i i u p p A A A S S K Q ! 7 ] #.O.b h s 0 0 s d l H k y y x n n y y n n ",
"P m x 2 m l 8 / N M g g g g l M M h w t w k y y p u i i i u u u u u p A A K F K @.6 :._ j b d s s 0 8 8 M m t t y n n n n p m m ",
"m k k w B j 7 B M M g d f f f g M g t y g k n r A F i u i p u u u i i A G G K G ;.3 P j d j d 0 s 8 8 8 0 n t t y k m m E I m m ",
"J m k t n f 2 M M v g g d d f g d y t l k m m u A G u i p i u u u u A A K F G F +.9 0 j h h a 8 s d s 0 6 n y t y n m L ! m J m ",
"m m k k c 0 # g M l v g g f g l M k l m k %.W 5 K A p p A i u u u u p A K L L L Y 9 P s d s 0 8 w f g w 9 y y k n m m I I J J m ",
"m n m l n w # M v l M M g d g g m g m m n W W i L i p p p p u u u i p A Q ^ F Q ! t I 8 s s 0 8 0 d d f 1 n n n n C J E Y J I m ",
"m C I m m n 3 B M l g h M g g m m m m P B H m u G p p A p p A p A A F K Q 6.Q Q 3.9 Y T 0 d s j g w 8 k 3 # x J J J I E E E L J ",
"w x m y 9 # % + : : % + # , : > 1 9 9 m H J y % u r u u i i u u u p F G x L K A J 4 S k & @ * ; > - * 2 # O # K m y y K K L m p ",
"w 7 2 C C Z B V / N ( g : m Z Z ` k 9 w R I x x r k 3 1 1 2 - 1 < O + r G G G G Q y D y e 9 5 y x $ k G n m ~ ~ ! m X m L Y I k "
};
