/* XPM */
static char *result[] = {
/* columns rows colors chars-per-pixel */
"64 64 76 1 ",
"  c #3D2E26",
". c #3B2E28",
"X c #3A3430",
"o c #41362E",
"O c #4E352D",
"+ c #49392F",
"@ c #4E3730",
"# c #473A33",
"$ c #4C3C33",
"% c #4D3F38",
"& c #523E34",
"* c #4E4136",
"= c #4E4239",
"- c #534136",
"; c #5B4537",
": c #54453B",
"> c #5B453A",
", c #56493E",
"< c #5C4A3D",
"1 c #65463B",
"2 c #634B3E",
"3 c #694C3E",
"4 c #64503F",
"5 c #69503F",
"6 c #564B42",
"7 c #5D4D42",
"8 c #5F5145",
"9 c #5C534D",
"0 c #644E42",
"q c #6C4E41",
"w c #645244",
"e c #6A5444",
"r c #6D5847",
"t c #645549",
"y c #695649",
"u c #66594C",
"i c #6B5A4B",
"p c #715545",
"a c #745A47",
"s c #745748",
"d c #745C4A",
"f c #795D4A",
"g c #655C51",
"h c #6C5E51",
"j c #725E50",
"k c #76614E",
"l c #7A614E",
"z c #6E6052",
"x c #736253",
"c c #7B6552",
"v c #7D6956",
"b c #746659",
"n c #7C6759",
"m c #766A5C",
"M c #7B6A5B",
"N c #7C6D61",
"B c #7D7265",
"V c #7D706A",
"C c #80644F",
"Z c #816551",
"A c #816A55",
"S c #826D5A",
"D c #8B6D5B",
"F c #82705D",
"G c #826D63",
"H c #8D7566",
"J c #8B7964",
"K c #82736A",
"L c #8F796A",
"P c #887670",
"I c #887A78",
"U c #95826D",
"Y c #98866F",
"T c #8C8171",
"R c #928173",
"E c #A89B8B",
/* pixels */
":7KMrerrrraryr<um=9g688uu46,6*zBuuurzzzkjrbzviu;4ittruuureuhzuu<",
"9IRAZClCCCvZllki8=Bzgzzzuuu8u6gB4urzkkkvFvvvkr<zr4u44445e44edzz,",
"KV3lldassssaasa;XBzuururu8484u*6zurruuurkhyuu<mF44444u4e44w44iz*",
"Fdafdaadadaaaaf<bvuuuuuu48u8888Tvururrrueurrj-Mr4u54w4e4we4ew4r+",
"naadaasadsdsadaeBruruutt8888888Brrrurrruririi:iy44ew4eew4444e4u+",
"xdsasddadaasaadwbuuuuu4t88884u*grurrrurriruri,iee54ew44ee4ue4eJ+",
"dasdaaaaasaaaad4vzruuu88u8848u*uzrurrrurriiri<<e44e444444e4w;Uv ",
"ccssdsdssasaaaf4vuuuuu88888uu8,ururruurziriii<dwew4wu4r44we;UU;+",
"cfaassdadkfdaddeb8iuuu888t888t6hrrururuurr4ur0nee4e44e4wee4iY<u+",
"ydaaajdadlccdcc0w8tuu44848888w,9urrurrrrru<zy7xe4w4ww4w044r4r44 ",
">77>0y>>wwwtyyt7:788:888,86<866788448*884<*<,$:7<w02420ww8t<<4<,",
"cffcxf%wxredeieerrei-mzggzzzghhh88ugu,uvzzzriiddxdxxikAcdkkkkkkc",
"sssesf%tyqyqyqtqwewr,gzugu888888886g88uk44200000220e,pee5dpe5a55",
"epesq0@yetewqyteeeer:4muz888t88888888*gz442wq0000w00,dsepd3555aa",
"pps4hj>weyeeeeeewewr*bmugu88888t88uu,om44ww40w000000:se3q253p5r5",
"p3yNSj>7yqetqy0eeeei<mzuugu8888988868mr4444w0000q000>p33e555ppea",
"2KMdry>7eeyeeeteqteytbhhuzu88888889whw00000000000000:e3e355peap5",
"PG3eed0<eeeeeweeeewstbjhzuu88888888w89w0q000000000qw:qq3e3pep5ae",
"s1e5wd>7eeeeeqteetqjubjbzugt888889889w800000qq000000>eeq33pp5e5k",
"eeeeee>0yweeetqytqei7bhhuzut88888w8w98w9q9q0q900w0e00p3qe3epappp",
"0e2000>,0wwqewqww0tj7thuut8688787777668707>011000017&q12200q5555",
"jidye00700<:,7777wtt9tt8tt88778779ttwwwt:wt0qqq000qq000ye00y<idr",
"cfdssq0000072tttiii7ubizjiyytjxyyjhyyyth:jjq3q1Cqqspqqqqeqsd0GDA",
"qqq0q0220>21010t0tt7thihywewwwwww00wqt0q:sq1113qq3q3qqq33qqe>Sfp",
"qqqqq1000017>00ttwt76hihiyweweteewwweywy%yq11133qq3q3qqqq3qq;ACp",
"qqqqq70>1701020wttt6hMthiwwwewwwywewww0y%wq1311333qqq3qq3qqq&sss",
"qqqqq07010712270ttt7bNiiiiywtwewwweyewty&wq1111113q33q1qqq3q@qss",
"qqqeq01170>00<00twt7hNihhitewewwewwwwe0y%01q1113333q3qqqq33q@fCs",
"eqqqq00001222220wty6iNiiihiwtqetwewetewy%%Gq11113q3qqqqqqqqs@NZp",
"qqqqq00007021000twt:9jiiihiyytwwtwew0twe@Nfqq3q3q33qqq1qqqps&sss",
"sqppqpqq0000000ttwy6yjhhjhi77wyeetetetyy@Hqqqq3qqqsqqqqqqqqq%qCs",
"1>1>0&&>&>>&:&>7767#6tw87:..77><7<<<,<>:ojq1111>1>111>11&1>>o@qq",
"xjjiiiyjihww9gtu96:77>0677tjzzzzie48yueriuiiiim<;rww0qys0710y7>6",
"cjhjdjjjjjtiytitt000thyhiiiiwMFkeerreeer5r5r5rr;t5p5qpqqqqqsqsq>",
"h0wwtttyittt0ww0706000tttiui8bk4eeeeuree5rr4rur;<p3qqqqqqqqqqqq@",
"htttwttw0twtt777770606wiiyei8ieeyeee555uur5rr5r<&qqqqqqqqqqqqqq@",
"h0ttywtyttww777777070770tyyi,8rerrur55u5r5rrur54:qqqqqqpqqqqqqq%",
"itttwttwty07770>7777067>wiyi=wre5555rr5r4rt555r<0pqqqqqqqqqqqqq@",
"i0wtwttwtt07<070777>606wttyi:8rertrrr5ru5rrr5rr<@0qqqqqqqqqqqqs&",
"tttettwtt07777770770060w0www#yrer555ur55tr555u5+gL1qqqqqqqqqqqq>",
"htwtwytww<77777777707706<770*tdwru5rrr44rr4r5rj+jHqqqqqqqqqqqqq9",
"j0tttww077700<777>7077707707=6re5rr55rrrr44r5kk*Oqqqqqqqqsqqqqq>",
"7776,6::,==::::,:::66::%:=*#o*<<<<<<4<;44444uu4,:0070>>7>>>>1q16",
"ty0wwwtww8eewwwthjhjjbnjbz=<ScccvvkvllvAzd4mFzmvNnbjjjjhbhhbbj9h",
"ww0400w02w<4w070wyyiiiiirz<iAlcllaaaalaldr*kvjjiijyw9tttq99s9hh9",
"4<wwt02wwwww0www00iyiiiiuh<ucllaaalaaaaakk-bvigryytt0ttt9ty9shhs",
"w2w4ewwww22ww<0ww0yhiiisid<uAlaaaaaaaalaaa4ibtiiittwttttqgyyq99q",
"ww28w<w44ww4www000yyiyyhri,kcllaaaaaaaaaaa;ikiiiittttt9tq99yyhqh",
"4ww<4w4ww4w2ww4w0iiyiiiiii6jZllal5aaafaaaf>hjiiyiitw9twwt9ttiyyi",
"w2wwwww<2w0w<w4wwyiiyiiiij7xcllaalaaaaaaaf26jyiiiitttttttttyyyyt",
"w04ww44wwww4w4w2wiiiiiiiii0hclkaalaaaaaaaf27hyyiiyttwt9ttttyyyiy",
"ww4w4wwwwewwwwwwyiiiiiiiih0hZlaal5faalaaal07diiiyhttttwtwtiiyyiy",
"<<<48<<<<<<<<<<<wwwwt4yyty6<cfas5l5lpsaaaa;*itutytwwwtwwttytuttt",
"zeuw<wyyuwrzr8weiuti8g8:>6::,0<w55447>www2<<7w06707666668878t777",
"UkckkkvFSSvSvkvikikrUE4uyyyiiiiiurrkj>en00eeqqqqydie0wttyhhyhhjt",
"Ssiadaarkldakeibhwtwtyeuyyyyetetyyyyi%ws200200000207788tw8788wt%",
"Frkrdakdakrkk5gBwryytyetyyyyeuyeyeeyh,ww0000100000008w9ww8808w7#",
"vkrkdkrkdardk4gkwuyyyyyywyyw8wyuytuwr<we000q00000000070788w788w#",
"vrrkdddrdddjku6beyur4wytyyw888weyetyy:ew1000000000000088088980w#",
"vkdddddkddddkr6z4uy*8uyyyy888868yyuei7te000000q10q000009908079w%",
"Fkkadkrrddddkk,iur*uzyyyeuw88888teyti:te00000000000000w0w8w8w09@",
"kkkrdddkdddd5rtbzttu<teytw888887wytty76d00000q000100009w788888w%",
"rrrkddddzdddkrtxhtz<yuurutt8w88wtyiiy70j0q000q000000qqttwwww09t%",
",;u4rrrrrrrrrr,8X68,<w84<:8<6766600w> 7y>>110&>711>&&%:===:6777$"
};
