/* XPM */
static char *result[] = {
/* columns rows colors chars-per-pixel */
"64 64 54 1 ",
"  c #B6B791",
". c #BBBC96",
"X c #BABF9C",
"o c #C1BF96",
"O c #BCC19B",
"+ c #BDC4A3",
"@ c #C4C397",
"# c #C5C49C",
"$ c #C8C79E",
"% c #C6C89F",
"& c #CAC99F",
"* c #C5C6A1",
"= c #C8C7A0",
"- c #C6C8A2",
"; c #CCCCA4",
": c #C1C6A9",
"> c #CECEA9",
", c #D0CFA6",
"< c #D0CFA9",
"1 c #CFD0A7",
"2 c #CFD0AB",
"3 c #D2D1A6",
"4 c #D4D3AC",
"5 c #D8D7AD",
"6 c #D7D8AF",
"7 c #DAD9AE",
"8 c #CCCFB0",
"9 c #CFD4B1",
"0 c #D6D6B1",
"q c #D8D7B0",
"w c #D7D8B3",
"e c #DBDBB4",
"r c #D6D9BA",
"t c #DDDEBA",
"y c #E0DFB5",
"u c #E0DFB9",
"i c #DFE0BC",
"p c #E1E0B6",
"a c #E2E2BC",
"s c #E8E6BE",
"d c #DDDEC1",
"f c #DCE0C6",
"g c #E4E5C2",
"h c #E8E7C4",
"j c #E7E8C6",
"k c #EAE9C4",
"l c #E3E5C9",
"z c #E7E8C8",
"x c #EBEBCB",
"c c #EFEFD0",
"v c #EFF0D1",
"b c #F2F2D5",
"n c #F5F5D9",
"m c #FBF4E4",
/* pixels */
"66eeqe40w;044>;;;;;;44=>>>=8qaxxzr<404,,&#&;,4eyeqep23e7333335iy",
"6qeujq2e-264<<>4<<;;00;->>;>0uxgtq045<,,&#&&,3eeeeeak61633533557",
"qqeur0ji>q4>4<4qq<;;;80<44<<4ug0re4464,&##&&;4eyapaajs4463333335",
"6qqewiaw2t44><0qtr4;>4eqq004rt>rqq4<563&&&&#;;eyapasssaiwi755537",
"566taetg0t0<<44rt4<<;<4rrq<4r404;<qq5q05,$##&;5ei7pasaakheai7776",
"ee6iiaahuuu54>4re0;*#;qttr402>,;=&4euuee6&##&;<646ppassskhwai7ip",
"uqqaaaaggzgeq065<<-o#-4rqr4;>>#&$$<tgggee4&#&;,46eppsgsjkx666ii7",
"eqeeeaaaggrueeq40<-o#-<0<4<;4#&#$$;qggteq444<,,466eissjkkk4577ip",
"1eeeaaaaagrhetq664;#o=q0<4=44=o=;><4taeqqqqrq<<5446pshkkxk144476",
"1eeeeiiaggtgtae0qeq-*-<<>=8q44<;,<4<eyq4qqeeeq<<3377asask4&11343",
"-666eaehgwtaiaaatte>;;><8;<40q4<40<=;43,<5qqueq446eieiipa;43&364",
";1>46eiaaragahhaaeq4<6re>=4<0qq46q,$&,,&,,56uuuq466647wepi76ei64",
"2;;%14eiisiihgggaeqrtetd*<<;,34qq6,&&=;,,,4eeeee4464266wei224211",
";-@#%;3wiiksghkjeetgttd>=>;;;,440q<;&;;;,,46e<4q4122wwwwi92i4611",
"1&$@@%1216iiii9wzeettdto3$$$;;334e>=&;;;,4454<<<226wwtie%+iw143;",
"&$@#@@1466i62wwiar4qtu;<<$=====;<4<;;;4,<4ee5<44444www;OOiw4&1;;",
"1;;$$;33443eeixie6214-14,o$$o$=oo,;=;<3,0qyeee50424wr>rrfa6,=&;;",
";&&$#&;>;>>66ea664;11-61;oo$$$$;;oo$=<35qqqeee054040>llrar<=$#$$",
"$##$&$$;;32444411146;ew2&oo;;=ooo;o<,;4qq40yee<q490w>rrdr4=###$$",
";3421$$;=;>442646ww2tae4;o$,;o$o;o==33,q435qy5454402:dle3;##@$$>",
"<0004;=;;&1444wihzatiwr6,=#&$#$ooo,,;;,34q4qeey0442Xdzt4>=###$>4",
"4<0q0411>;;3246ihjtq2;46,;==$$$oo,o;,;,5q43q500<24#>rwr4;=###=40",
"00tttw4>;124>16ihje0&;=>,,,,&$$&,o,o=;<4434q5044w4-rq640<;;>=>wr",
"00ddtt01>444;=4ehge6,;;;,<<<;$&&$,o,;;<33qqq46q64*24r6400044<>eq",
"<0reee8<<44;=;260wi6,;,,,<44<;;&o,$$;,,,<ee6<,><*>4qttrette<<><8",
";<<<<<;<<4>*%2>#trw4,,,,4<464,,;;,<;$$$,,6ye444*8r0gguetgtt0;;;<",
"-;;;;-;;>>;@%=#wj6>;;;33&;44<,,;,<45,;$<47euee,<eeugdeetrttq<<;;",
";-=**=;=;>>>@:iiq63&;;>3,><44<,,457y5<<467uhay<gqdggdee8<0r0;0<;",
"==*##=->40i>:teiqq4,;;;;&4444444<5yy55556eyahruheudgte;;;<80<;;;",
"o=####=>w092iqeaqq6r63;;;3644644543q55qq77eatezgzgzhu0;-=<<04<;;",
"<;>*=->r0*9atwehieate4;33,46664444,3qqqy577e<yjcxcccjte<=<4408<<",
"<<><49e0:igrew4raajgt4;;4,4446643,&,5qyyyey<eeucbnnnxdt0<<44=>4<",
"4r0446><eifitw>4eahue41334346eeq5,,,7yypyyyqyygzlxbn+dxw4264;ww4",
";2>40->rwiaie6>46rar6644>376eep65<,477pshhy<<5ugrtlx9+r**#%O.->2",
"t9wr2>w0wtaiew434rtq644e66767eee0<,4e7ypuheuue0uggdxx>e6wiew21r9",
"iit09>40etiareeetagt666epapi77pe5544yyeyyuruq<<<0<0uhdeqeiii76ii",
"www20>0riiidewizjgajeeeeeapp7ypp6436pksaue4<<===;=<euute6wii3737",
";2224>-ggagatwrajgjgieeeeee677ppa436pahag4<4==;;;;5tttuui76733;1",
"%14244#rjhir0qqruggzi777377577775;&34sieu>=<=<<400qetttuii653;;;",
";3146azratw4,6qttuggi43373,33355,&$&1i2iu<;=;4<0eq0etuutpii73;;&",
"1332ejxr0r6<>40etdduq33433333333,,&$;3<u50,=;<<44reapaspippe533,",
"366wajhbt64,>36eugut64343333733553,&$=,<<<<==;<<5qqeaspsaaae7333",
"44eeggxmb84>;;4dguutqq645577y733773,=<054<<==<4<eeqeppypaapp7333",
"34eegxbmmt>434ugdhggee7377yyyy7yyp77qeeuq<;><<quapyeeypppee73333",
"366qghxmmb>646zzgzguhe667ypppyssspy3eauge<>=84edaaat7777y7753333",
"1346wrxnbbr>qrxxzzgeree77yssssskks536uddu<;;>yeugit0333777753333",
"4434rgxxaer>>txczzuq6qeyyssksskkss7447ugu<>==<quaiq6337757535333",
"6640utuurrer0hxcxgt76767ssksssssey6;,euueq<;=><yaiqq333335533377",
"qeeeaatregzxrrvxluq3qq5quskksaps63$16uaeq4>;>6eeaier533577735335",
"6qqqeeirixxvf2vzuq4<,40qusskkspe41&;4qte64,,>eieiape653777773333",
"4646qrgggxxxxxgay<;<qyquysskksp43&;&3qii464,>3qitiaaee7557777337",
"443406tjxzxxjare3<;<5uuuuyskkkp;&@$$>6ritq6,;&>46iaaay7757yyyy33",
">&,,346ahgtggttr44yyughuuyhxkkp;$%#$;6airaq>&;&140euay7337y77773",
",#&&&556rrttiggaqugghhhgetrrks6$%$$14ti>qa641&;1,466ee5333777333",
"&&&&$,,,36dtugggggxkkzzhutg>ee&##@@%*2-0y4663;&1<<44433333373333",
"&,$@#&&,4rttgdgggdezxzgr><0*.$#. .%;0tghu6663;11444,,,3777777333",
",&&&&,6q6rtetwwgutX<8;-=o*;e0r4<21>6qagjjiii664433333@3777y77333",
"3,,;>66qeyeq4;>48=8<>;;;;-*<e4->;-=>6eaxiisiiwew773333&7777733@3",
"3,;;,6reaatr4;--<<======-=##;;=-=-><6eihiiggii6w7773333777773333",
"763,4qtughai>-4>=o==o;<=;,-==;<;>4>46qegffsssiwi7y777377y7y73333",
"y6,,4wtugzxw2q2#=o=o=<<-;<><46r6444446qeiiepggae7eee777psp773337",
"y6,,6qeegxg:r0>=o===<8=oo*=;4quue46444444346iaggppe6737yy773737y",
"y7,,3>44raw2q4>$=o==<8;*;o;>qaajaiwi533313344iiaaw6wy7773333377y",
"py743134qe0q4>;===o=<q;===<<6ijhsi353331&;3344ii2we=7737333337yy"
};
