/* XPM */
static char *result[] = {
/* columns rows colors chars-per-pixel */
"64 64 182 2 ",
"   c #030000",
".  c #0B0102",
"X  c #080409",
"o  c #0E090F",
"O  c #130202",
"+  c #11060C",
"@  c #140A0C",
"#  c #1D0F0D",
"$  c #18100F",
"%  c #0E0F14",
"&  c #140E12",
"*  c #161216",
"=  c #1B1314",
"-  c #15131A",
";  c #1A161A",
":  c #17181D",
">  c #1C191D",
",  c #221619",
"<  c #221B1D",
"1  c #291B19",
"2  c #1E1C22",
"3  c #221E22",
"4  c #291F23",
"5  c #1F2027",
"6  c #1F262E",
"7  c #242126",
"8  c #2A2326",
"9  c #25252B",
"0  c #2A262B",
"q  c #26282E",
"w  c #2C292E",
"e  c #322C2E",
"r  c #392E2D",
"t  c #252731",
"y  c #282732",
"u  c #262A32",
"i  c #2B2C33",
"p  c #272C3A",
"a  c #2B2E39",
"s  c #322E32",
"d  c #322F38",
"f  c #2E3036",
"g  c #2E323B",
"h  c #343235",
"j  c #3A3234",
"k  c #33343B",
"l  c #3A363B",
"z  c #34383F",
"x  c #3C393D",
"c  c #443937",
"v  c #423B3D",
"b  c #493E3C",
"n  c #4C413E",
"m  c #2E3441",
"M  c #333642",
"N  c #383743",
"B  c #353A43",
"V  c #3B3C44",
"C  c #353C4A",
"Z  c #3B3E4A",
"A  c #353F53",
"S  c #433E43",
"D  c #4A3D44",
"F  c #433F4A",
"G  c #3E4046",
"H  c #36424D",
"J  c #3D434C",
"K  c #374052",
"L  c #3D4552",
"P  c #3E4954",
"I  c #3E4759",
"U  c #3E495C",
"Y  c #444145",
"T  c #4B4346",
"R  c #43444C",
"E  c #4C4649",
"W  c #43484F",
"Q  c #4D494C",
"!  c #52464B",
"~  c #544B4D",
"^  c #434652",
"/  c #4C4651",
"(  c #444A54",
")  c #4A4C54",
"_  c #424759",
"`  c #444C5B",
"'  c #4A4E5A",
"]  c #544D52",
"[  c #594E53",
"{  c #594F58",
"}  c #4B5057",
"|  c #46515D",
" . c #4B525C",
".. c #4D585F",
"X. c #565254",
"o. c #5B5255",
"O. c #52535D",
"+. c #5B555B",
"@. c #5C595C",
"#. c #605557",
"$. c #61565A",
"%. c #635A5D",
"&. c #6F615D",
"*. c #444E62",
"=. c #494E62",
"-. c #465162",
";. c #4B5463",
":. c #4D5965",
">. c #4B5669",
",. c #4E5A6A",
"<. c #525562",
"1. c #5C5761",
"2. c #535B65",
"3. c #5B5C65",
"4. c #51576A",
"5. c #525D6C",
"6. c #5C5E69",
"7. c #4D5B73",
"8. c #4F5F78",
"9. c #535E71",
"0. c #595E70",
"q. c #515F79",
"w. c #635C63",
"e. c #685F62",
"r. c #4F616D",
"t. c #576067",
"y. c #5C6167",
"u. c #55626C",
"i. c #5B636C",
"p. c #556373",
"a. c #5A6473",
"s. c #566976",
"d. c #5B6974",
"f. c #53637A",
"g. c #5A6679",
"h. c #546A7B",
"j. c #5C6B7B",
"k. c #646266",
"l. c #6A6265",
"z. c #62636B",
"x. c #6B656A",
"c. c #63686E",
"v. c #6B696D",
"b. c #626673",
"n. c #626B74",
"m. c #6D6B71",
"M. c #606779",
"N. c #626E7C",
"B. c #6B6F7D",
"V. c #706A71",
"C. c #63727C",
"Z. c #6A747E",
"A. c #767477",
"S. c #857774",
"D. c #556680",
"F. c #576883",
"G. c #5C6C82",
"H. c #5D6F8A",
"J. c #5E7081",
"K. c #626E81",
"L. c #657483",
"P. c #6A7783",
"I. c #657985",
"U. c #6B7A84",
"Y. c #63738A",
"T. c #647C8C",
"R. c #6B7C8B",
"E. c #707987",
"W. c #717F8C",
"Q. c #667790",
"!. c #657894",
"~. c #6C7E96",
"^. c #717D92",
"/. c #70828D",
"(. c #678598",
"). c #6A889B",
"_. c #738593",
"`. c #7A8395",
"'. c #7B8994",
"]. c #74879A",
"[. c #74889A",
"{. c #99B4CC",
/* pixels */
"V 9 ) ) / ) R / 3.%.X.&.Y - k ( 2.2.Q T e 3 J 4.0.a.9.*.;.*.C I ` U *.` ` ` *.>.>. .n B ( ) J G G J } t.r.t.s.n.t.W G n.2.;.' <.",
"s < ) O.) ) ) @.l.%.@.&.x > q u.2.| u.v.~ 3 ' ' Z Z Z ^ ^ _ ` ` *.*.-.*.` *.;.>.;.a.G z  .( } J J P ..t.u...d.d.C...J d.` ` _ 4.",
") @ O.2.} O.z.x.l.&.k.&.w > > } :.;.;.;./ 1 ` ` Z Z Z L L _ -.-.*.-.>.;.-.>.,.,.U :.V f  .( .. .} ..r.C.C.C.C.C.I.W t.d.=._ ^ 9.",
"Z.  O.y.3.2.3.k.x.x.v.~ 8 2 ; G u.:.| ` ( w ` | Z V N C L ` -.-.-.,.5.5.,.,.,.;.` -.k i } W J ) 2.u.s.s.d.c.C.U.U.z s.d.=.*._ >.",
"N.* ) z.z.i.y.k.c.l.A.v.; 8 0 ( d.:.J P ' w )  .L ^ ^ C ^ ^ _ -.,.p.h.h.r.,.*.*.-.p.k : w P | :.u.u.t.r.s.d.C./.P.d K.0.4.=.=.=.",
"a.9 } i.c.c.6.k.v.y.v.m.8 7 7 ( u.:.| ( | 8 L >.' >.^ Z L L _ *.9.s.s.r.,.-.*.>.;.s.| > i ( ..u.d.i.t.s.C.n.C.I.' y 4.0.4.=.=.=.",
"0 2 ) t.i.n.n.z.k.y.@.Q r > 5 ( :.| | | ^ 8 N 5.4.:.` J Z Z _ I ` >.,.>.-.-.-.-.>.h.L 7 5 g :.i.u.t.d.C./././.} 0 R g.=.=.C =.=.",
"0 3 ) 6.6.n.Z.c.@.@.@.E 8 - q q L ` ( ( W 9 t Z L | >.' ^ ^ ^ _ ` ;.:.U H P -.r.r.u.x q > 9 f J P z J } ..u.I.} d ^ M._ _ =.=.0.",
"3 o w } Y G J l c T v w 0 > 2 > 7 t 7 2 s 0 3 = * 3 y i 0 y y y p M g p 7 2 m C g f 8 0 > < + + = = & O     ; i d =   a a 9 9 8 ",
"Y G W W  .G > < 2 : * w j j 8 w e 3 k R x r l 3 d F l d i y 3 i g w - : 2 3 O O = > w k N Z / R l h > V <.O.O.e x ) R h * 3 V J ",
"..t.s.i.Z./.n.2.G g s.N.u.:. .| -.w V ` ' ) ) k Z ) F ^ ^ ^ F 4.6.2.x e 8 4.K.-.^ *.P *.*.7.8.8.<.5.C B a.4.p.d.P.W.b.b.V w ' ( ",
":.u.t. . .:.C.U.z z s.9.;.>.>.` =.i a L P K ( ) F ) F V ^ ) / _ ;.<.3.} V U f.7.-.*.U C U >.*.*.=.,.P 0 5.;.-.u.a.;.` ` k w ( ( ",
"t.u.t...:.u.i.'.^ y p.9.` ` ` ` ` ;.;.( ' ;.C L ^ ' ^ F / ' ^ ' ;.O.5.g.O.A *.U 7.-.U U *.>.*.*.U *.` = ` ,.;.-.;.-.( L f 9 ^  .",
"t.u.i.u.t.i.t.'.i.* N.,.*.-.` ` ` ` | ( -.` ( P Z <.<.<.' ' / ' =.<.0.G.4.A f.9.8.>.*.*.*.>.>.*.*.` ^ ; M ;.*.=.>.| L J k 9 (  .",
"..t.i.i.i.u...P.c.; ,.;.-.-.-.` ` ` ` ` ` | *.=.F <.<.<.=.) _ O.<.<.g.0.^ A q.7.7.>.*.*.*.*.>.*.=.,.` 3 y ` ` ^ ` H H P h i W ( ",
"P ..t.t.i.i.2.2.a y j.>.;.;.;.-.-.;.` -.;.;.,.g._ O.O.<.<.' / ' 4.5.0.0.a.y q.f.D.7.8.>.7.>.>.*.*.,.=.; a I ` *.P 5.U ` f B ^ W ",
"P ( ..u.i.t...s.V 3 9.9.5.,.;.>.,.,.;.,.,.p.j.J.^ <.O.<.O.' M =.<.5.0.P.;.t q.F.H.D.D.q.7.>.>.>.*.,.I < Z ;.-.*.;.;.P ` B V J J ",
"J P ..t.t.....u.V = ` 9.,.>.,.5.,.9.p.j.J.j.G.Y.) <.=.' O./ 0.^.<.4.0.g.' m q.H.!.H.D.8.7.7.7.-.9.9.Z 3 Z ^ >.;.;.-.` ` H V J J ",
"G P ( } J J } u.Z > ' 5.,.,.;.,.f.p.j.T.T.I.J.T.( ) =.O.' ) ' ^ ;.' 5.0.2.A q.F.H.H.7.8.7.7.7.-.*.*.P 4 a -.>.>.>.>.:.-.J B V V ",
"z G G J J H } 2.Z 3 J Z _ _ ` ,.p.j.J.s.j.r.g j.^ R R R ^ ^ F ^ ' <.4.0.' M ` q.H.H.H.D.7.7.-.` I *.Z a ( -.L P U P ` U V k V B ",
"9 9 q 9 f s 3 q 3 ; * @ @ @ 9 a C P t : - - . B a w i y y 0 9 0 i k i y s & 8 Z ' I I K C M p u t t 3 t 9   - * % o - - 2 9 y w ",
"i k w R C./...h l E R R V h 0 8 * # R Y R ) x j r 0 0 e s h R R d ; > 0 w / 6.6.+.D , = ; < R Y Y O.R k S S x S Y v n x e 4 > 5 ",
"( | ;.E.R.C.[.C.K.L.j.j.L.u.<.R h 0 u.i.) R S Y S.&.j ^ | ( ` ;._ 6.s 4 s K.g.'  .@.E x , <.'.i.z.b.z.w.1.1.' / Q ~ ~ X.@.X.8 h ",
"( 5.d.C.u.s.s.s.>.;.>.;.5.;.>.3.h 3 Y Q T v S h l.x.( C ` L C C M 9.6.4 B j.*.( H ( ~ ! 1 a.K.' <.<.6.w.w.w.w.w.@.X.! T E k.l 8 ",
"R ^ ( | u.s.j.a.u.,.;.,.4.-.| u.R 3 Q X.X.~ T Y h y.i.H -.P H Z Z A <.# ;.Y.,.=._ Z ) ] s ( 6.<.<.6.w.z.b.w.x.m.l.%.o.o.~ [ v 9 ",
"V ( | :.5.j.C.s.s.s.4.5.4.-.;.>.^ , S o.X.~ E Q n G x | ;.P L Z ) ;.' O 0.Y.9.=.` Z B / F Z / ' 6.6.6.a.w.z.V.V.m.l.$.#.#.! j w ",
"J ( ;.:.s.d.U.I.a.s.p.a.p.,.9.g.| , X.o.o.X.X.~ E R z | ;.` K L ` ` ' # 9.Y.>.=.=.^ N R ) V <.O.) M.w.6.b.V.V.V.m.x.%.#.#.T j i ",
"V L :.p.h.C./.j.N.s.a.p.5.,.f.K.R w +.X.o.X.] X.E Q ^ U -.` ^ L Z K a.w >.Q.P.,.;.` ( ( V 2.B.1.m.B.1.6.6.x.v.m.V.e.w.$.[ T j a ",
"m ;.u.s.j.I.u.u.j.p.p.u.,.,.5.R.) 8 ] X.] ~ Q Q T Q J ( ` ` P L L L a.k ` ~.K.>.4.;.2. .C ' `.6.<.<.O.O.+.1.z.k.@.%.%.$.[ T c w ",
">.f.u.s.a.s.j.U.p.u.,.p.5.f.f.R. .1 E ! E E E T T ) J H ` ` P H ^ A ' k Z f.j.5.5.d.u.a.;.3 g.4.' ^ ^ ] ' ) ] O.+.$.$.o.#.T v 8 ",
"| p.u.p.5.5.j.j.u.7.u.u.5.g.G.Y.a.8 R R E ~ E Q Q @.f C P P P L a V ` y K ` p.,.5.u.u.5. .0 2 2 9 : 2 y i i 2 9 e h n G E E E 0 ",
"( | B | :.:.:.p.,.u.5.5.s.j.L.R.( @ Y E Y T T v Y @.f q C B C m : q 9 = 9 9 2 3 9 y i 3 : ; 3 8 0 s w + O ; < : * * * % : 7 0 > ",
"j 3 y d d i y t d M N C Z =.4.=.f = ; 7 3 2 9 g h f w q q w 9 7 3 8 x S k 7 i 7 9 2. .) W ( ` ( O.s  .N.t.W G h h h e e x x x v ",
"j.W.E.k d ^ F N F D [ ! ! e v c T Q n n h P }  .(  .2.} J } k w ' 2.d.N.,.R O.R u >.;.;.5.N.f.,.5.e W U.C.u.u.t.t.) 3 J J ) 5.a.",
">.Y.{.R.' g.O./ F F ' ] +.1.V.{ ~ T ~ X.s ( | J J P P J H } Y 0 a.,.=.>.,.` ' / f -.-.-.-.,.9.,.;.5.k d.n.d.n.u...( 0 | ^ _ =.9.",
"7.=.~.].N K.0./ / / / ] 6.{ D D D D ! Q g | ( t...( ^ ( J | E 3 A ^ ` -.9.P P ( 9 ` ;.-.` ;.,.,.,.,.L t./.C.C.n. .Y k | _ ' ` ;.",
"4.q.q.4.N K.0.{ ] ) / { D { D D ] ! [ E h | ..:.( P ( ( ( ..P < N ( ` | ,.5.,._ 9 P U | ;.;.,.,.,.;.f  .U.Z.n.t.} ) p F _ ) =.,.",
"9.q.F.,.N 0.4.<.] / ] { ] ] { [ o.] E c f ) :.| ....| |  .j. .; L >.;.| ,.5.,.9.q B | ;.;.:.>.,.>.;.J U.Z.C.Z.y.} N a ^ _ _ ` =.",
"5.q.g.9.y { 1.F F / { w.{ { [ [ $.{ < 4 q | :.:.u.:...:.u.Z.G < ` ;.| >.4.>.9.9.5 J p.,.;.,.r.s.p.;.J i.t.n.n.t.} R y _ ' _ ' ;.",
"7.9.g.F.N ' 0.b.M.0.w.1.w.{ e.e.#.$.D v q ( u.u.u.u.u.u.s.u.h 8 R >.;.,.:.,.5.f.u a :.r.>.>.r.p.,.| z ( ..t.u...R W Z 0.F ` ` >.",
"9.g.g.G.i ' 1.b.i.@.{ ] w.w.w.w.$.{ [ { 7 k 2.u.d.d.d.C.u. .z q f -.5.;.:.,.f.j.i > ( ,.;.:.>.:.| P V | ..2.t.} } ) } 4.' =.;.,.",
"Z C m Z > F ) F R +.] F ] 1.w.w.w.$.] T 3 3 f C J H ( ..g f z 0 2 7 ` :.` | 5.;.3 7 g z z g p 6 u a 9 x G W ( R G k m ( L Z Z M ",
"d d l N s 2 : * % > 7 7 0 s l j s e e s w 2 ; * * * O   * = 2 7 2 2 : ' ..g H H ; # = # ; h S Y Q x r r 8 : & 2 q q 9 5 q k k k ",
"9.a.u.3.^ l k l h h k h w : - a N V  .m.@.8 r 3 w R }  ...O.T Y s 8 > u z q 2 q G ..i.i.G w.l.@.o.~ ~ o.! 7 J  .2.| J L ` 5.4.p.",
",.=.' ( S V N x z S R E E e 5 J ( t.u.n...c l 3 f N.T.I.R./.d.t.O.Y 8 5 g G P t.j.I.s.I.| @.l.%.o.X.~ ! ~ h | ;.J L ` -.:.,.,.,.",
">.;.) / ^ R S x x n D S E e J ..}  .i.n.E n n 8   | p.;.;.:.;.| ) Q l z :.| | P :.r.:.r.m @.x.&.$.o.~ n ! Y  .;.` ` -.;.;.p.f.5.",
" .) ( ^ ^ F S S T T ! E E e } 2.| ..u.d.h j h < C.u.P | L H P | L W e B ;.U ..| u.u.r.u.B @.x.l.&.%.] T b l -.:.5.| ` ,.5.f.p.,.",
",.) / / F S S S E ~ n ! ~ e ....t.U.t.u.W r w l U.:.P ( | L ( P J ^ i L | | r.r.r.:.:.h.H o.k.%.3.&.o.] E h ` ` ( ` ` ,.5.9.9.5.",
"5.' ^ R R D Y ! ! ~ ~ b T r E ;.....t.t.J 8 7 j.C.:.:.| | | ....W P f P ..P ..r.s.P r.(.P X.l.%.$.$.$.o.X.h ^ ` | ( ` ,.s.j.g.f.",
"' R F R R E E ~ [ o.o.T o.c  .<. .:.u.t.T ; g /.C.u.u.r.u.| | | P J z H U U :.s.s.s.H.).H E &.$.$.o.o.X.Y w | | U ( -.;.5.g.g.5.",
") ^ R R R R E ~ ~ ~ #.[ ~ h J ( ^ :.u.5.W 3 k [./.s.d.s.s.t.| } W | W f H P | r.r.:.h.h.6 x ] ~ ] ~ ] [ h f :.:.` L m ` 5.f.,.=.",
"N k k k k V V E [ ! ~ ~ ! > . f g k W J q 9 w u.u.t.t.r.r.| | | | J P 3 q 6 q f i u 6 q 9 * @ > 7 8 w h e 9 B M B f % f M m M C ",
"i 7 2 7 2 2 h h 8 0 8 q e k w 3 3 > & > 8 w 8 .   * * 9 q ; 9 q 5 = > q B H H H P P G H W W y.l 7 w w h l h h w O - a k a 9 a s ",
"^ ^ J L f ^ i.y., w 3 > W ) } Q F Z k s R ' ) ^ G x x G l x G T ~ h g z H p p P J P J H H | i.h G  .` :.L.U.R.R.u.V Z ^ ( ^ ^ L ",
"J J L R f (  . .c.2.V s ^ V Z R N h k R ) `  .' R G h h l h x k x n P H P m s.:...P P J J P } > f :.,.p.s.j.j.R._.V a M A M A I ",
"Z C Z C a (  .3.2.<.) F M.Z Z N k l N R ^ ( ' ' ) ( V G x l x E W h | U P 7.h...r.| ( | P P ..8 f ,.:.:.:.:.-.5.j.4 Z Z Z U >.L ",
"V C V C f ( ..:.t.2.R } N.V Z V N N N M Z ' ) ( R ( } ) h j h l l s ( :.:.:.r.:.:.5.:.:.| :...= g ..} } P } ( J ( B L Z M Z k M ",
"k M B J z } ..t.i.2.( l R C V V N V Z F R Z J S R R R x h k j h l w ( r.t.:.:.:.u.u.u.:.5.i.u.; u ..P P P J P P ( N B J C M M M ",
"m k B J B } t.i.d.i...w ^ F V V M V Z Z V R R ( ^ ) ) V h h x l G h ( s.s.:.r.:.:.u.2.:.:.n.c.; H t.} P J J J J J q C ^ Z M M m ",
"g M z C f ( t.t.i.n.@.i ) _ ^ F Z ^ V k Z ^ ^ / ) ) ( V x x V V W Q | u.J.p.u.u.2...:. .} u.n.i f | W } } P z g J q J ` A M M m ",
"M k k B q P J G i.C.2.> ^ ' ' ^ R ( V V R ^ ) } O.) R V V R Q Q O.( | 5.s.j.s.2...|  . .} | t.i - W } ( } P J H P q f ( Z M M M ",
"a a a g - * X - k W V = N ) F V V z k k k V V J R V k l k z V R O.Y L ;.:.;.:.:.:...:...| ..t.h : ( } } W H G u g y : 7 t 9 9 t ",
"; 2 3 h Y x v Y T T X.E & 2 ; = ; - ; ; * * > > & @ * * ; $ . * ; = = 7 < ; > 7 8 u H z f z z 9 > g s 7 * = > > 7 > > * > 3 3 > ",
"w 8 l ( W } Q X.@.@.@.+.7 : h S x h 8 7 > w x ) 2.3.1.) J } <.G x J ` ' ' W V W } z @ w x x G x s f h G } X.y.Q e 8 G ] Y E X.Q "
};
