/* XPM */
static char *result[] = {
/* columns rows colors chars-per-pixel */
"64 64 66 1 ",
"  c #1F1515",
". c #281B16",
"X c #271B18",
"o c #2B1E19",
"O c #301F17",
"+ c #2E2019",
"@ c #34251C",
"# c #39271C",
"$ c #37281D",
"% c #3C2A1E",
"& c #3E2C21",
"* c #422D1F",
"= c #46301F",
"- c #48301F",
"; c #432E20",
": c #482F20",
"> c #463122",
", c #4C3423",
"< c #4E3826",
"1 c #463329",
"2 c #4B342A",
"3 c #4F3A29",
"4 c #513624",
"5 c #543A26",
"6 c #5B3D26",
"7 c #553C29",
"8 c #5A3E29",
"9 c #543E36",
"0 c #603F27",
"q c #603F28",
"w c #57402D",
"e c #5D422B",
"r c #5D4430",
"t c #5F4831",
"y c #624127",
"u c #63442C",
"i c #69462D",
"p c #65482F",
"a c #6B492E",
"s c #714C2F",
"d c #624730",
"f c #684730",
"g c #654A31",
"h c #6B4C32",
"j c #684D3A",
"k c #724E31",
"l c #6E5135",
"z c #6F5338",
"x c #745234",
"c c #7A5435",
"v c #7F5837",
"b c #745539",
"n c #7A5639",
"m c #76583A",
"M c #7B5A3B",
"N c #815636",
"B c #815837",
"V c #845C3A",
"C c #885F3C",
"Z c #86613D",
"A c #8B613D",
"S c #91643E",
"D c #826141",
"F c #8B6642",
"G c #8C6843",
"H c #946A42",
/* pixels */
"pr5:yuiyikc40c45-vSc-yyepe877e5565<5==<et=eeee<5e5t<<<556e6<555e",
"bhcpiskscBCCacicsSAAi4yeappepppeee655eeeptlllplep5te5006eetpeepp",
"b,hxusssxBBSnOsCZSABs=6asaeeeeye56<55<55e5lpppleee5555<05eteeepp",
",,ah0cscxBVAC#nCVACvVp=xppeeyee6e55<5556e=tplptte6555<<5eeeeetep",
"76uk6assscBBAknCCVVvcy&pyyeye0e60545556em=ellppe5555,5456eeeppps",
"e6qku0sssccBCHVBVBBcxy=7eeeee6e6<5,4<55<l<pppptee5<<,,46e6eeeplx",
"f8usk4ssssxccccvvvvssi<speee6eey=,4,<555l5tlltte5<5<==55<eeepssl",
"uqpic8iiissskkkkxxcss0=peey8e6y<%,<,<<<ep=tppppe55<==,=5<6eplxxv",
"-iiikiiyys00ssssssssy4%0ee6yey<<==44545065<pttpe65<<=<=<e6epmcxv",
"6yiua6y00i440000yyyy0%#6yyee5=ee$,44=4555y$5t7=55<<====<<7etpxxl",
"66phi#>4----44--00=4=##-=<==5pp<=4,4,455<e$==$<<<<=&%====<<e7=5<",
"kkcBC,8y56iiisisNSssy60y6$.5mps<=4,4,,55e$<le=ttppt5=w77tppmM=sx",
"khiak*6866q00iiccBANcs0sxy$pmls=,=544=5<e<=lwweeeee5=777ttppl=pm",
"khhkk*688quq0iicvcvvssyap5=6yp5$===<=4,<p<=lttetettw777eetllm<lm",
"khaii*58qq00issNBCBBcsayp%=5=====$%%=%%=$+<ptttttgteew55etplm<lx",
"kkaip,qq0quiissNCAABsssss5=spllppy<=,=<=5=<peeetggppe5eettppme5x",
"khkih,e6ypiiassNCSVcscssc5=pp6y6we<,=>,,l5<teeetggggpeeeetgglhhb",
"kkahi>6e0uiiscxBCACccsscs==y5555-,-=====pe>gweegggttpeeeweggzlhx",
"hahki=66eyiisskBAABacsscl==e<=55<<,====%5w%pewpettgtew5wweeeghha",
"hkaih*66eyias6iBCSV,sccsve55<<<=<->=====-w@tewwettttw5wweepwwgik",
"ufe,u*>656y8**yxxnV%6siip=<<===$%=%%%%%%==+<w8wweeee-=5677r5w658",
"&,5;**%*%:<>@>4ey+<r-:,>===7=====%@=&=====%@;&@>w=%%%$%&;&;;>$>w",
"zgfu8868ephhp6hhFlwDghxgpeeptepppp<5eytymp<>e<7zgtwww<-<,,457,eM",
"jfuy8886pphggephzZezlhgpee67pe6eeyeeeetebGe=>rbltew--<55,44458rg",
"puuq886qqgggggpihZwllpgepee8ee56weeeetyptGG%&lhgr8754444,4,44qdh",
"udd88888qfggpppplM<glagtee8ee6e55w6eytpalmM<&><377555444:::4579h",
"ddq868888pfgpppglM5gaptpeee8666556weptplzzmt+&etr862444:::46q7:8",
"q8d888q8eppdpppilMwgptuue6e66555506eegpgzmMg<13er86444,:4555875d",
"dqq8888qeyepppppll<tpeuue57655<<<68etppplzMz3e&r88754::,,545777f",
"d8888866eppppppppbw5peee=565<5<5<<56etppglMm<g2rr85344:,,554877f",
"qq68q8qqupgppppihm<wtppw%775=====<<5887pplDM7dg;r877754,46u2747d",
"7745442758ee8weeeh&%4-w#+=,=====%%====$&&1wt&37#:,;;:,:::,,4,@47",
"eyyeee8,%$=@<eeplmm=<7w7w5w&%=$@%%&%&%$=:44444,2::;:; 9qqdhq588q",
"laalkxxh<55$wllmmMSeteepeewe<<>%=====6=,:,5578qq857f:o25qqqffhfh",
"iapaalhd6w,+7ppgzlme5e55-5-5<=->===<==%=**;:47752,:5:;:5946qfufu",
"aahhllxpeew@7epgplm5e7e575<<-<<-=<,=-=$=;*::47754,,,2:,44,4qquui",
"gallzzhhpee,5eegppl<e6e656<<<-<<<-<=55%=*:::4674:,:4:;,:::466qui",
"alhzzxxgpye46eeeppp<6556<-=<<<--=-=-5===-,,44554:,,,;;,2,::46qip",
"azhlzhhgype65w8eept=<<654<=<-,=,-<-<<==-,4,667542,:4;;::::,76uuu",
"aahhhhpepee5<658ett$,5<<,===,>=,w---w=&w,,4474555555;;:::45660uf",
"paphgfpepee6=558epp=e5<<,,,<-$*4<w-w8>;7:,7657576778::546575qqqq",
"ppphk,eeww5e,*,5555$&&%%#$%%%++%%%&=2;&,#%*;;;*:::,>&#:::44556qq",
">>>,3&;>&&===@@@==&=<=%<55%%,6,%-w$,jdq6668uff5;7:,y7,;#:1;;;;:;",
">>#>8>,5>,,<=,=@<6epysxskc66asxxcm&,h0u0qifkkkn75>uauq8,kq754,:2",
":;&;2<<,-<--=5e&&eyey0mchh5uhkbMcb%>h866qfffhfVb.7fqq8y,we8<5,,,",
";,&;<>,<w<<<-=w%7yuypeylku5ahkcnak*@,6608fiffkhVeuhffuu,ew<55,,>",
";;;&,,55w--w-<w$eyppiapaxe8kkknnlp=4u066quiffhhbnhhhhip<75,54,>>",
";;>#&<37w<w-w==$5aspappiBhfxkbMnce;puq606uufiffkxkhfpye6<<54,,>*",
";;;:%%55533,58>@7hfhfhiuxchkbnknh;@uuu666qiuufgkhxhddqq8:,,,>=**",
";;;;>@>5,33,3,8&ufkfkffifchkbBn8,2,:q0606qq0ufhkhhfdq676;,>:-***",
"&&;;>%><>53553r18uhhffiiiahxbnB;@9k,*566666quiffffiq4677;,,:**>-",
"@@#@$@$>@&&;;&>;uuiffkhfhfkbnnkO5kkc#6qq000quifffi04665q@&*@####",
":@$;;%&%&&@@$&<$;,,,,4464,4556#o;576&@:::4454566684;55;,$+&w7<>>",
"w2>6e57558,;58e<7hkb-qss06qqfqnh6q,3853,,>*@57q4#*@:;>255<&glzgt",
",<=,<<5558;;357,7inc4ssiaqsfkkxVhk88guureu4*9ufbkq&454558e$<5w71",
",1,5558755;@,88,7qki4iii0i0ifsffhf81du878u#,888ubkO23,,,5w%3>%==",
">>,55558775%#,4>&>>4iai0qiqfsffiqf:;d88883&7q89ugx$$&%&>,<@3>=>=",
"><,55856555:o#,%>@Xysiq0iqqifahaid&;r3777&199qddgh>$t1>wew&<>>=&",
">>>,5555775%@5u7raoqsyuiq00fafffufq@8e7;&&77qddqhh%ett>3rt<<,*%=",
":-:<<555745#:664<Be4sii0i00uuiuuuuh;jjbb:&77qdqddd=e6we=37>3>***",
":::><555557#&765#5>#sii00qiq0iuiyyf>ghgjh:<78898qd:8e5ww$$&7<***",
"::>,,,5>55q6O5q44k4Oqsiiq00quyi0e8d&rgfhdp;388u8dd;8ew5w3+&w<*%*",
">,<,558;6qqh*;i44kN#0ssiiii000yu888@>r8rrr8:77eu9d;7ww5ww$>t8<,>",
"*;>>,,,@:446:*5;#5q#*664,,444,4,>>;@,3;;<,2;,2>,4,&&&%%%%@%33>>*"
};
