/* XPM */
static char *result[] = {
/* columns rows colors chars-per-pixel */
"64 64 194 2 ",
"   c #28011D",
".  c #2A1824",
"X  c #321B25",
"o  c #382527",
"O  c #362429",
"+  c #39262A",
"@  c #3C2A2B",
"#  c #422E2C",
"$  c #46322E",
"%  c #4A342D",
"&  c #533B2B",
"*  c #4A3631",
"=  c #4D3A32",
"-  c #533D33",
";  c #563F3C",
":  c #564134",
">  c #5A4436",
",  c #5C4936",
"<  c #5B453A",
"1  c #5D493A",
"2  c #644C37",
"3  c #634C3B",
"4  c #6C4E3B",
"5  c #714E39",
"6  c #675037",
"7  c #65523D",
"8  c #6B523D",
"9  c #6F583C",
"0  c #71533C",
"q  c #735A3F",
"w  c #795D3F",
"e  c #7B633E",
"r  c #5E4942",
"t  c #634D43",
"y  c #635341",
"u  c #6B5543",
"i  c #675945",
"p  c #6C5B44",
"a  c #645149",
"s  c #6D5749",
"d  c #6D5D4A",
"f  c #735643",
"g  c #7A5741",
"h  c #745C44",
"j  c #795D45",
"k  c #725D4A",
"l  c #7C5D4A",
"z  c #6A5A51",
"x  c #685C5B",
"c  c #6F604C",
"v  c #766145",
"b  c #7B6344",
"n  c #7E6946",
"m  c #73624C",
"M  c #7B654C",
"N  c #76694F",
"B  c #7C694E",
"V  c #6F6054",
"C  c #756552",
"Z  c #796652",
"A  c #776853",
"S  c #7B6A52",
"D  c #74625B",
"F  c #7A655E",
"G  c #7C6B5A",
"H  c #5D496E",
"J  c #5E5065",
"K  c #69566F",
"L  c #6E6266",
"P  c #7A6561",
"I  c #7E6964",
"U  c #73696A",
"Y  c #796C78",
"T  c #7B7074",
"R  c #876B44",
"E  c #8A6F44",
"W  c #82664C",
"Q  c #836A4E",
"!  c #8A6B4E",
"~  c #89744B",
"^  c #8C744C",
"/  c #816750",
"(  c #846C52",
")  c #8A6E52",
"_  c #806E5B",
"`  c #8B6F58",
"'  c #906E50",
"]  c #857154",
"[  c #8C7254",
"{  c #8F7856",
"}  c #85725C",
"|  c #8B755A",
" . c #8D7A5C",
".. c #927454",
"X. c #997656",
"o. c #937A56",
"O. c #997B57",
"+. c #927559",
"@. c #987759",
"#. c #927B5B",
"$. c #9C7D5B",
"%. c #816B66",
"&. c #826E6A",
"*. c #857561",
"=. c #897762",
"-. c #8B7A65",
";. c #83716E",
":. c #887569",
">. c #8C7B6B",
",. c #937E62",
"<. c #997D60",
"1. c #937F6F",
"2. c #837476",
"3. c #8A7572",
"4. c #8C7875",
"5. c #8F7C79",
"6. c #927A76",
"7. c #9C7E79",
"8. c #94815D",
"9. c #9C825B",
"0. c #A2825C",
"q. c #A68D5F",
"w. c #AB8A5D",
"e. c #8F8068",
"r. c #948261",
"t. c #9A8564",
"y. c #9C8966",
"u. c #94836C",
"i. c #98866A",
"p. c #948A68",
"a. c #9E8969",
"s. c #9C916D",
"d. c #958272",
"f. c #9B8474",
"g. c #9F8877",
"h. c #9D807B",
"j. c #9F9276",
"k. c #A48661",
"l. c #A88562",
"z. c #A58B62",
"x. c #AA8C63",
"c. c #A28D6B",
"v. c #A59166",
"b. c #A5906B",
"n. c #AA956E",
"m. c #BB9964",
"M. c #A39474",
"N. c #A99678",
"B. c #B49E71",
"V. c #BBA765",
"C. c #C3A875",
"Z. c #694F84",
"A. c #715886",
"S. c #846E91",
"D. c #887392",
"F. c #9A8286",
"G. c #A58B85",
"H. c #AF9792",
"J. c #B29B95",
"K. c #B69E99",
"L. c #B89F99",
"P. c #B3A197",
"I. c #B6A39A",
"U. c #BBA59D",
"Y. c #BDA89F",
"T. c #A694A2",
"R. c #A192AD",
"E. c #A896BA",
"W. c #BDA7A1",
"Q. c #BEAAA2",
"!. c #BAAAAE",
"~. c #C19D9A",
"^. c #C2A19D",
"/. c #C2ABA4",
"(. c #C6AEA8",
"). c #C6B3AA",
"_. c #CBB5AD",
"`. c #CBB9AE",
"'. c #C8B7B7",
"]. c #CEBCB2",
"[. c #D1BDB5",
"{. c #CFC0B5",
"}. c #CDC1BA",
"|. c #D1C1B6",
" X c #D4C4BA",
".X c #D9C7BD",
"XX c #D7CBBE",
"oX c #D9CABF",
"OX c #C3B5C9",
"+X c #D9C7C0",
"@X c #DACEC2",
"#X c #DBD1C3",
"$X c #DCCFD0",
"%X c #E0D6C8",
/* pixels */
"k S m m c m N M N m C d d c c c c c C A A c 1 ] ] B N 9.Q t.c.c.a.r.} A G G A A A A G x y ] / ` / Z W / ) B.f W l g f f g 5 ` t ",
"m S d m c c A N m C C k d c c C c c A A A C , [ ( B B h B t.a.c.t.i._ Z G G A A A A G L a | ` ( _ k Z ) +.<.3 W l l f l g W ! ; ",
"N  .m m N i A S Z Z Z C m C C C c c *.A A c y r.] B M h [ a.a.a.c.i.A G G G G A D A >.U s ,.| | | k / ` +.<.3 ! W l l l / ` ` t ",
"1 m c 7 i , 7 m d p i p c d p 7 v 7 G N c i : p.8.8. .6 Q r.r.8.y.| m C A A G F A D d.x r } S _ _ 1 Q +.#.#.> j ` f f f / W W 3 ",
"5.4.2.:.T :.T :.:.T T J H K L T Y T T D D %.:.%.F I F I &.%.%.I I D P F P D x D D D P ;.6.4.3.>.&.3.%.P P ;.6.I &.P I I %.&.&.6.",
"Q.Q.I.P.I.Q.Q.Q.Q.Q.U.F.Z.D.R.E.OX'.J.J.H.J.K.J.J.J.I.U.I.U.I.J.J.J.H.H.J.H.H.H.J.J.K.U.U.^./.^.(.(.U.I.L.U.U.U.U.K.W.W.^.^././.",
"{.{.{.`.{.{.{.|.{.{.].!.A.S.R.OX'.Q.(.)._._.).).`.`.`.`.[.[.].`.`._.`.).).).).).).).`.`.].].[..X X X{.].].[.{.[.].].].[. X[.[.[.",
"#XXXXXXXXXXXXXXXXXXXXX.XS.T.$X.X]. X X X X[. X X X XXXXXXXXXXXXX XXX X X X X X X X XXX XXX.XoX@X@X.XXXXX.XXXXX@X@X+X@X@X@X@X+X@X",
"#X#XXX#XXX#XXX#X#X#X#X%XJ.!.#X#X@X@X@X@X.X+X+X@XoX#X#X#X@X@X#X@X@X@X@X@X@XXXXX@X@X@X@X@X@X@X@X@X@X@XoX%X%X@X%X@X@X@X@X@X%X@X@X@X",
"XX#X#X#X#X#X#X#XXX#XXX%X!.!.#X#X%X@X@X@X@X@X%X@X#XoX#XoX#X@X@X@X#X@X@X@X@X@X@X@X@X@X@X@X@X%X@X@X@X@X@X@XoXoXoX@X@X@X@X@X@X@X@X@X",
"#X#XXX#X#X#X#XXX#XXX#X#XXXXX#X#X@X@X@X@X@X@X@X#X#XoX#X#X@X@X#X@X#X@X@X@X@X@X@X@X%X@X@X@X@X@X@X@X%XoXoX@X@X@X@X@X@X@X@X@X@X%X@X@X",
"XX#X#X#X#XXX#X#X#X#X#XXX@X#X#X#X@X%X@X@X@X@X@X@X#X#XoX#X@X#X#XXX@X#X@X@X@X#X@X@X@X@X@X@X@X@X@X@X@XoXoX%X@X@XoX%X@X@X#X@X@X@X@X@X",
"#X#XXX#X#XXX#XXX#X@X#X#X#X#X#X#X@X@X@X@X@XoX#X#X#X#XXX#X#XoX#X#X@X#X@X@X@X@X@X@X@X@X@X@X@X@X@X@X@X@X@X@XoX@X@X@X@X@X@X@X@X@X@X@X",
"#X#X#X#X#X#X#X#X#X#X#X#X#X#X#X#X@X@X@X+XoXoX#XoXoX#X#X#X@X#X#X@X#X@X#X#X#X@X@X@X@X@X@X@X@X@X@X@X%XoX%X@X%X@X@X@X@X@X@X@X@X@X@X@X",
"#X#X#X#X@X@X@X#X#X#X#X#X#X#X#X#X@X@X.X@X@X@X#X#X#XoXXX#XXX#X#X#X@X@X#XXX#X#X@X@X@X@X@X@X@X@X@X@X+XoXoXoX@X@X%X@X@X@X@X@X@X%X@X@X",
"#X#X#XXX@X@X#X#X#X#X#X#X#X#X#X#X@X@X+XoX@X@X#XXX#X#X@X#X#X@X@XXX#X@X@X#X@X@X#X@X@X@X@X@X%X@X@X@X@X%X@X@X@X@X+X@X@X@X@X@X@X@X@X@X",
"XX#XXX#X#X#X#XXX@X@X@X#X#X#X#X#X+X+X+X@X@X#X@X#X#X#XXX#XoX#X#X#X#XXX#X@X@X#X@X@XoX#XoX#X#XoXoX#X@X@X@X@X@X@X@X@X@X@XoXoX@XoX@X@X",
"#X#X#X#X#X#XXXXX+X+X+X+X+X@X#X+X+X@X+X+X@X@X@X@XoX#X#X#XXX#X#XoX#X#X@X#X@X@X#X@X%XoX%XoX#X#X#X#X%XoX%X@X@X@X%XoX@X@X%X@XoX@X@X@X",
"#X#X#X#X#X#XXX#X+X+X+X+X+X+X+X+X+X+X+X@X@X#X#X@X#X#XoX#X#XXX#X#X@X@XXX#X#X@X@X@XoXoXoX#XoX#X#XoX@X@XoXoX%XoX@X@X@X@X%X@XoX@X@XoX",
"XX%X#X#X#X#XXXXX+X@X+X+X+X@X+X@X@XXX+X@X@X#XXX#XXX#X#X#X#X#X#X@XXX#X#X@X@X#X#XoXoX%X%XoX#XoXoX%X@X@X@X@X@X@X@X@X@X@XoXoX@X@XoX@X",
"@X#X#X#X#X#XXX+X@X+X+X+X+XXX#XXXoXoXoX@X@X@X#X@XXX#X#X#X#X#X#X#X#X#XXX#X#XoX#X#XoX#XoX%X#XoX#XoX@X@X@X@X@X@X%X@X@X@X%XoX@XoX@X@X",
"+X#X$X#X#X#X+X+X+X+X+X@X@X@X@XXX@X@X%X@X@X@X@X#X#X#X#XXXoX#XXX#X#X@X@X#X@X@X@X#X%XoXoX@X#XoXoX#X@X@X@X@X@X@X@X@X@X@XoX@X@X@XoX@X",
"@X+X@X#X@X+X+X+X+X+X@X}.+X+X#X#X#X#XoX#X@X@X#XXX#XoX#X#X#X#X#XXX@X#X#XXX@X#X%XoXoX#XoX%X#X#XoX@X@X@X@X@X@X@X@X@X@X%XoXoX@X@X@XoX",
"+X@X@X#X@X+X@X@X+X@X+X@X+X@X#X#X#X#X#X#X@X#X#X#X#X#XXX#XXX#X#XoX@X@X#X#X#X@X@XoX%XoX@X@X@X@X#X@X@X@X@X@X@X@X@X@XoXoX%X@X@X@X@X@X",
"@X@X#X#X$X#X#X#X#X#X#X$X#X#X#X#X#XoX%X#X#XXX#XXX#XoX#X#X#X#XXX#X#XXX@X@X#X#X@X#X@X#X@XoX@X@X@X@X@X@X@X@X@X@X@X@X%XoX@X@X@X@X@X@X",
"+X#X#X#X#X#X#X#X%X#X#X#X%X#X#X#X#X#X#XoX%X#X#X#X#X#X#XXXoX#X#X#X#X#X#X#XXX#X@X@X@X@X@X%X@X@X@X@X@X@X@X@X@X@X@X@X@X@X@XoX@X@X@X@X",
"#X#X#X#X#X#X%X#X#X#X%X#X#X#X#X#X#X#X#X#XXX#X#X#XoX#X#X#X#X#XoX#X@X#X#XXX@X#X#X@X#X@XoX#X@XoX#X@X@X@X@X@X@X@X@X@X@X@XoX@X@XoX@X@X",
"#X#X$X#X#X#X#X#X#X#X#X#X#X#X#X#X#X#X#X#X#X#X#XoX#X#X#XoXXX#X#X#X#XXX@X#X#X@X@X#XoX#X#X#X@X@X@X@X@X@X@X#X@X@X@X@X@X@X@X@X@X@X@X@X",
"#X#X#X%X#X#X#X%X#X#X#X#X#X#X#X#XoX%X#X#X#XXX#X#X#XoX#XoX#X#XXX#X#X#X#XoX@XXX#X@X#XoX#XoX@X@X@X@X@X@X@X@X@X@X@X@X@X@X@X@X@X@X@X%X",
"#X#X#X#X$X%X#X#X%X#X#X#X#X#X#X#X#XoX#XoXoX%X#XXX#X#X#X#XXX#X#X#X#XXX#X#X@X#X#X@X#X#XoX#XXX@X@X@X@X@XXX@X@X@X@X@X@X@XoX@XoX@X%X@X",
"#X#X#X#X#X%X#X#X#X#X#X#X#X#X#X#X#X#XXX#X#X#X#X#XXX#XoXXX#XXX#XoXoX#X#X#XoX#X@X@X@X@X@X@X@X@X@X@XXX@X#X@X@X@X@X@X@X@X@XoX@X@XoX%X",
"#X#X#X#X#X#X#X%X#X#X#X#X#X#X#X#X#X#X#X#XXX#XoX#X#X#X#X#X#X#X#X#XoX#XoX#X#X@X#X@X@X@X@X@X@X@X@X@X#X@X#XXX@X@X@X@XoX@X@X+X%X%X@X@X",
"#X#X#X#X#X%X#X#X#X#X#X#XXX#X#X#X#X#XXX#X#X@X@X#XXX#X#X#X@X#X#X@X#X#X#XXX#X#X@X@X@X@X@X@X@X+X@X@XoX@X@X@X@X@X@X@X@X+X+X@X%X%X%X+X",
"#X#X#X#X#X#X#X%X#X#X#X#X#X#X#X#X@X#X#X@XXX#X@X#X#X@X@XXX@X#XXX#XXX#X#X#X#X@X@X@X@X@X@X@X@X@X+X@X@X@XoX@X@X@X@X+X@X+X@X+X@X@X@X%X",
"#X#X#X%X#X#X#X#X#X#X#X#X#X#X#X@X@X#X#X@X#X#X#XXX#X@X@X#X#X@XXX#X#X#X#XoX@X#X#X@X@X@X@XoX@X@X@X@X@X@X@X@X@X+X%X+X+X+X+X+X+X@X%X@X",
"#X#X#X#X#X%X%XXX#X#X#X#X#X#X@X#X#XXX#XXX#X@X@X#XXX#X#X#XXX#X#X@X#XXX@X#X#X@X@X@X@X@X@X@X+X@X+X@X+X@X@X+X+X+X+X@X%X+X+X$X@X@X@X$X",
"#X#X#X%X#XXX%X%X#XXX%X#X#XXX#X@X#XXX#X#X#X#X@X#X#X#X@X@XXX#X#X#XoX#X#XoXoX#X@X@X@X@X+X@X@X+X@X+X%X+X+X+X$X+X@X+X+X+X%X+X+X@X%X@X",
"#X#X#X#X%X#X#XXX%XoX#XoX#X#X#X@X@X#X@X@XXX#X#XXX#X@XXX#X#X@X@X@X#X@X#X#X#X#X@X@X%X@X@X@X@X@X@X@X+X+X@X+X@X+X@X+X%X+X+XoX@X+XoX+X",
"#X#X#X#XXX#X%XXX#X#XXX#X#XXX@X#X@X#X#X@X@X@X#XXX#X#X#X#X#X#X#X@X#XXX@X@XoX#X#X#X@X@X+X$X+X@X@X@X+X@X@X@X+X@X+X+X+X+XoX+X+XoXoXoX",
"XXXX#X#X#X%XXXoX%X#X#X#X@X@X#X@X#X#XXX#X#X@X#X#X@XXX#X@XXX#X@X@X#X#X@X@X#X#X#XoX@X@X@X+X@X@X@X@X@X+X+X@X@X+X$X+X+X+XoXoXoXoXoX+X",
"#X@X+X#X#X#X#X#X#X#X@X#X#X@X#X#XXX#X@X@X#X@X@X#X#X#X#X#X@X@X@X#X#X#X#XXX#X@X@X#X#X#X@X@X+X@X@X+X+X@X+X@X+X@X@X@XoXoX+X+X+XoXoXoX",
" X X.X.XXX@X.XXXXX+X@XXXXX@XXXXXXXXX@XXXXXXX@X@X@X@X@XXXXX#X#X#X#XoXoX#X@X.X.X+X.X.X+X@X+X@X+X@X+X+X@X+X+X+X.X+XoX+X.X+X.X.X.X.X",
"`.`.`.[.[.[.{.].].[.].].].].].[.].].|.].].].].].[.].{.{. X X X X{.{.`.`._._.`.].`.].[.[.[. X X[.[.[.[..X X[. X[..X.X.X[.[._._._.",
"U.U.U.U.Y.W.U.U.U.U.W./.W./.U.W.W.U.U.U.U.U.U.U.Y.W.W.W.W.Y.I.P.P.P.I.C.I.I.I.U.U./././././././.(.(.(.(.(._.(.).(.^.~.~.~.~.~.~.",
"h.f.f.f.f.g.g.f.g.f.f.f.f.f.f.f.d.f.f.f.u.u.1.d.u.u.d.d.u.e.*.*.| } e.e.I e.e.>.1.1.d.6.h.F.G.G.G.G.G.G.G.h.h.h.7.7.7.7.7.7.7.7.",
"z.$.{ ) Q ( [ o.+.$.$.<.$.<.@...] Q B ( ` ] ] |  .] ( ] G S B n B 8.n n n n e n b m.E z.z.o.[ | +.` ` ` ( { 8.f X.w.X.X.X.X.$.$.",
"X...M p d f u d j / ' @.$.$.l.l.0.$.$.$. .| ] ] B N B N N B N v ] 8.7 v ~ b e b b 0.w ( Q W W Q ) ) +.` w.V.O.' W m.$.X.X.X.$.$.",
"..{ ..| <.| W Q ) ' ' X.X.$.O.@.@.+.) ` S S ( S M M M v v n v v e v 9 n ~ 9 e q R b 2 f u f f j j l W ! ..) t.W g W $.' X.' E X.",
"` ) ) ) ! [ Q ! ! Q W ! ' ' ..` [ ` ` ` S ( B B v M v n e b e 9 v 9 9 ~ e e w w b 6 j j j j f l l M W W W [ ! ..Q b ) ' O.$.0 h ",
"b ) Q ( Q Q Q ! ! Q 0.w.' ! ! ! Q ( Q ( S 3 m B b v Q ^ 9 v v v e v v e E R w e w 4 j f f f j l W b b b l k W O.W ! ..' X.O.0.Q ",
"+ = = * = - - = - % 3 < - - - > > : = = * + * = = = : % @ = = = $ * = * , : : : & @ $ $ # $ - < - ; - > - = - % - - 3 - 1 4 3 y ",
"# + + % # + + + + @ O O % $ # # @ @ @ + @ # + @ $ $ @ @ $ @ + + @ @ + @ o + + + @ $ O . $ $ X O + + + @ @ @ + @ # @ + @ + X O . ",
"# - 9 > : - : < % # @ , j > , < , > > > > : @ 9 7 , , < , - - : > : = = > : : - < % u C ; W 4 * - = : % = > X Q S % : < < > 1 * ",
"2 0.M 7 9 8 v N e 6   9.#.d m c d m c v m i i  .Q B B N Q q 2 8 7 7 : v i u u i < N N.G t s u 3 3 < 0.Q - h % o.` 3 y 3 f f M > ",
"Q k.p m c d v p m v.& 9.| M N M N S S S A N i e.| ] ] Q ^ Q 8 8 9 q 2 v.m m m u d M.i.F t f u s 3 ) O.$.b W > O.` u u 7 j M Q 1 ",
"h Q v N v v m m m 9.8.{ ] ( S N B S A S S N y  .| ] Q Q B #.^ 8 h 9 q 9.m M d d i.p.-.D t k s a s +.) ) ..o.6 9.` u u f k m Q , ",
"p ) m N N m M N ] N #.| Q S B B N B S S S A y } ] ] ( Q S ) o.v 0 z.q.Q m m d ,.u.*.i.c.; k s u ( W Q ) [ ..6 ..Z u y f k m Q 3 ",
"f | S ] B M M ( Q ] B ( S B B N Z N M S ] S 7 ] ] ] Q B ( ~ [ Q v.n.[ N v d e.u.=.-.n.=.; s u M ) B W ! ! ) 6 ! m i u j f h M 3 ",
"u ] S S B N S B B S ( B B Q S S S Z S M 8.8.1 ] ( Q B b Q [ ~ #.v.N B m 7 p.i.-.=. .G D t s s ( W / Q ) ! ..8 ! W u u f f 8 j < ",
"u ] S ( S B B B B N M N S N S N m N C N A y.< m n B B n ] [ ] r.r.] S 6 s.j.-.*.%.G G A r s l / Z W W ) ) ..4 W j f u 5 0 4 0 < ",
"p S M S S B B B Z l Z M m M m m C m m N A S i 9 M v n v B {  .a.y.| 8 p.j.*.} G Z A D V t V M Z M W W ( ! ..8 R l f u 4 4 4 5 < ",
"u M N S S S B S M m M m m M m C m m c A S A v o.v p n v v { y.b.v.[ N s.N -.G G D C Z z t l W W / ( W ( [ ..8 Q l f 5 4 4 4 0 - ",
"u M m m S B M v m M m m C d d k m d k S N S u .. .v u n B  .c.c.b. .r.} | *.G D Z k Z z t / M / ( Q W Q ! x.f W W f 5 4 5 5 5 < ",
"u N v m N M } >.k m c k d m c m m d c S N C p ^ { [ n B B t.b.s.a.r.-.S G G G A D C D z t / / / ( / / W ! C.f ! l g f 5 5 5 5 ; "
};
