/* XPM */
static char *result[] = {
/* columns rows colors chars-per-pixel */
"64 64 32 1 ",
"  c #C4BF95",
". c #C9C296",
"X c #C5C299",
"o c #CCC69D",
"O c #CEC89E",
"+ c #D2CA9E",
"@ c #CDC7A1",
"# c #CFC9A1",
"$ c #CEC9AE",
"% c #D2CBA2",
"& c #D8CFA4",
"* c #D4CEA8",
"= c #D7D0A6",
"- c #D8D1A5",
"; c #D7D1A9",
": c #DAD4AB",
"> c #DED8AF",
", c #D6D3B0",
"< c #DCD7B1",
"1 c #DED9B2",
"2 c #DEDCBA",
"3 c #E0D9AF",
"4 c #E1DCB4",
"5 c #E1DEB9",
"6 c #E4E1BD",
"7 c #E8E3BD",
"8 c #E5E3C2",
"9 c #E9E6C3",
"0 c #ECEAC6",
"q c #EDEAC9",
"w c #F3EBDA",
"e c #F6E9E4",
/* pixels */
"######*::::*%%%%%%:4<3:%%%%+%#%%%%%%+O&;;;:;;;;;;--%%%%+%%%%%%%%",
"##%###;::::-%%%+%O*34<*+%%%%%%+%O%%#%%&*;-&&;;;:441;+%%%%+%%%%%+",
"####%#:>>:>:%%%%#%%%**%%%%%%%%%%%%%%%%&;;;;&%&;44241*++OXooO#%%+",
"####%;::::::*+%%%%%%+%+%%%+%+%#%%%+%%+*;;-*%%%%%::11*+O....oo%#@",
"##%@#;::::::-%%+%%+#%%%%%%#%%++%%+%%%%%-;;-%%%+%++=%OOXX..X@3,,*",
"####%:3:::>>:*%%%%%%%+%%%+%%%%%%%%%%%%;;;;;%#%%%%%%%%.o.ooX&<<5*",
"####@;::>::::%%%O%%%#%%#%%%%%%+%%%%%;;;-;-%%%%%%%%+%o....o@155,%",
"####*;:::::::-%+%%%+%%+%#%+%#%%#%+%;::;;;*&%%+%&%%%#o..O  *685#%",
"####;:>::>::1-%%%%%+%%%%%%+%++--::33:;;;;;;*&&;*&#%#%   o:2226,%",
"%###%%::::::::%%+%%%%%%%%%%%O=>6444:;-;-;---*&:;&&%&& ++*461<53*",
":*%%#%%::::>::%%%%%+%%%%#%#%%=->3>:&%*-=;;;-&::-:&:&%%%%&*38<3<;",
":::;#@;::>::;%%%%%-%+%%+%+%%+%O%+%%+%%%*&-*;:&::;:&%%%%#%*&3:*;;",
"::::*-::::>::-+%%:>-=%+%%%+%%%%+%%%%%%%+%%:-:::*::*%%%%%*;:**&::",
";;>::::-;;:::;%%%::::*%%%%%#O%%%%%+%+%%%%%*%%%&:&:%%#%%+&&:;:*&*",
":>::;::::::::-%++-3:::=+%%%%%%O%+%%-*%+%%%+%%%:;:&&%+%%##%&%%&::",
":::;+%-*:3>::;%%++->:3:O%+%%%%%%%%;::--O%%%%%%&::;&#%%%%%%%%%*:;",
":::*%%+%%>:>::%+%%%3-:%%%+%%%O%%%33&::&@%%%+%%&:&:&%#%%%%%%&&*&:",
"2>%%%%%%%:::::%%%%%%%%%%%%%%%%%%&&::&:%%%%#%%%*&*&:*%%%%%%#&&#*:",
"8:+%+%+%%::>::%%%%%%%%%+%%%%%%%-:&::3&%&%%%%%#%@%%&&%%%%#%%%%&&<",
"1%%%%%%%%:::>:%%+%%%+%%%O%%O%+:-:473:3&&%%%%%%%+%%%%&;*%%%+%&&:<",
"%%%+%%%+%>::;%O%+%%#%%%%O%%%%%%::79&&**%&&%%%%%%%%%%&*;&%%*;*;:<",
"::%%%#%%*::-+%%%%%%%%%%+%%%%%%%-*55;%%*&%%%%%%+%#%%%:&;&;&;;;;&<",
"<*O%%%%%%%%%%%%%%%+%%%%%%%%%%--*95:%%%%+%%#%%%+%%%%*:;;;::&&;&:<",
"*+%%%#%+%%%%%%%+%#%%%+%%%%#-:>#<4%%%%@%%+%%%%@%%%%%&&:;;*&<<:::<",
"+%%+#%%+%%%%+%%%%%%%%%%%%&%::=;5:%%%%%%%+%+%%%%+%%%%:*&::**<<33:",
"%%%%%%%=%%%#%%%%::*%%%%%:::3:%2<%%%#%+%#%%#%%%%+%%#+&*&*&:*@:<::",
"#%%%%%;<:;%+%%*:14;&3*#&:;44122=%%%%@%%+%%#%+%%%%+%%%%@&:&:&&<:<",
"%%+%%;::,%%%+*:1134:&#%&:<11241=%%%+&&%%%%%%%#%%%%%%%%%&*:*<::<<",
"%%%%%%;::=#%%<41313*%%%&::2124=O%%%:3&#%%%%%%%%%+@%%%%%%:&&<:3::",
"Xo%%%%*&=%;:;141433%%%%*::41<-=+%%:3<%%%%%%#+%%%%%%%%@+%**&:<3:*",
"XXo%O%:1::;*==::<4*%%%%&:142,O=%%:<<<%#%%%%%%+@%%%%%+*%+%%+@&:3+",
"OXX%%:4411:;#%%%#%%%%#%%%;124:%+:<3<33&%%&&@%%%%++%%%+%%%++*+*++",
"+OOO%=11111-%O%%%%%%%%%%%-::--3-333:3:3::3:#%%%%%#%%%%%%%+%%%%+%",
"%=OoO:4>411>%%%%%+%%%%O%%>>>-+-3:%&:::&:<<:%%%%%+%%oO%%%%%%+%#%%",
"%%=Oo;<11>11-%--%%%O+%%%%>3----3*+O:::::3:%%%%%%%%%o@%%%#%%%%%%%",
"%+%#%;,:111>1<14-%%%%%+%::3-----:&+&-:&3<:3:%%%+# ooXoOO+%%#+%%O",
"%%%%#=,,;,4>141>1:%++%%->>:--++-&::-:-3:3<3*#%%%  o X#Oo#oO%%#%%",
"#%%+%%,;1244411>6>-=+.+.O:%++++++-:::::353<&#%%..     XOooO#%%+%",
"##=#%,<54551:1>>1>---+..++-++++++&::*33:53<:%%%O    X OOo@@O@@O+",
"%=#:,,<5525;->>>-----------++++++&::3<<35::&%+OO#@%XoOOOooooooOo",
"+%;;$=<21551>;-+-----------+++--33:3<<3<3*3%%%#%##O*##ooo@Oooo@o",
"%;;;O=285551----------------+++-&-:3<3:3<%4*%%%OOOO####ooo@oOooo",
"=;##O=2q0651--------------3+++++&:3<3:<<3;55%##oOOooOO*oooooo@@o",
";;#=%O$eq651---------------++-++&:3:<<33;&54%#OOOOXOOOoo@o@ooooo",
"%=%%#%*w086:-----------------+++%&:33:<3&*4&*&#oOOOXoooo#ooooOoo",
"%O%+%+;08051---------+--+--37>--:::::33:*&&::%ooXOO#oooooooo@ooO",
"%%%%+O#27q754>-------------433>-::-333*&&:::% #@O#OXo@#ooooooO@o",
"%#%%%=+$9002::---------->-343>---:3:**&3:;&%o@@oXoo#o@@oo#oo@ooO",
"%%%%%%#=582<;;,:>-----::;155433>-;:--:>:-:-OOOOO###OoooOOXOooXOO",
"%+%%%#==12<:,:::;;;;:-;:>15464>3>>->>:--::;-%OXOOX#XoooOX;ooOOOO",
"%%O%=-,;;;::::,:,>>:>:::>6444>->>:---::::--:,%%O%O#XoO,;,;oOOOOO",
"+%%%::,<::,:**:::;,;;>:;>4---+++;-%>:--:::::->->>,##o%:>>;ooOXOO",
"%%%+=:<;::,-oo#%:::,151;>>;>O++O;-%-::----::->--,Oooo,>;,,OOXOOX",
"%%%O=:;::,:O#%oOO=:>111>:-;-++++-:++--:::::-::;::Ooo,>,>>,XOOOOO",
"%+%=:;,::,:.%=oooO;,,:;:>>;+O++++--+--:----::-:--O,%:>>>,OOXXOOX",
"%%=;::::::,:*oOoOoO>:;;;--OOO.O.O+++-::::O-::-:>;->>::,::;,X#O@O",
"O-;,;;;>::::;OOOOoo%:;*O%-..+....++++->->-O;>-:-->>:,:,>;;>OOXO;",
">::,>,>:::::,*oOoOo*:,==O....+...+++-::--:--;::-;>,>>>>,,::>;;;>",
",;:>;>;:,:::;OOOoOo*:;*=....++...O++->:->;--O--:::,>>:>>>,>,>>>,",
"::::;,;>::;,OoOoOOoO:;*O.....+O+++++--::-:%OO%O---;;=-;,>::>:,>>",
"%;>;::,,:::,*oOoOoo%:=;O...o++++++--:-:::%O%;OO%O%=OO%=O;>>>>:>;",
"%%==;:::,:::*OOOoOoO=**O.....O++++--4>-:;%%%O%%%%%%O%%O%O:,;,>,;",
"%OO%*;:;::::=%XOOO=:;#*O.....+++++-46>-:;OO%%O%O%%O=%OO%%%>,,1;O",
"%=%%;:::::,,=OOOO;555,%--....+%+++-3::-:>:-O%%O;OO%O%%%%%OO=;;%%"
};
