/* XPM */
static char *result[] = {
/* columns rows colors chars-per-pixel */
"64 64 73 1 ",
"  c #1E1C21",
". c #231F24",
"X c #252124",
"o c #282426",
"O c #2A272B",
"+ c #2E2A2B",
"@ c #322D2E",
"# c #37302F",
"$ c #352F30",
"% c #363130",
"& c #3B3534",
"* c #3F3836",
"= c #3E3939",
"- c #423A36",
"; c #453D3B",
": c #483E3B",
"> c #47403F",
", c #4B423E",
"< c #51453F",
"1 c #55483F",
"2 c #4D4542",
"3 c #4E4845",
"4 c #4D4648",
"5 c #4F494A",
"6 c #514743",
"7 c #544A45",
"8 c #5A4E46",
"9 c #564C49",
"0 c #594E4A",
"q c #5E5047",
"w c #57504D",
"e c #5D524D",
"r c #574F50",
"t c #555056",
"y c #5E5450",
"u c #5F5852",
"i c #625446",
"p c #62554C",
"a c #66594E",
"s c #685A4F",
"d c #615652",
"f c #655A54",
"g c #6A5D54",
"h c #675C58",
"j c #6A5E59",
"k c #6E6056",
"l c #6D625B",
"z c #716256",
"x c #72655B",
"c c #75695E",
"v c #79695E",
"b c #6E6462",
"n c #726661",
"m c #756A63",
"M c #7A6D64",
"N c #70676B",
"B c #776D68",
"V c #7A6E69",
"C c #7E7166",
"Z c #7D726B",
"A c #726A71",
"S c #817266",
"D c #82746B",
"F c #85786E",
"G c #8B7B6E",
"H c #817670",
"J c #877A70",
"K c #8A7C72",
"L c #8E827B",
"P c #92857A",
"I c #96887C",
"U c #9D9087",
"Y c #A29588",
/* pixels */
"jmxVSxfdf<0d9:$6hdhddtdyr00ddefDNMbje7dpxgjxmj:,blmnjNmjxbjbrddd",
"eeelmfdhjfggmmy:hhhhhhhrre0yb0lDjhdlj0ghdgdddxh6jge64yfeee0yddee",
"y0dyeddgjjgeeVfrhdhhhjhdr0rej6ejyeydgdgssgshdjn9gfey0dbd00yyyere",
"eyfyfffjljgfe040hdhhhjjdydsdy:0jgfdfggghjjgsszj6jddd0090000yddde",
"0ee0djjljjhddp9yhdhhjjjdddfdS40xzhhggggkxggsff02fffd0000rrrdddde",
"0e08djljjggppd9dbddhjjjhf00jS:0nxjgjkjjxxgddpgh6syddye00eyeeehye",
"0ee8djjggjdpdj05bhdhjjhhdy0fje-bxgggjjkxggddegedSjfpyyy0eeeeyfyy",
"0efddfjdhgddhj0>rhthjbljgdyyhh 6ngggggkxzgsqqs<:jy0ddddyyeetydde",
"770e,2e9:::792;@+.$40re442222:.@dddgaafhgdq87q-#0::6eer0rr05000e",
"007990:4%0khpddfbmx;9jjzgzzphcGso27-,ga,qddp8077exjrjjgmg969dyye",
"lfdfjxf6&dxjjjffnjn6gSzxxvSSvvSF7KKg:<x7ggggdipppjxsjMSDDSfhmjNl",
"jepedfsj>9jghfy040j5zSggsszgsssGIGSxx0;7gihhqppqqq8dyggjhnejfedy",
"ddpedhpf27fdgg0de0hrxxzsgkkssksDGxvMvx;,MggsppqppqqfdddjSg0dee8e",
"pfde0d0d62fpdddfy9drzxsssgssgkxxzvvzgia2Sxgpqqiip80qqppsjn4gfeyy",
"ddd0ye0d:-8dped0fnV6gxsssssaszkzxvvvzzx2xxsq8qqq88888phhyj<dbzdd",
"00yp8lj0>djnnhf9dVK9mSsssssasgkzxxzxgSM7xzpi88qqqq80ydgjgj68Nnmg",
"geepe9909jfdey06900hDmzssgsssggzcxxkskD7szpiiqapqsppfgjjdl00nyhx",
"lfede99e9dfpddd90dfdxkzsissaskgzxxkfgaM78gqp88pddsdghhjjfl40lddd",
"0deee099:edeedd0eyddxxzgsssaskkkkkkkkkc%fjzp81ppfdgggjddhg<:gfsf",
"dype0000*0eeeefgjfj0zxmxxaiskzkzxkkkkkg@8ppaazdpgghgfffdfhy-fjgf",
"y086::66%;497edq009<skdpxaqqaqe7iks,7e9X#:qqy6+;906606060::O8jpd",
":68pd0dh2qepda0-87:qksq8qeq79q>5efxuwhBu67-fjjhfz9e:0hjzjhee8gj:",
"8qqdssgq1izzzzkk8ezzSvzgkkxksC9kmlmZZJKmBB;fjmVNKDbe-jNznxzzdgS:",
"88qq887718ppip8gz7zzskzzkksaqau7uwukyhlbBh;dbmjhfDSdO<zggggsppq:",
"qpq881188psappgfj9xxvzzzvksauieqfuuhuueyhl;hlhjbjhZd+,kkgksppdd<",
"qdq881718igaaafgj8vvvvvvvsaaaiq9uflffhdeebwyhhhhlhje@;kkgdpppsp:",
"8qp88q1qqpaafaflv7zSvsssaaaaui87eflhhuffebhyhhfhhhk3=uwkxggkgkp:",
"pqdqqappppafaafjx-8siasssssiqu87fehlduufdyyyhdfdfdle>ukkxxxzlzd7",
"dpfgpakiiagaagfly$&0aassksssa9w3lhfhhuuddh9yhddfdyh0*798sklxxke7",
"777087;,787787q35&+:6<77q17,&>-%5wwyt79ye92,e:270Bb9,,1k7-%5777>",
"Sxly#qge0090kllyfxxbdp&0<,uweww37efhBb=ujfddVd8xkMMxkkcZxmmeuhll",
"lxDLehxfppeeyddljnjmxMj,8wkfklkllle9eZ97dddelf,gaiigkkkkkccffful",
"hhdD0sg00e079440depglll>%:djyy9ww9997yhyddddgy:spiigkkkkkkuuuufk",
"jjbS0efedf4909000ydfxclJl&fhydy9w999yryydd00gj-ssiiskkkkkkkuaflu",
"jjjDhdbddh4009997ryuglxxV:hydyyyw7790yyyfd0eed$:iiiskxkkklxkuful",
"hjhDbed0049097059eaffllkl2dyhyyy977999yyhye0dy-<qiisxxkklxxkffhu",
"hhjSh9yre099600eydhdgklll7uhdddy05999rydfd0ypp-siiszvvxxcmcffluh",
"hjhNSrdre09900eydhgglxlllehhhudyy00yyydhhfd0pp-iisszvvcxlmxkffhh",
"hhhlbydrr099eyddggjxxlllb9jhhfuyy0yrryffffjffg,iiisscccxlclkuffl",
"hhhlbdhdd99r00dfhhlxxxllb7bhjhfyyyyyydhfhdmllj,asiizxxxkklkfuuhu",
"ffhxd9hdr50eeeyfghlxxxllm9BZBuffyyyyydhfhhfnl9-iiiusxxxvxkkeweaa",
"ddhjr4rdfyy0yy9yhgzxmllllwhly9wydyyydfffdddnf%:7-1qaikxguwuweueu",
"44<44:<:99>>:9@-8edffuee9*7959426,95449ydgjf4:4yee7qe2378><<,7w<",
"jjbSSDKd&dd0yyyf8eZxfldlgfZV7da9778ytAbjhxBVmm4BlklflZw9MkuMxlxl",
"dddhhSUb0ngdfdah00ljgfyyy9mb2q8797ee5lldfyyydZyjljgfpmZ7ffufZleu",
"yyyey9HD>d09908h0qhjfyyyyhjy7q0788ey20yhdddhhy0jlljgfgmeffguuwee",
"qydddhyNyy0070dddflxdyyyehye8p9qq0eh:7hudhhlbhrljjjhffb9lfffueee",
"yyddfhhzfd0y8yfdffmxyyeyyyue7p8008pg29ydfybVlhyjjghggfn9lfuaue9e",
"qdddhbjnh00yddfddxxgfyyyyydd,eqqwqelwyddddbhdddjhgsfffnyhffydydy",
"ghhhjbbnhf0yddhdjndddyryy0hf,qqeqqqf9wfufyydddflggffsgj8gffdyhjd",
"0rggjnnDhyedgdappld0ffdydfBh*pqweqee23dwyfdfdd0lffjjhd&:hdffdhhy",
"..4dyr0d;;9872797797699yy09&>79fw97w2&4e2404rt46:;0dd9-6fh9572&%",
"V9@+4NDMxcMMSnd78dxVjObPJVMSVyqcmg8ska7lngdhffjdkSMxDVggxGayNlll",
"xmx7tKKGSDDMxMDfdssMZ9KPxjVYD2<gkkaqeg0ybBmddeeeejzpsssppCekVCll",
"dsneeKSMxvzga8happaflecjkzjDF9,xkkkfqpqddjjeedeeyepppsgspk2yfpup",
"pqjp4KJmxvxzgg00dpaklelxxlkdMl,gfakkgfydhdddeeepddpppsssaxqeggaf",
"eqlj.jDzzxxkkz6-appggpzllllfcl<aakkfsa7uhfdd00dddepqppgzkzeulgfz",
"eqxx:ejpggkjkmv<pfpdhjMlkllukk3aaiakkk72hfddydpdqqeqqpkzkvqpxgga",
"egxggSpsggzzzh7-pfpfvymlllkllu8sagaksk9uffddddddde078pszkx1pxfpp",
"dzxhdxgggggzkk8$7eeee9dffeyuku7ssaaaui8uffddddddq0788qsgsi,mcfsp",
"zjmh<dkjgggkxjg:llhbCVNZllmlmu7aassaqa7effddddddq97888dgpkpmSggf",
"xxSj0ssggggsgsg:hlhhfmlyfllflu7auqaiik,ugdffffdyy89888eppgcdmggg",
"nnNl9xxjkssfpsd9hhhhyeeeeeffkw>qikkufk>2yye00erdpe8d8eepqpjee0dg",
"66j6-q0<<:;-&779ffhdyeyee0wlkw&>,w,,==>#;;;-$$$-<<608:6998,@@90:"
};
