/* XPM */
static char *result[] = {
/* columns rows colors chars-per-pixel */
"64 64 110 2 ",
"   c #2F2727",
".  c #342D2C",
"X  c #3A2D2A",
"o  c #3F322F",
"O  c #3D3533",
"+  c #43342E",
"@  c #4E392F",
"#  c #443631",
"$  c #453A34",
"%  c #4B3D35",
"&  c #453E3A",
"*  c #4A3E38",
"=  c #533E34",
"-  c #4E4037",
";  c #4C423B",
":  c #524136",
">  c #584337",
",  c #53453B",
"<  c #59463B",
"1  c #54493E",
"2  c #5B4B3E",
"3  c #614C3F",
"4  c #4E4641",
"5  c #4E4841",
"6  c #4B4748",
"7  c #554C43",
"8  c #5B4D43",
"9  c #574E48",
"0  c #5B4F48",
"q  c #5D5145",
"w  c #56514C",
"e  c #5D544A",
"r  c #5F584C",
"t  c #574D51",
"y  c #624F42",
"u  c #645344",
"i  c #6A5545",
"p  c #6E5947",
"a  c #63554A",
"s  c #6B5749",
"d  c #64594C",
"f  c #6B5B4C",
"g  c #705745",
"h  c #715947",
"j  c #735D4B",
"k  c #785F4D",
"l  c #655C51",
"z  c #6C5D51",
"x  c #655D58",
"c  c #725D51",
"v  c #795F50",
"b  c #6F614F",
"n  c #74614E",
"m  c #7A624E",
"M  c #6D6154",
"N  c #6E655A",
"B  c #6F685C",
"V  c #736354",
"C  c #7B6552",
"Z  c #766856",
"A  c #7C6A55",
"S  c #746559",
"D  c #7B6659",
"F  c #756A5B",
"G  c #7B6C5C",
"H  c #7C705E",
"J  c #6B6665",
"K  c #6F6860",
"L  c #766B60",
"P  c #7B6D61",
"I  c #756D6D",
"U  c #7D7163",
"Y  c #76716D",
"T  c #7E757A",
"R  c #816653",
"E  c #826B56",
"W  c #886E57",
"Q  c #806759",
"!  c #836C5A",
"~  c #886F5C",
"^  c #857057",
"/  c #85725B",
"(  c #8B735D",
")  c #8E795F",
"_  c #91765E",
"`  c #927A5F",
"'  c #846F60",
"]  c #847262",
"[  c #8B7461",
"{  c #857867",
"}  c #8C7963",
"|  c #847669",
" . c #867B6C",
".. c #8C7B6A",
"X. c #927763",
"o. c #937C62",
"O. c #987E64",
"+. c #937E6C",
"@. c #978165",
"#. c #998367",
"$. c #95816B",
"%. c #9F8B6D",
"&. c #948674",
"*. c #998B78",
"=. c #A18B6E",
"-. c #A58E74",
";. c #A28F78",
":. c #AB9174",
">. c #A1907A",
",. c #A9957E",
/* pixels */
"O t I x r r r r M O O B B B B M S M O N P S N S S P P P L K c x a l t c D x X + 3 3 3 3 @ @ 3 3 3 3 R R > @ 3 3 m = 3 h f p / d ",
"& T J e r l r b H B B H B B N Z V L 9 M S S G ' P P ' P ' P D c S ' D D | +.# 3 R R W W > 3 R R W _ W O.W 3 W R ( W R E E E [ ] ",
"t J e d r r l l l B B B Z B Z M z S M z S D F G G F D D D S D S S S S S x +.a i k k m R 3 R R k R 3 R R _ k m m m C C m C ! ! S ",
"5 M l r r r r l l N B B B N Z N S V c M c S S S S D S S L D S c D S D S Q ' s 3 g g k k R 3 3 m R R R R W k R R m R R m A A ! A ",
"9 N r r r d l l M M B B B B Z N V M V c V z c c V V V S S c S S D S v D Q | y > k 3 m k k 3 h h k R R m m k h k m m C C C C ~ A ",
"5 M r r d l r x N B F B Z F B Z M V N c z V z z z z z c V S S D S S S L ' | , + > 3 3 k 3 h m k R k m m R k k k C m R R R A ~ D ",
"; r r r M r M M B B B B F F F N N M N S V z V f s s l z S D S G P ' D ' ' +.t @ 3 3 3 m R 3 k m h k k k k k k k m m m C C A ! D ",
"; r r M M N N B B B L F U H F Z S V V S M V c z s f s z c D P G P P P ' [ +.s = 3 m R 3 R R m m k k h k h k h k j m C C R C A Z ",
"; r r x N N N B F F H H H B B B S S N S M z z f z f f c V D D F D D D ' | +.8 1 h h j j n m m m m m k k h k h n k k m m C A C s ",
"& r r M N N B B F F B L H M 1 Z V V V M z j f z f f f s z M V S S ' L P ! } - : i i i g h h g h k k h h h h p j g i h k n b n u ",
"O & & 5 1 5 w r w 1 w r r 1 $ ; 8 7 7 7 9 ; $ ; 9 8 9 9 & 7 7 , 9 0 8 9 z M 1 : < 2 3 8 , , 1 2 2 8 q 2 - - - : : : % % * * : - ",
"B B B & . M P F U 7 M { U F F B F F F F S D 0 u S D z ..e f H ; z D c c H U Z b s a i i q 3 u n V A H / 2 $ u u u A 1 7 z l l z ",
"F L  .B 6 Y F F {  .F H H Z N n V S V Z S c P s u a a P l e *.F z G Z n b d p d u 2 > > < 3 3 u i d i i f p u u u f 8 e V M M F ",
"F U U B w B B F F U F F H B n N M V S S S c c x a a y c d u ] &.V Z b b f p b d u 3 2 2 < 3 u 3 u u p 3 d b 2 3 3 s , 7 N M B F ",
"L B F B w F F H H F F Z Z Z M V V V S S c c x s z s a z e d b V V n f f p f f p i u 2 3 3 3 u u u u u u u 3 3 q u p , ; F N S F ",
"L L L M w U F F F Z Z N Z V M V S V M S c z s s s s t s 9 p V V f b f f d p p d u 3 3 2 3 3 u u u 3 u u u 3 u 3 3 f , O N F B B ",
"L B H r w B Z F F N V V V V c V V V V V z f f f f f a s t s V b b f b f d p s i u 3 u 3 y 3 u i p u 3 i u u u 3 3 f e # e N N F ",
"H F U r 1 N Z Z Z Z V M V M M V V M V M z z l f s z l z 9 a f f p b b b b f f u 3 i 3 u y y u u d u d i u u u 2 u f u 4 M x F F ",
"B H U M ; Z N Z Z Z V M z f z f M z V z c z l s s l f f 7 u a f b f f p p d i u u i u 3 y u u i u d i p i u u i p V 8 l F N M B ",
"B F H r 1 b N Z F Z V b f V c V V c c V c z c s z M M N 9 y l z b b f b b p i i i 3 3 u i u s s p u a p s s s p b A a 7 M d l M ",
"7 7 r ; O w r r r q 2 q r 2 2 1 8 8 q u 9 8 8 8 1 8 r 8 O 1 2 1 1 q q 3 q 2 1 : : - , : , 1 < 1 q 1 # 7 < 8 8 8 8 s 7 O ; 4 w 7 ",
"; ; ; 1 7 1 1 1 2 b Z q . $ b b c &   O 7 9 9 0 e w . - 3 r 2 r a u a b 2 . * q u u O 7 e 9 e d M M r e 0 . # 9 9 9 9 l & O & ; ",
"q q q r 3 b b r b Z A A 1 b A @.>...O e F M c D b @.1 - F H A A / / / / ..u m / E ..8 M M M N M M M l l L 9 9 q e l r x F & e e ",
"7 1 1 1 1 r u r 3 b b A b b A A ..,.1 e d d a l b H N 1 Z b A Z A A A ^ } / A A A ] 7 z M z l l l r e 7 d N 5 9 0 0 e e L w 7 7 ",
"7 1 w 1 q r r r b b b b n n A A / >.8 q d d b b b b V b Z n A A A H / / ^ ^ A H H E $ a N d l e r r r 7 1 w 7 7 7 q q w r r 9 9 ",
"1 7 1 2 2 2 3 b b u n b b n A A / $.; q d d d d b V V b Z A A A ^ ^ / / / H ^ A E F $ N M d l r d r r q 7 7 7 7 7 7 9 q e q q 8 ",
"2 1 w 2 2 b 3 b b b b n n A A A H } - 8 r d r b b V Z Z A A A ^ ^ ) ^ ^ / ^ ^ A ^ $.7 M M d l d r r r r w 1 7 7 9 q 9 q q q q w ",
"q w 1 q r 3 b b b n m m n m A A ^ $.q 7 d r r b N b Z V Z A / ) ) ^ / ) ) ) ^ ^ [ } ; l x l r e r q r r r r 9 q 9 9 9 q r r r r ",
"q 1 q r r p b b b n A n A A A A H @.d 1 r r r b b b V Z Z A A ^ ) ^ ^ ^ H ^ ^ ) } { ; l l l d d r e r r r e q 9 8 q q e r d a q ",
"r r 2 3 3 b 3 b n n n n A A A A H } q 1 q q r b b b b N V Z A ^ A A A A A A A H / } ; e l l l l d d e e r r e 9 q e e r d d d r ",
"b 3 r b b p p b n n A A A ^ A A A / 1 1 b r r b M M b b b Z A A A Z A A A A A ^ / } ; r M l l l l d r r r r r r r b f b d b f b ",
"1 1 1 2 2 1 1 2 2 3 3 b p r p u u p ; O ; 1 1 1 1 8 q q q q q r 2 r r 3 d u d u p a . 7 7 5 9 7 7 7 7 7 5 ; 1 8 q 9 q q r q q 8 ",
"y u y # # 3 3 3 b + 2 3 3 b b 3 d b b Z b b b Z N ; r b r r r d b b b Z V n b Z 2 - r 1 2 1 < 2 1 - o ; 2 i ; . $ 1 2 q 2 2 2 u ",
"R A [ A 1 A A n A b 3 A n n n n p p p p b p b b Z b 3 r 3 u u b b b n Z Z A m H V : C n n n n n m f , f n ( ! 1 i n m E A E E W ",
"A C E / - n m n n A p b b 3 m p u i p u u r q p b r 2 3 2 r u b b d n n n Z C A 3 , n n n b b f A / V n j f ( p 3 p h m m m C R ",
"R W ^ ^ + b n m n A m 3 p p 3 3 i u u 3 u u r p b 3 r 3 r u u r b b b n n A A A 1 1 C C C m h b j } m f b n m 3 2 h n m m C R E ",
"W E E ~ # p n m m n b 3 3 3 n n i u 2 3 u q u q 2 r r 3 3 b r b b b n Z Z A ^ Z 1 - A E ^ E m n n V n n j n h n p p m m m R E E ",
"E C m ! : A A m m m n n b 3 3 3 i i u 2 2 2 2 q 1 2 2 r r u 3 b b n A A A A ^ A : 3 / ( ( / E m C n m n n h h n h h m m A m R E ",
"W R R j + n m A A m n h p i i i p p i 2 3 3 2 r r q 2 r u d d b b Z A A A A ) %.n , ) ( / / / A A m m m m n h h h m m m R m m E ",
"R R C j - m A m m m m n n p p i 3 i u u r 3 2 3 2 1 1 3 q p b b n A A / / ) ) %.V u } / / / W E C m C C m m m n m m m R R R R ^ ",
"C m R c $ m C m C C C m m n p p p 3 3 2 2 2 2 2 u 1 q u d b b b A A ^ ^ / ) @.%.b u @.^ / / W A m m C C m R C R A m E m E E E E ",
"m h k 8 % R A m m C C C m m j j p p u u p u u u d r q d p b b n A A / / / @.@.-.b 1 ^ ^ E W E A m C h h h k v R m m C m m m m m ",
"< , , $ - 8 2 2 2 8 8 < q q 2 8 2 2 2 : $ - : 1 q O O - - 1 - 1 1 2 1 3 1 q 2 u $ o $ - 1 8 : % # % ; , , 2 = 8 : - - 1 u u 3 2 ",
"7 u s a s f z s s f c < f C n n n b b A H 7 b Z B L M O q H F O b / H @.$.) ) @.O.@.Z 1 -.=.) R h 8 ( X.Q R R ~ A - 2 H ! G Z m ",
"a u a s a s f s s i f 8 3 3 n h n h b n H r b Z M { $.; b Z $.b @./ @.@.@.@.@.#.%.-./ , o.o.O.` X.X._ X.O.R W X.+.s ' ! D D c D ",
"s a s s s s a s s i u < n n h n h b n n b b Z Z Z Z L 5 b M M H H H @.@.@.@.@./ ) o.n : _ ` ` _ ( _ _ W W W Q Q ;.D Q Q D V c c ",
"s a a s s s s s s i i i h h b n n n b Z Z Z F F F F P 1 M N Z H / A @.@.@.@.@.@.( ( j > ( _ W W ( _ W W W Q ' v ' Q D D D v c c ",
"s s a s f s s s i u i i p p p n n A A Z H H F F F Z U ; M N Z H @.@.@.@.@.@./ / W ( i 2 ( W W W W ( E R Q ~ Q ' v v D D D D c z ",
"c f s s s s s s s i i s h h j c m C Z C F F G G G G U ; b N A H / ) ` @.@.@.` W W Q i < _ W _ _ W E E E R W W ! Q Q Q Q Q D v z ",
"v c z s s i a s s s s h h j j v m V C F G G G H H H U $ b G H / / ) @.@.@.` ( E _ X.Q > O._ _ X._ E E W Q W Q ! ' ' Q Q Q D v c ",
"v S c c s i i i i i i h h j v C n C C A G G H U U G | 5 d F H ] { ) ` @.) ) ( R O.:.R > _ _ X.X.` ( W R R R Q ' ~ ' ' Q ' v P v ",
"c c v C c s s i i i i h v C c C C C Z G G H A V U U U 5 M V A D / / ) ` ) ( W E R O.Q = R W X.X.` _ W R W R Q ' ' [ [ ' Q Q P v ",
"z c s s s a a y y u i i h j c j j j C Z F D } Z d F L $ f M c V H G ^ ^ ~ ~ R k g k s 8 ' Q Q Q R m v v v h s c L v v Q v c z s ",
"* o , 9 0 , * , < : 8 q u u 8 a d d q e d 8 * ; 7 7 7 & & , 4 * 8 q e a t s : , y y 8 = = > < > : < = 8 8 a y u y s c s $ y y t ",
"' + v ' v c c C G C } ^ / ( ] [ / H Z Z U ] 7 d S S F F U P U . z c C ! v [ y y v h k j i v Q v h j v R v Q Q ! ' X.+.+.v ' ' X.",
"X.8 L c c v V V C A A A A A A A Z M b b b H F f f M M M U P U 4 s f f V v v y = g i y y 3 3 i g j j v D v R R v v ' Q ' X.~ Q Q ",
"! 8 C c V j n C n n A A A A A A A Z M b V b Z N V Z S M z z L 0 0 s c v c v a @ g y 3 3 3 3 g s j v v v R R Q Q Q Q [ [ ~ [ ~ Q ",
"! * V j j n V V n A G A A A A A Z Z Z V N V Z Z F F F V N c L r 0 a s c c c D y 3 3 3 3 3 g 3 s s v v R R Q W Q Q Q ~ [ [ _ ~ ' ",
"D $ 7 7 f Z C Z A Z A A A Z C Z Z Z Z Z Z A F G Z F D Z z z c 0 y s z x s c c s 3 3 3 y 3 s g s v v R Q R Q ~ Q ~ ~ [ ~ ~ ~ ~ _ ",
"' $ z D j V A A A C ! ^ A C n V Z V Z Z Z Z F Z F V S S N l D x , a s s c c c i i 3 3 y g g g Q v Q R Q Q Q Q ' ~ [ ~ [ ~ ' ~ ~ ",
"..# S v j C A A A A G ^ A A C b V V n C Z F F F F F V V x f x l < s t s c c c s i y i i s j v v v R v Q R R ' _ [ _ ' [ X.~ ~ _ ",
".., f l M n C Z A A A A H A A V b b M V V C Z Z A V V M s a s 9 t y s c c c c i s s g g g k k v v v v v Q Q ' ~ ~ ~ ~ ~ ~ ' ' ~ ",
"' , z z M b V C A C A ^ A ^ A C V V C Z V C D F F F S M l a s t < a s s s c c i s g i i j v v v v v v v Q ' ~ ' ~ ~ Q Q W Q R Q ",
"u # 7 7 1 1 8 u q q q u a q u e q q q e e q a d u 7 7 7 4 = t * = t t s c s s i s y @ + i g j j j j k k g j v v v v g g g y y y "
};
