/* XPM */
static char *result[] = {
/* columns rows colors chars-per-pixel */
"64 64 124 2 ",
"   c #0A0000",
".  c #36301C",
"X  c #3E391E",
"o  c #433B2B",
"O  c #45422D",
"+  c #48442A",
"@  c #4D4632",
"#  c #4E4A35",
"$  c #4E4B39",
"%  c #514B33",
"&  c #584F36",
"*  c #524E3B",
"=  c #56523D",
"-  c #59533C",
";  c #565341",
":  c #595643",
">  c #5D5A46",
",  c #5F5B49",
"<  c #635E46",
"1  c #625E4A",
"2  c #666247",
"3  c #65624E",
"4  c #69654E",
"5  c #6D694F",
"6  c #666350",
"7  c #696651",
"8  c #6D6A54",
"9  c #6B6858",
"0  c #716D55",
"q  c #726E5B",
"w  c #757157",
"e  c #75725B",
"r  c #79755D",
"t  c #7E7A5E",
"y  c #777561",
"u  c #7A7662",
"i  c #7C7A63",
"p  c #7F7C68",
"a  c #807B5E",
"s  c #817D65",
"d  c #817E69",
"f  c #858164",
"g  c #888364",
"h  c #85826B",
"j  c #89866C",
"k  c #8C896D",
"l  c #908C6B",
"z  c #898671",
"x  c #8D8A72",
"c  c #8F8E78",
"v  c #928E73",
"b  c #918F7A",
"n  c #959175",
"m  c #999575",
"M  c #9D9876",
"N  c #95937A",
"B  c #99967B",
"V  c #9D997D",
"C  c #A39E7D",
"Z  c #A5A07F",
"A  c #949381",
"S  c #999782",
"D  c #9D9B82",
"F  c #979788",
"G  c #9B978F",
"H  c #9E9C88",
"J  c #A29E84",
"K  c #A29D89",
"L  c #A5A183",
"P  c #A9A585",
"I  c #A5A38B",
"U  c #AAA68A",
"Y  c #AEAA8C",
"T  c #B1AD8E",
"R  c #B4B18E",
"E  c #A9A792",
"W  c #ADAB92",
"Q  c #AFAE9A",
"!  c #B1AE91",
"~  c #B0AF99",
"^  c #B5B294",
"/  c #B9B597",
"(  c #BBB897",
")  c #B5B39A",
"_  c #B9B69A",
"`  c #BDBA9D",
"'  c #B5B4A1",
"]  c #B9B7A1",
"[  c #BDBBA2",
"{  c #B8BAA8",
"}  c #C0BC9E",
"|  c #C1BEA2",
" . c #C0BFA9",
".. c #C5BFBC",
"X. c #BEC0AC",
"o. c #C4C1A5",
"O. c #C9C5A7",
"+. c #C5C4AA",
"@. c #C9C6AB",
"#. c #CCC9AD",
"$. c #D0CCAD",
"%. c #C6C6B2",
"&. c #C9C7B0",
"*. c #C6C8B7",
"=. c #CDCBB2",
"-. c #CBCBB9",
";. c #D1CEB4",
":. c #D1CFBA",
">. c #D3D1B6",
",. c #D3D2BA",
"<. c #DAD7BE",
"1. c #D4D4C1",
"2. c #D8D7C2",
"3. c #DBDBC4",
"4. c #DCDCCA",
"5. c #DFE0C7",
"6. c #DFE0D1",
"7. c #E1E1CA",
"8. c #E3E3D2",
"9. c #E5E8D0",
"0. c #EBEDD7",
"q. c #E7E7DA",
"w. c #EAEADD",
"e. c #F0F2DD",
/* pixels */
"[ ! T T Y T R } | O.&.@.]  . .} ) _ ^ ^ i 8 D E _ ) Z Z Z Z Z Z T ! T Y T ` @.#.#.;.O.` / J h ) { &.,.&.X.( U P P P Y / } O.o.o.",
"` ^ T T T T ^ _ } O.@.#.! ) +.| [ I B k 3 h D E ) U L Z Z Z Z L T ^ ! T / ( +.#.#.} Y _ Y 5 S ' { <.=.o./ Y P P P P P ^ o.O.O.| ",
"/ ^ T T T T ^ ( } O.@.#.W W ;.=.] B 1 z I c n E Q U L Z P P U Y ^ ^ ^ / / ` O.#.#.o.f j h e W ! ] @.+.{ Y U P P P P P ^ o.+.o.| ",
"} ^ ^ ^ T ^ ^ } | O.#.=.K B #.;.Q q F *.X.Q Q %._ L L Z P Y Y R T ^ ^ / _ ( O.+.+.+.U 8 > D ~ ) { +.&.@.R P U P L P Y ^ O.#.o.| ",
"| Y T ! ^ / _ } o.o.#.>.D s J E i A 1.*.*.{ @.%.Q P L Z L P Y R ! / / _ ` | O.O.+.+.| s 9 U ) { &.&.:.=.) Y Y P Z P Y ( O.#.#.o.",
"} ! P ! ^ / } | o.@.#.;.! q p y E +.{ ] { { +.[ P L Z Z Z Z Z R ^ ! ! _ | | @.#.O.#.( m i J %.@.:.&.=.@./ W P P P P Y } #.#.#.o.",
"/ / ! _ ( _ } } o.#.&.&.o.U U I Q %.=.{ Y T ^ U L L Z Z P P C Y ^ ! ! ` o.O.| O.+.+._ U v B [ ` +.=.-.&.^ T Y P P P R | #.#.O.o.",
"` / / ` } _ | O.o.#.&.@.@.=.{ I S )  .! U Y U U P L L L Z P P P T T ^ } O.O.o.| o.O.o.` L c _ [ o.&.&.=.+.W Y P Z T ( o.#.#.o.#.",
"} ( } } } } o.O.+.#.#.@.+.+.[ N I E { ! U W U U L Z Z Z P P P Y T / _ o.@.| o.| O.} | | _ j V [ _ X.X.` X.R P P Y ^ | #.#.#.O.O.",
"} O.} } } o.o.O.@.#.#.#.+.&.[ N I E Y Y U Y U U L Z Z Z P P T Y ^ ( } O.#.@.O.| | ` / } o.P s ^ ^ / o.o.( ^ Z Z R } o.#.#.#.o.} ",
"} +.} } o.O.} R [ @.@.@.@.` ) A I E Y U Y Y U L L Z Z P P T T ! / ` O.@.O.O.O.| } _ / _ o.O.N D R W ( X.X.^ C Y ^ } O.$.#.O.o.| ",
"o.( } o.} O.O.( Y X.o.o.c p E N I D I P U Y U J Z L Z P Y P R ! / | @.O.O.@.O.o._ _ _ / | #.o.V I Y ~ ` ( Y P R ( X.#.#.#.O.| | ",
"} ( ( X.} } } ( | | _ ` v x N x U D x V _ ` U Z Z Z P P L L T ! ^ } o.O.#.#.O.| } / / _ } $.,.| V L W ) ^ P Y R ( X.$.$.$.@.| ` ",
"( ( ` ` } } ( R ^ / _ ! I J I i N I W +.%.T Z Z P P P P P Y T R / _ ( } } O.O.| } _ / _ | @.<.<.Y V Y _ ( Y Y R ( O.;.$.#.O.| } ",
"( ( ( ( } } } ^ T _ ! V J N D k = x X.%.[ P Z Z L L P P T T T ! ! _ } o.} O.O.} / / / _ | #.;.5.) p Y ) R Y Y R ( $.>.$.o.} | } ",
"` ` } } } } R ^ ! ( _ L N N o.W h 3 g ^ ) L Z Z P P P T T T ! ! ^ ( } o.#.O.} ( / / / } | $.,.,.+.e N / Y Y Y ( X.,.>.o.o.X.| } ",
"^ Y Y T R ( ^ R U U ^ D p [ o. .@.N : S ^ U L P P U P R Y ! ! T / ( | o.O.| ` / ^ ( ( o.@.#.@.&.+.x q B ( ! ^ _ @.>.$.#.+.o.o.( ",
"M l l v V L Y U Y ` T h E ) )  .o.W p , z N U U U Y Y Y Y ! ! T ! _ | o.o.} ( ^ ^ ( } O.@.+.o._ N N 8 I [ ! ^ X.#.>.;.;.=.@.^ P ",
"T ! ) W n C L U ) E w H ] ) %.@.@.#.` 6 8 h V Y P Y Y Y ! ^ T ! / _ | o.| ( / ^ ( X.+.O.O.o. .U h h d { _ ( / o.$.>.;.>.@.=.X.^ ",
"9.0.5.#.Q B U ^ I ; q E E E ] o.@.-.=.Y : h B Y U Y Y T ! ! Y ! / ( ` ` | | ^ / ( ` +.#.@.o./ y 8 N Q Q H E ( X.#.=.#.o.H 5.9.<.",
"5.3.,.=.&.X./ U : x Q ~ { Y Y | +.#.,.=.D 3 h U Y Y Y Y ! ! ! ^ / _ } | ` _ _ / o.#.$.#.| B = 1 b D Q ' x F H ` #.#.;.I I 5.e.6.",
"` ! ^ ) X.[ E 8 b { ) X.} T R X.o.+.=.>.o.U s 4 v Y U U ! _ _ ! ! _ ` _ _ _ _ ` #.+.O.o.} m % j N U Y ) N h I E ) #.` y W %.,.#.",
"` ) ^ ) [ I y I _ ) W / ^ P P ! | o.#.;.>.+.` x 4 U L I W _ T T ! / ! / _ _ ( o.#.o.o./ P l a x D J I N b e b ^ ~ ` q h Y +._ ) ",
"W W ! ) ! 0 U &.o.W U ^ ( Y Y R ` | +.#.>.>.+.( d h D L Y ! Y Y ! ! ! ! ^ _ ` O.#.@.o.Y C a a b x j t D J V k y h 9 O D W X.! ! ",
"V n k V y t X.6.X.! ) ` R Y Y ! ` +.| @.=.,.;.| Y 7 j J ) ! ! ! T ! ! ! ! _ | #.O.@.} T m s g B x h x @.5.o.W m z i t k U V k N ",
"0 ; + ; t D ,.,.( ` X.T Y Y T ! ` | @.@.#.=.#.o.u ; x _ [ ) ) L K ! / / _ | @.#.@.| / Y P g s j j n U &.3.=.o.Y Y ^ X._ c i w 8 ",
"L c y i n ) =.` ) ( R Y R R R ^ ` o.%.@.#.$.=.=.u   D [ ) _ Y L Y ! _ _ |  .@.@.| } T P C a a m n U &.<.>.#.o.^ B ` ,.=.+.` R Y ",
"Y Z V V C X.X.| ` ( ^ ( / ^ ! / ` o.o. .+.+.+.+.o.d S ) _ ^ I I T _ | | | @.@.@.} R P J m 2 j J Y [ #.#.,.=.o.( v Z T U W ! Y ! ",
"V V M B ) [ [ [ ) ( ` ` ( / / ( [ |  .} | o.o.} o.{ W ~ ) ^ L L Y | | | | @.@.` T P L m w n K ! _ [ | | X.o.} o.n f U R T L L H ",
"V V c Q >.X.| } ( W R ( X.` ( ( [ ` ^ ^ ` | o. .[ [ U I ! W L U ! _ | ` | @. .^ P C m 7 U / ! ^ _ | | | ` } ( } C 8 L W ^ W U L ",
"B h k ) >.` | | [ Y / | [ | [ } | o._ ^ ^ _ | +.| _ W I I W I U Y / | @.=.$./ l 5 4 f K _ ! / / ` |  .} ` ` } ( T 0 h ^ ) ^ Y J ",
"U k L ( ` X.| X.[ / X.X.[ | X.o.@.+._ _ T Y | +.[ ) ) E J U U L ! _ | _ K u 1 8 v U ! ^ ! ` ` ` | o.| ` ` } } X.` L < y n T ^ ^ ",
"J J ` ` ^ ` o.[ o.o.#.X.X.` ` O.X.X./ ^ R ^ O.O.X._ ) ^ U H B i d B d u A I ~ [ / ^ T R ! ` } } X.o.| | } ` ` X.` R l > 8 h Y ( ",
"t i y c T ( X.X.} O.X.#.#.| [ O.O.X./ ! R R X.X.O.o.X.X.~ * $ : * . ;  .-. .^ T Y Y Y Y ! X.o.X.o.O.| } X.` } } ( Y Z g 2 8 N E ",
"! ! n 4 : 6 h J ! [ #.X.#.o.X.#.X.} ^ ! ! ! O.=.=.#.#.#.z 8 B c d r # A  .! Y U Y L T ! ` o.o.O.O.+.X.( ^ P ^ _ / R n M r 8 h r ",
"^ X.^ R V h 3 O # 4 c ! | | O.X.| } ^ R ! / X.>.$.=./ e H *.o./ B D 1 s ( / ! Y Y Y Y ^ X.| o.o.#.o.o.o./ / T ^ ^ R P P V 3 = N ",
"_ ^ Y R W ^ ^ J h c N y N I X.#.o.( ! R ! / X.) U x 8 X.;.o.X.} B i j h Y W ^ Y Y U Y ^ o.+.+.+.o.o.+.[ o.o._ _ / ^ R T P 8 D ^ ",
"_ Y Y Y R Y T ^ ( X.X.B d h C X.| ( ! ! ! ` ! e 7 i X.<.@.o.} ( ^ f s W )  ./ Y U Y T ( +.@.@.[ / X.o.o.o.` _ ( / ^ ^ R ^ k D ` ",
"! T Y T ! R ! Y W ( ( ^ J h e H [ ^ ! R Y V k I _ $.=.[ @.o.( ( ) L r W +.o._ T Y T Y / o.&.+.^ ^ ` ` ` ` ( ) / ^ ^ ^ ^ _ / c _ ",
"^ Y Y Y Z Z U Y ! ` ` X.O.^ 0 = n c B J B H ` ` X.X.o.O.@.o.` ^ / / B p [ o._ ^ T T ^ / o.@.@.o./ ( ( ( / / / / ^ ^ ^ ) o.o.Y ` ",
"( Y P P Z M M ^ #.o.X.O.X.s $ 3 > e 0 8 J X.R T / ` +.&.;.=.X.^ ` o.o.f E #.^ ^ ^ ! ^ ` o.#.@.o.| ` ( _ / / ^ ^ R ^ / ( X.o.( o.",
"( ! P P P Z ` #.o.| O.#.k + j U ^ X.X.0 y D I W ) [ o.#.;.=.` ^ ` O.>.^ z _ ` [ ( ^ / X.o.=.&.o.| ` | ` _ _ / / ^ ^ ^ ( o.} ( @.",
") Y U P Z T ( ( ( | X.k # c ! X.,.,.X.W e x D ! ) ` o.#.#.#._ ^ } O.#.#.V 8 D ` } ` } o.&.#.#.o.o.| o.( / / / / / ^ ^ ^ D J [ +.",
"^ ! P P P T T T R } N X s [ +.>.,.X.( ( J e N U ^ ) +.&.#.&.` ( } O.$.#.o.D e U +.O.+.+.#.#.#.#.o.o.| ` ) / / / _ / ^ m j / &.@.",
"} ! T Y Y Y Z C L C t s d B ,.5.X.) R W ) B i J W ` +.#.@.} _ } o.#.#.$.$.} m e / @.,.;.,.=.=.#.O.o.o.| ` _ / ` ! B j r ! | &.| ",
"| | } ! T Z C C M n C U X.*.X.,.( Y P Y T ^ V V W [ ;.;. .} _ } ( o.$.#.O.O.o.r 8 W ] =.+.;.;.=.+.+.o.| ( / ` ` r : 7 P | } ] ` ",
"z k C P v j g a s V I Y X.0.5.=.^ P Y Y ) ) ` I [ | | &.| } } ^ R } #.O.o.#.$.O.s I [ E z *.<.=.o.} | } _ _ +.P 1 s J s d d s d ",
"% & & - - - - 8 H ) ) ] =.2.>.X.Y Y P P ( ) [ W j p 7 K | _ _ _ ( O.O.` o.$.>.>.L u z p H W =.o.` } o.|  .U r * 0 V J 4 % : 1 @ ",
" .! K P K J v K | @.@.| ` Y P P U Y U Y Y } / } A < 7 b I _ } | o.#.( ( O.#.>.o.C s j I ) %.,.@.o.| o.o.O.` 0 j J v B a s ) 6.&.",
"3.=.O. ./ Y J  .8.4.@./ Y Y T U Y T Y Y P Y / } | W e 7 d E } | O._ R } O.$.$.^ n K :.W H ) ] #.| ` o.o./ b 0 j C j d z D ~ :.5.",
"2.;.#.} W c %.q.8.&.| ^ Y Y Y ^ Y T T Y Y Y T ^ ` _ W e k U | | L V ( } o.O.o.Y s ..=.( I B x ! _ o.o.U 4 7 A b D D K ]  .) ` =.",
":.:. .| N { 6.w.2.@.} ! T Y P } | ! T Y Y T Y T ) ^ R K k K $.E 8 T ( ( ( ( / m G 4.>.( Y i j V L ^ V e A :.1.*.) ~ ) ) Y U _ ;.",
"=.;.=.~ S 4.w.8.;.@.| } T Y T ^ | } T T P P T Y P Y ! ^ n J / 6 x U P I ^ L m w _ <.;.} ^ l < N L J k j ] -.4.%.} Y P P K P / @.",
"<.1.=.i N  .+.2.;.=.@.| } ^ / / } } / T ^ T Y P P P Y T ^ d o o r r r w f i = * I #.,.$./ P 8 X 8 i t I I W 1.] E P L P J P ! &.",
":.~ 6 9 D [ [ <.:.=.=.@.| } / / T } } T ^ ^ P P P P T T / U q j ! -.-.%.o.+.^ W z ! $.! J Y N s 7 = s W J D %.) U L J Z J U _ :.",
"S = e K E +.#.=.:.;.=.| @.| } / } ^ } ^ } ^ Y P P P Y T / v r ! @.8.7.=.=.=.+.O.K d T % L o.O.o._ U B J N e S ) U P P J P U ~ _ ",
"D b ! /  .|  .;.:.;.@.} | @.| / ^ ^ ^ } ^ R T Y P P Y R K < b |  .{ | | ` } } ` ^ v < d } ( ( | |  .} V 7 a d ~ U U P U Y Y d d ",
"A x K ] | }  .;.:.;.| | #.@.| } } ^ ^ ^ ^ ^ T Y U U B k a s W ~ / ! / | | | | | } / v / _ _ } } | |  .E d E  .! U U U Y T } | <.",
"~ s d d T _  .;.:.=.@.=.@.| | } ^ ^ ^ ^ ^ ^ T P Y m r q 7 n K ! | _ ^ _ | | | O.O.O.O._ / ( | | | | | m !  . .E Y Y U Y T } $.:.",
"~ r D ! T / | =.;.#. .O.| } } } } ^ ^ ^ ^ R T Y C r w 8 g K  .=.| ~ / _ | O.| @.$.$.O.} ^ ( | | | Y < B | ..} T Y Y Y Y ! }  .<.",
"_ j J ^ R / |  .$. .| |  .| } } / / ^ ^ ^ T T J s e j d V ! | / ^ ^ / } | O.| $.$.O.| / ^ ( } | } w s n K E } U T P P T ^ } ..$.",
"] z C P T / | | #.$.O. .| | } } / / ^ ^ ^ ^ P j e v N C Y T K T ^ / ^ / O.| } $.$.O.} ! T ! _ _ a P 1.8.4...} L P P P P ^ } ..$.",
"O.B L P U / / |  .$. .| | | _ / / / / ^ } P s 0 K _ K J P C P Y ^ ^ / Y R } O.$.O.O.} ^ T T ^ l Q @.4.q.8.4.} P T P Z T } } $.$.",
"| P P T T T ^ |  .$.$. .| | } } / / ^ ^ C 0 4 b ] ;.C C C J K P ~ ^ T Y U / | $.$.$.| ( R R B K  .:.,.:. .} ^ T T P C } } | | .."
};
